<svg width="457" height="370" viewBox="0 0 457 370" fill="none" xmlns="http://www.w3.org/2000/svg">
<rect x="1" y="1" width="103.387" height="26.8975" rx="3.36219" stroke="#00FFB3" stroke-width="0.840547"/>
<path d="M30.12 9.3598L30.3822 9.84395C29.2525 10.2575 27.9816 10.4996 26.5695 10.5702V12.527H30.7655V13.0414H29.2223V18.4175H28.6877V13.0414H26.5695V13.2229C26.509 15.3613 26.0753 17.076 25.2482 18.3469L24.8649 17.9535C25.5911 16.8138 25.9845 15.2403 26.045 13.2229V10.0961C27.5378 10.0659 28.8995 9.82378 30.12 9.3598ZM25.0565 10.8627L25.3591 11.246C24.9758 11.7301 24.4816 12.2143 23.8562 12.6783V12.8699C23.8461 13.5659 23.7957 14.2114 23.715 14.7965C24.1487 15.3411 24.5925 15.9564 25.0464 16.6625L24.7136 17.1466C24.2899 16.38 23.9167 15.7849 23.6141 15.3411C23.3418 16.6524 22.8476 17.6913 22.1213 18.4377L21.7179 18.0746C22.787 16.9953 23.3216 15.2604 23.3418 12.8699V9.31945H23.8562V12.1336C24.3303 11.7301 24.7337 11.3065 25.0565 10.8627ZM22.0911 10.9736C22.3331 11.8007 22.545 12.7388 22.7366 13.808L22.3029 13.9189C22.1314 12.9405 21.9196 12.0025 21.6573 11.1149L22.0911 10.9736ZM36.1181 9.23876H36.6628V9.64222H40.3444V10.0558H36.6628V10.6811H40.6268V12.3757H40.1124V11.1249H33.3746V12.4362H32.8601V10.6811H36.1181V9.23876ZM34.0201 11.7604H39.4769V12.1739H34.0201V11.7604ZM38.6297 14.5443C37.8732 14.1408 37.2579 13.7071 36.7737 13.233C36.2089 13.7273 35.5835 14.161 34.8976 14.5443H38.6297ZM34.1916 14.8973C33.6368 15.1596 33.0518 15.3815 32.4466 15.5832L32.1642 15.1495C34.0806 14.5443 35.5533 13.7575 36.5821 12.7892H36.9553C37.7925 13.6567 39.2248 14.4233 41.2421 15.089L40.9597 15.5227C40.415 15.3411 39.9107 15.1394 39.4467 14.9377V18.4377H38.9222V18.004H34.706V18.468H34.1916V14.8973ZM34.706 17.5904H38.9222V16.9852H34.706V17.5904ZM34.706 16.5818H38.9222V15.9968H34.706V16.5818ZM34.706 15.6034H38.9222V14.9679H34.706V15.6034ZM38.2161 12.4261C39.1441 12.759 39.9913 13.1624 40.7579 13.6264L40.4755 14.05C39.6686 13.5155 38.8314 13.0918 37.974 12.7892L38.2161 12.4261ZM35.2103 12.4564L35.6138 12.7085C35.2608 12.991 34.8976 13.2229 34.5345 13.4045C34.1311 13.6062 33.6267 13.808 33.0114 13.9895L32.7492 13.5659C33.2939 13.4348 33.7679 13.2734 34.1916 13.0817C34.5648 12.9002 34.9077 12.6984 35.2103 12.4564ZM44.5572 11.7201C44.1537 12.648 43.6494 13.4348 43.024 14.0601L42.6609 13.6163C43.6393 12.6077 44.305 11.2258 44.648 9.49092L45.2027 9.60187C45.0817 10.1667 44.9304 10.7013 44.7589 11.1956H47.1595V9.30936H47.6941V11.1956H51.0933V11.7201H47.6941V14.2518H50.8916V14.7864H47.6941V17.54H51.7388V18.0847H42.903V17.54H47.1595V14.7864H44.1235V14.2518H47.1595V11.7201H44.5572ZM55.8104 16.8642H59.9863V17.2273H55.8104V16.8642ZM58.4834 15.5025H57.1217C57.0813 15.8455 56.92 16.1279 56.6476 16.3498C56.345 16.5717 55.8508 16.7432 55.1649 16.8743L54.9329 16.5112C55.5684 16.4103 56.0223 16.2792 56.2946 16.0976C56.5064 15.9362 56.6274 15.7345 56.6577 15.5025H54.6202V17.7316H60.9042V16.4506H59.0381C58.6649 16.4506 58.4834 16.2792 58.4834 15.9564V15.5025ZM60.9042 18.1149H54.6202V18.4478H54.1058V15.1293H56.5972V14.5241H53.4603V14.0803H62.054V14.5241H58.9978V15.1293H61.4287V18.4478H60.9042V18.1149ZM58.4834 14.5241H57.1217V15.1293H58.4834V14.5241ZM60.9042 16.0976V15.5025H58.9574V15.8959C58.9574 16.027 59.018 16.0976 59.139 16.0976H60.9042ZM58.443 11.9823C59.0482 12.1639 59.6131 12.3454 60.1376 12.5471C60.5007 12.3152 60.8235 12.0428 61.0857 11.7402H58.1203V11.3267H61.6606V11.6797C61.3681 12.0832 61.0151 12.4362 60.6116 12.7287C61.1765 12.9506 61.6909 13.1725 62.1549 13.4146L61.8624 13.7575C61.3681 13.4852 60.8134 13.233 60.2082 12.991C59.6332 13.3137 58.9675 13.5457 58.201 13.6869L57.9992 13.3036C58.6448 13.1927 59.2096 13.0212 59.7039 12.7892C59.2298 12.6077 58.7255 12.4362 58.201 12.2748L58.443 11.9823ZM53.4199 9.47075H57.8278V9.89438H54.2773V12.8901C54.2773 13.0918 54.3781 13.2028 54.6001 13.2028H57.7168V13.6062H54.4588C54.015 13.6062 53.7931 13.3843 53.7931 12.9506V9.89438H53.4199V9.47075ZM55.4473 10.8022C55.296 11.014 55.1346 11.1956 54.9632 11.3368L54.6606 11.0745C54.9934 10.7921 55.2456 10.4189 55.4271 9.94482L55.8004 10.0961C55.7499 10.2172 55.6995 10.3382 55.6491 10.4491H57.505V10.8022H56.5871C56.5871 11.0846 56.577 11.2863 56.577 11.4175H57.8076V11.7705H56.5165C56.4963 11.8411 56.4661 11.9117 56.4459 11.9823C56.9099 12.184 57.3436 12.4261 57.7269 12.6884L57.505 13.0313C57.1015 12.7085 56.6981 12.4564 56.2946 12.2647C56.0323 12.6379 55.6087 12.9002 55.0136 13.0616L54.7917 12.6984C55.528 12.5371 55.9617 12.2345 56.0929 11.7705H54.7211V11.4175H56.1433C56.1433 11.2561 56.1534 11.0543 56.1534 10.8022H55.4473ZM58.7355 9.48084H61.0554V10.3483C61.0554 10.4491 61.1261 10.4996 61.2874 10.4996H62.165V10.9333H61.1866C60.7831 10.9333 60.5814 10.7618 60.5814 10.4189V9.89438H59.1693C59.1491 10.1465 59.0684 10.3685 58.9474 10.5601C58.7759 10.782 58.5237 10.9837 58.201 11.1754L57.8782 10.8627C58.1404 10.7013 58.3523 10.5298 58.5035 10.3483C58.6548 10.1667 58.7355 9.87421 58.7355 9.48084ZM71.5522 12.3353V18.4478H71.0075V18.004H65.5204V18.4478H64.9758V12.3353H67.7294C67.8303 11.952 67.9009 11.5587 67.9412 11.1552H63.8259V10.6307H66.4887C66.3374 10.197 66.1559 9.78343 65.934 9.40014L66.4686 9.19841C66.6804 9.60187 66.872 10.0759 67.0536 10.6307H69.4138C69.6559 10.1768 69.8677 9.69265 70.0493 9.17824L70.594 9.36988C70.4124 9.84395 70.2208 10.2676 69.9989 10.6307H72.7021V11.1552H68.5262C68.4657 11.5688 68.3749 11.9621 68.2741 12.3353H71.5522ZM65.5204 17.4997H71.0075V16.2489H65.5204V17.4997ZM65.5204 15.7648H71.0075V14.5443H65.5204V15.7648ZM65.5204 14.0601H71.0075V12.8397H65.5204V14.0601ZM75.5633 11.246H78.1858C78.2967 10.903 78.3774 10.5399 78.4279 10.1768H74.4639V9.67248H83.0778V10.1768H78.9725C78.912 10.55 78.8414 10.903 78.7406 11.246H82.1296V16.612H75.5633V11.246ZM81.6051 16.0976V14.9175H76.108V16.0976H81.6051ZM76.108 14.4333H81.6051V13.3238H76.108V14.4333ZM76.108 12.8397H81.6051V11.7503H76.108V12.8397ZM79.9711 16.8541C81.1815 17.1567 82.2809 17.5299 83.2694 17.9737L82.9668 18.4175C81.9178 17.9132 80.8285 17.5198 79.7189 17.2374L79.9711 16.8541ZM77.5201 16.8541L77.8025 17.2273C77.0359 17.7316 75.9365 18.1351 74.4941 18.4377L74.2319 17.9838C75.6742 17.6913 76.7737 17.3181 77.5201 16.8541Z" fill="#00FFB3"/>
<rect x="167.429" y="32.9414" width="84.0547" height="26.8975" rx="3.36219" fill="#00FFB3"/>
<path d="M190.766 41.6542H196.213V44.7912H190.766V41.6542ZM195.658 44.2667V42.1787H191.321V44.2667H195.658ZM192.854 45.9814V50.2177H192.319V49.6831H189.989V50.2177H189.455V45.9814H192.854ZM189.989 49.1687H192.319V46.4958H189.989V49.1687ZM197.544 45.9814V50.2177H196.999V49.6831H194.569V50.2177H194.034V45.9814H197.544ZM194.569 49.1687H196.999V46.4958H194.569V49.1687ZM200.627 46.6874C200.557 48.3013 200.274 49.5117 199.79 50.2984L199.407 49.9656C199.881 49.1385 200.123 47.8272 200.133 46.0318V41.4828H200.647V44.0548H201.938V41.3012H202.453V44.5491H200.647V46.173H202.534V50.2581H201.999V46.6874H200.627ZM203.552 42.1182H205.126C205.277 41.7954 205.388 41.4727 205.469 41.1398L206.003 41.2104C205.923 41.5332 205.822 41.8358 205.681 42.1182H208.041V46.2436H205.701C205.66 46.3445 205.61 46.4353 205.56 46.526C205.247 47.0505 204.732 47.454 204.016 47.7566L203.764 47.3632C204.4 47.0909 204.864 46.7177 205.146 46.2436H203.552V42.1182ZM207.536 45.7695V44.418H206.054C206.034 44.9425 205.973 45.3863 205.862 45.7695H207.536ZM205.348 45.7695C205.469 45.3762 205.529 44.9223 205.549 44.418H204.057V45.7695H205.348ZM204.057 43.9338H205.56V42.6024H204.057V43.9338ZM206.064 42.6024V43.9338H207.536V42.6024H206.064ZM203.078 47.8272H206.235V46.6874H206.76V47.8272H208.575V48.3416H206.76V50.3388H206.235V48.3416H203.078V47.8272ZM215.925 44.5692H216.47V50.2984H215.925V44.5692ZM212.516 44.5995H213.061V46.405C213.03 48.2206 212.425 49.5419 211.245 50.3892L210.831 50.016C211.931 49.2696 212.496 48.0592 212.516 46.405V44.5995ZM214.321 41.2104H214.705C215.955 42.7335 217.408 43.9338 219.042 44.8113L218.77 45.2854C217.105 44.3776 215.683 43.1975 214.513 41.7248C213.444 43.137 212.022 44.3473 210.267 45.3762L210.004 44.892C211.739 43.9035 213.171 42.673 214.321 41.2104ZM220.965 47.807L221.429 47.8676C221.369 48.7552 221.207 49.5419 220.955 50.2278L220.461 50.0765C220.733 49.4209 220.905 48.6644 220.965 47.807ZM222.468 47.7364C222.609 48.2811 222.71 49.0275 222.771 49.9756L222.276 50.0362C222.236 49.0679 222.145 48.3114 222.024 47.7869L222.468 47.7364ZM223.608 47.454C223.87 48.0592 224.082 48.7047 224.263 49.3705L223.82 49.5621C223.638 48.8258 223.436 48.1802 223.214 47.6154L223.608 47.454ZM223.366 45.0433C223.688 45.6687 223.971 46.3344 224.193 47.0405L223.759 47.2321C223.688 47.0102 223.618 46.8085 223.547 46.6067C222.569 46.8892 221.621 47.0808 220.713 47.1817L220.572 46.6975C220.662 46.6572 220.743 46.6168 220.814 46.5563C221.247 46.1226 221.762 45.4064 222.367 44.418C221.772 44.539 221.187 44.6399 220.612 44.7205L220.481 44.2263C220.562 44.186 220.642 44.1154 220.713 44.0145C221.258 43.2076 221.732 42.2695 222.135 41.1903L222.639 41.392C222.135 42.562 221.631 43.49 221.126 44.1658C221.641 44.0952 222.155 44.0044 222.67 43.9035C222.871 43.5303 223.093 43.137 223.315 42.7335L223.789 42.9151C222.801 44.7004 221.984 45.941 221.338 46.637C222.034 46.526 222.72 46.3747 223.396 46.1932C223.255 45.8301 223.103 45.5073 222.962 45.2047L223.366 45.0433ZM229.054 46.2436V50.369H228.53V49.8445H225.242V50.369H224.707V46.2436H229.054ZM225.242 49.32H228.53V46.758H225.242V49.32ZM226.049 42.1686H224.253V41.6643H229.206C229.196 43.5102 229.105 44.6197 228.923 44.9929C228.742 45.356 228.429 45.5376 227.985 45.5376C227.723 45.5376 227.42 45.5275 227.057 45.5073L226.916 45.003C227.289 45.0231 227.602 45.0332 227.854 45.0433C228.197 45.0231 228.419 44.8618 228.51 44.5592C228.59 44.2566 228.651 43.4597 228.671 42.1686H226.573C226.412 43.026 226.19 43.7119 225.887 44.2162C225.544 44.7811 225.03 45.2753 224.344 45.7191L224.021 45.3157C224.637 44.9122 225.101 44.4785 225.413 43.9943C225.696 43.5303 225.907 42.9151 226.049 42.1686Z" fill="#1A1A1A"/>
<rect x="167.429" y="86.7363" width="84.0547" height="26.8975" rx="3.36219" fill="#00FFB3"/>
<path d="M194.992 96.3267H193.298V99.2921H194.992V96.3267ZM194.992 99.8065H193.298V102.913H194.992V99.8065ZM195.496 102.913H197.211V99.8065H195.496V102.913ZM195.496 99.2921H197.211V96.3267H195.496V99.2921ZM197.211 103.418H193.298V104.134H192.793V95.8224H197.716V104.134H197.211V103.418ZM189.404 101.602L189.868 101.662C189.808 102.56 189.656 103.357 189.434 104.053L188.94 103.902C189.192 103.236 189.344 102.469 189.404 101.602ZM190.826 101.531C190.958 102.076 191.048 102.812 191.099 103.74L190.615 103.801C190.584 102.843 190.504 102.106 190.383 101.582L190.826 101.531ZM191.805 101.249C192.027 101.794 192.208 102.379 192.37 102.984L191.936 103.165C191.775 102.5 191.593 101.915 191.401 101.41L191.805 101.249ZM191.603 98.8685C191.926 99.4939 192.208 100.16 192.44 100.866L191.996 101.047C191.926 100.825 191.855 100.613 191.785 100.412C190.907 100.694 190.06 100.886 189.233 100.987L189.092 100.513C189.192 100.472 189.273 100.422 189.334 100.361C189.737 99.9276 190.221 99.2014 190.786 98.1927C190.201 98.3037 189.636 98.3944 189.081 98.4751L188.96 98.0011C189.041 97.9607 189.112 97.9002 189.172 97.8094C189.677 97.0025 190.12 96.0543 190.504 94.965L191.008 95.1667C190.524 96.3569 190.05 97.2849 189.576 97.9607C190.07 97.8901 190.564 97.7993 191.058 97.6884C191.25 97.3152 191.452 96.9218 191.653 96.5082L192.128 96.6999C191.179 98.5256 190.413 99.7763 189.818 100.462C190.423 100.351 191.028 100.2 191.633 100.008C191.482 99.6452 191.331 99.3224 191.19 99.0299L191.603 98.8685ZM200.617 98.233V100.18C200.617 100.281 200.607 100.371 200.607 100.472C201.172 100.371 201.676 100.25 202.14 100.109V98.6869C201.646 98.4953 201.142 98.344 200.617 98.233ZM202.14 98.1927V95.9232H200.617V97.759C201.152 97.8699 201.656 98.0111 202.14 98.1927ZM200.587 100.987C200.516 102.268 200.284 103.327 199.891 104.174L199.477 103.801C199.881 102.863 200.093 101.662 200.103 100.21V95.4088H202.665V103.236C202.665 103.811 202.412 104.103 201.928 104.103H201.071L200.94 103.599C201.232 103.609 201.505 103.619 201.757 103.619C202.009 103.619 202.14 103.428 202.14 103.054V100.613C201.656 100.755 201.132 100.886 200.587 100.987ZM204.349 94.9347L204.874 94.9953C204.773 95.4189 204.652 95.8324 204.5 96.2157H208.041C208.021 98.697 207.98 100.149 207.92 100.583C207.859 101.007 207.748 101.299 207.587 101.451C207.415 101.592 207.072 101.673 206.558 101.673H206.276L206.104 101.158C206.316 101.158 206.518 101.168 206.719 101.168C206.992 101.168 207.173 101.088 207.274 100.946C207.355 100.805 207.405 100.543 207.436 100.17C207.456 99.7864 207.476 98.6365 207.496 96.7201H204.279C203.946 97.4261 203.522 98.0515 203.008 98.5962L202.695 98.1826C203.512 97.295 204.067 96.2157 204.349 94.9347ZM206.316 98.1624V100.835H204.117V102.913C204.117 103.276 204.289 103.468 204.642 103.478H207.173C207.486 103.468 207.708 103.357 207.839 103.135C207.94 102.943 208.011 102.52 208.071 101.854L208.555 102.005C208.495 102.631 208.414 103.085 208.313 103.357C208.132 103.75 207.799 103.952 207.304 103.972H204.47C203.885 103.972 203.603 103.67 203.603 103.065V98.1624H206.316ZM204.117 100.341H205.802V98.6567H204.117V100.341ZM212.566 102.601H216.742V102.964H212.566V102.601ZM215.239 101.239H213.878C213.837 101.582 213.676 101.864 213.403 102.086C213.101 102.308 212.607 102.479 211.921 102.611L211.689 102.247C212.324 102.147 212.778 102.016 213.05 101.834C213.262 101.673 213.383 101.471 213.414 101.239H211.376V103.468H217.66V102.187H215.794C215.421 102.187 215.239 102.016 215.239 101.693V101.239ZM217.66 103.851H211.376V104.184H210.862V100.866H213.353V100.26H210.216V99.8166H218.81V100.26H215.754V100.866H218.185V104.184H217.66V103.851ZM215.239 100.26H213.878V100.866H215.239V100.26ZM217.66 101.834V101.239H215.713V101.632C215.713 101.763 215.774 101.834 215.895 101.834H217.66ZM215.199 97.7186C215.804 97.9002 216.369 98.0817 216.893 98.2835C217.257 98.0515 217.579 97.7791 217.842 97.4766H214.876V97.063H218.417V97.416C218.124 97.8195 217.771 98.1725 217.368 98.465C217.932 98.6869 218.447 98.9088 218.911 99.1509L218.618 99.4939C218.124 99.2215 217.569 98.9694 216.964 98.7273C216.389 99.0501 215.723 99.282 214.957 99.4233L214.755 99.04C215.401 98.929 215.965 98.7575 216.46 98.5256C215.986 98.344 215.481 98.1725 214.957 98.0111L215.199 97.7186ZM210.176 95.2071H214.584V95.6307H211.033V98.6264C211.033 98.8282 211.134 98.9391 211.356 98.9391H214.473V99.3426H211.215C210.771 99.3426 210.549 99.1207 210.549 98.6869V95.6307H210.176V95.2071ZM212.203 96.5385C212.052 96.7503 211.89 96.9319 211.719 97.0731L211.416 96.8108C211.749 96.5284 212.001 96.1552 212.183 95.6811L212.556 95.8324C212.506 95.9535 212.455 96.0745 212.405 96.1855H214.261V96.5385H213.343C213.343 96.8209 213.333 97.0227 213.333 97.1538H214.563V97.5068H213.272C213.252 97.5774 213.222 97.648 213.202 97.7186C213.666 97.9204 214.099 98.1624 214.483 98.4247L214.261 98.7676C213.857 98.4449 213.454 98.1927 213.05 98.0011C212.788 98.3743 212.365 98.6365 211.769 98.7979L211.548 98.4348C212.284 98.2734 212.718 97.9708 212.849 97.5068H211.477V97.1538H212.899C212.899 96.9924 212.909 96.7907 212.909 96.5385H212.203ZM215.491 95.2172H217.811V96.0846C217.811 96.1855 217.882 96.2359 218.043 96.2359H218.921V96.6696H217.942C217.539 96.6696 217.337 96.4982 217.337 96.1552V95.6307H215.925C215.905 95.8829 215.824 96.1048 215.703 96.2964C215.532 96.5183 215.28 96.7201 214.957 96.9117L214.634 96.599C214.896 96.4376 215.108 96.2662 215.259 96.0846C215.411 95.903 215.491 95.6105 215.491 95.2172ZM222.165 100.21H227.683V100.654C226.997 100.956 226.23 101.249 225.373 101.541V101.965H229.418V102.429H225.373V103.448C225.373 103.892 225.131 104.124 224.657 104.124H223.527L223.396 103.66C223.729 103.67 224.092 103.68 224.485 103.68C224.737 103.68 224.869 103.549 224.869 103.286V102.429H220.632V101.965H224.869V101.299C225.716 101.037 226.351 100.815 226.785 100.654H222.165V100.21ZM221.933 97.0933L221.994 97.8397H223.557V98.2532H222.024L222.095 99.04H227.975L228.026 98.2532H226.503V97.8397H228.056L228.106 97.0933H226.543V96.6898H228.137L228.187 95.8526H226.482V95.3987H228.712L228.48 99.04H229.226V100.583H228.701V99.4737H221.338V100.573H220.814V99.04H221.59L221.318 95.55C222.125 95.429 222.811 95.2676 223.366 95.0659L223.547 95.4996C223.204 95.6307 222.629 95.7719 221.832 95.9232L221.903 96.6898H223.537V97.0933H221.933ZM224.152 95.2474C224.485 95.429 224.798 95.6206 225.09 95.8123C225.333 95.6105 225.544 95.3886 225.746 95.1466L226.089 95.3483C225.857 95.6206 225.635 95.8526 225.433 96.0443C225.696 96.2258 225.938 96.4074 226.16 96.5889L225.877 96.8814C225.655 96.6797 225.393 96.4881 225.111 96.2863C224.798 96.5082 224.425 96.7201 223.991 96.9218L223.759 96.5788C224.142 96.4376 224.475 96.2561 224.768 96.0543C224.485 95.8728 224.193 95.6912 223.88 95.5097L224.152 95.2474ZM224.253 97.1034C224.576 97.2849 224.869 97.4564 225.151 97.6379C225.393 97.4261 225.615 97.1941 225.817 96.9521L226.15 97.1639C225.928 97.4362 225.706 97.6682 225.494 97.8699C225.786 98.0717 226.049 98.2633 226.291 98.465L225.998 98.7475C225.756 98.5457 225.484 98.3339 225.171 98.1221C224.869 98.344 224.495 98.5558 224.062 98.7575L223.84 98.4045C224.203 98.2633 224.536 98.0918 224.818 97.8901C224.556 97.7085 224.273 97.5371 223.971 97.3757L224.253 97.1034Z" fill="#1A1A1A"/>
<rect x="166.588" y="140.531" width="84.0547" height="26.8975" rx="3.36219" fill="#00FFB3"/>
<path d="M178.961 151.574H182.259C182.744 151.181 183.218 150.727 183.671 150.202H180.383C179.707 150.969 178.911 151.635 178.003 152.22L177.66 151.796C178.991 150.979 180.05 149.95 180.827 148.72L181.382 148.841C181.2 149.143 180.999 149.426 180.797 149.698H184.367V150.122C183.893 150.707 183.429 151.191 182.965 151.574H185.588V154.489H183.268V156.728C183.268 157.071 183.429 157.253 183.752 157.253H185.437C185.659 157.253 185.81 157.182 185.891 157.061C186.001 156.9 186.082 156.416 186.123 155.609L186.637 155.77C186.576 156.718 186.455 157.303 186.274 157.525C186.123 157.697 185.88 157.787 185.548 157.787H183.591C183.006 157.787 182.723 157.465 182.723 156.839V154.489H182.058C181.987 154.691 181.906 154.893 181.826 155.084C181.251 156.254 179.99 157.212 178.033 157.949L177.69 157.525C179.455 156.88 180.635 156.042 181.231 155.034C181.321 154.852 181.402 154.671 181.473 154.489H178.961V151.574ZM185.053 153.965V152.088H182.441C182.421 152.774 182.35 153.4 182.209 153.965H185.053ZM181.644 153.965C181.785 153.4 181.876 152.774 181.896 152.088H179.506V153.965H181.644ZM191.173 154.146H196.206V154.6C195.833 155.346 195.248 155.992 194.441 156.537C195.227 156.96 196.186 157.303 197.325 157.576L197.023 158.029C195.782 157.707 194.763 157.313 193.956 156.829C193.089 157.313 192.03 157.697 190.779 157.999L190.507 157.525C191.687 157.263 192.675 156.93 193.482 156.527C192.716 155.982 192.171 155.346 191.858 154.62H191.173V154.146ZM192.363 154.62C192.696 155.246 193.23 155.79 193.956 156.254C194.703 155.79 195.268 155.246 195.641 154.62H192.363ZM189.851 153.087C189.851 152.996 189.861 152.905 189.861 152.825V149.617H193.23C193.099 149.295 192.958 148.992 192.796 148.73L193.351 148.639C193.492 148.921 193.634 149.254 193.775 149.617H196.962V150.142H190.406V152.825C190.356 154.963 189.831 156.668 188.822 157.959L188.409 157.586C189.196 156.607 189.67 155.316 189.811 153.702C189.347 154.106 188.822 154.489 188.247 154.852L188.106 154.318C188.742 153.965 189.327 153.551 189.851 153.087ZM188.611 150.333C188.943 150.939 189.226 151.574 189.468 152.24L189.004 152.442C188.742 151.715 188.459 151.07 188.147 150.525L188.611 150.333ZM192.292 150.989H195.449V152.542C195.449 152.805 195.59 152.946 195.873 152.946H196.952V153.43H195.762C195.197 153.43 194.925 153.158 194.925 152.623V151.473H192.817V151.756C192.817 152.603 192.343 153.269 191.394 153.733L191.041 153.339C191.869 152.976 192.292 152.462 192.292 151.806V150.989ZM204.665 150.122H202.97V153.087H204.665V150.122ZM204.665 153.601H202.97V156.708H204.665V153.601ZM205.169 156.708H206.884V153.601H205.169V156.708ZM205.169 153.087H206.884V150.122H205.169V153.087ZM206.884 157.212H202.97V157.929H202.466V149.617H207.388V157.929H206.884V157.212ZM199.077 155.397L199.541 155.457C199.481 156.355 199.329 157.152 199.107 157.848L198.613 157.697C198.865 157.031 199.017 156.264 199.077 155.397ZM200.499 155.326C200.63 155.871 200.721 156.607 200.772 157.535L200.287 157.596C200.257 156.638 200.176 155.901 200.055 155.377L200.499 155.326ZM201.478 155.044C201.7 155.589 201.881 156.174 202.042 156.779L201.609 156.96C201.447 156.295 201.266 155.71 201.074 155.205L201.478 155.044ZM201.276 152.663C201.599 153.289 201.881 153.955 202.113 154.661L201.669 154.842C201.599 154.62 201.528 154.408 201.457 154.207C200.58 154.489 199.733 154.681 198.906 154.782L198.764 154.308C198.865 154.267 198.946 154.217 199.006 154.156C199.41 153.723 199.894 152.996 200.459 151.988C199.874 152.099 199.309 152.189 198.754 152.27L198.633 151.796C198.714 151.756 198.785 151.695 198.845 151.604C199.349 150.797 199.793 149.849 200.176 148.76L200.681 148.962C200.197 150.152 199.723 151.08 199.249 151.756C199.743 151.685 200.237 151.594 200.731 151.483C200.923 151.11 201.125 150.717 201.326 150.303L201.8 150.495C200.852 152.32 200.086 153.571 199.491 154.257C200.096 154.146 200.701 153.995 201.306 153.803C201.155 153.44 201.004 153.117 200.862 152.825L201.276 152.663ZM210.29 152.028V153.975C210.29 154.076 210.28 154.166 210.28 154.267C210.845 154.166 211.349 154.045 211.813 153.904V152.482C211.319 152.29 210.814 152.139 210.29 152.028ZM211.813 151.988V149.718H210.29V151.554C210.825 151.665 211.329 151.806 211.813 151.988ZM210.26 154.782C210.189 156.063 209.957 157.122 209.564 157.969L209.15 157.596C209.554 156.658 209.765 155.457 209.776 154.005V149.204H212.338V157.031C212.338 157.606 212.085 157.898 211.601 157.898H210.744L210.613 157.394C210.905 157.404 211.178 157.414 211.43 157.414C211.682 157.414 211.813 157.223 211.813 156.849V154.408C211.329 154.55 210.804 154.681 210.26 154.782ZM214.022 148.73L214.546 148.79C214.446 149.214 214.325 149.627 214.173 150.011H217.714C217.693 152.492 217.653 153.944 217.593 154.378C217.532 154.802 217.421 155.094 217.26 155.246C217.088 155.387 216.745 155.467 216.231 155.467H215.948L215.777 154.953C215.989 154.953 216.191 154.963 216.392 154.963C216.665 154.963 216.846 154.882 216.947 154.741C217.028 154.6 217.078 154.338 217.108 153.965C217.129 153.581 217.149 152.431 217.169 150.515H213.951C213.618 151.221 213.195 151.846 212.68 152.391L212.368 151.978C213.185 151.09 213.74 150.011 214.022 148.73ZM215.989 151.957V154.63H213.79V156.708C213.79 157.071 213.961 157.263 214.314 157.273H216.846C217.159 157.263 217.381 157.152 217.512 156.93C217.613 156.738 217.683 156.315 217.744 155.649L218.228 155.8C218.168 156.426 218.087 156.88 217.986 157.152C217.804 157.545 217.472 157.747 216.977 157.767H214.143C213.558 157.767 213.276 157.465 213.276 156.859V151.957H215.989ZM213.79 154.136H215.474V152.452H213.79V154.136ZM222.249 149.658H225.084V148.8H225.628V149.658H228.483V150.182H225.628V151.181H228.049V154.61H226.203C226.707 155.528 227.575 156.345 228.806 157.071L228.452 157.505C227.161 156.638 226.264 155.679 225.749 154.61H225.628V157.979H225.084V154.61H225.003C224.428 155.78 223.47 156.748 222.128 157.495L221.836 157.031C223.086 156.395 223.994 155.589 224.539 154.61H222.673V151.181H225.084V150.182H222.249V149.658ZM227.535 154.136V153.117H225.618V154.136H227.535ZM225.104 154.136V153.117H223.197V154.136H225.104ZM223.197 152.653H225.104V151.655H223.197V152.653ZM225.618 151.655V152.653H227.535V151.655H225.618ZM220.131 149.153C220.837 150.011 221.372 150.757 221.745 151.403L221.311 151.705C220.918 151.019 220.373 150.263 219.687 149.426L220.131 149.153ZM221.442 153.299L221.937 153.501C221.412 154.983 220.817 156.385 220.161 157.697L219.657 157.475C220.343 156.113 220.938 154.721 221.442 153.299ZM230.416 149.869H233.24C233.381 149.496 233.513 149.123 233.613 148.74L234.168 148.8C234.067 149.173 233.946 149.526 233.825 149.869H239.07V150.404H233.613C233.25 151.271 232.786 152.068 232.242 152.805V157.989H231.697V153.48C231.304 153.934 230.88 154.368 230.416 154.772L230.083 154.328C231.374 153.198 232.353 151.897 233.018 150.404H230.416V149.869ZM233.099 154.519H236.095V153.501C236.7 153.158 237.285 152.754 237.83 152.28H233.886V151.766H238.536V152.28C237.981 152.795 237.345 153.279 236.639 153.733V154.519H239.232V155.054H236.639V157.152C236.639 157.676 236.367 157.939 235.843 157.939H234.582L234.441 157.424C234.804 157.434 235.207 157.444 235.631 157.444C235.933 157.444 236.095 157.283 236.095 156.98V155.054H233.099V154.519Z" fill="#1A1A1A"/>
<rect x="167.429" y="194.326" width="84.0547" height="26.8975" rx="3.36219" fill="#00FFB3"/>
<path d="M189.071 206.519H197.948V207.003H193.348V211.784H192.803V210.796C191.875 210.977 190.665 211.118 189.172 211.219L189.102 210.735L190.06 210.675V207.003H189.071V206.519ZM190.584 210.634C191.422 210.553 192.158 210.463 192.803 210.342V209.595H190.584V210.634ZM190.584 209.172H192.803V208.294H190.584V209.172ZM190.584 207.87H192.803V207.003H190.584V207.87ZM194.266 208.254H193.963V207.77H197.322V208.223C197.1 209.03 196.717 209.716 196.182 210.291C196.667 210.685 197.262 211.028 197.968 211.33L197.685 211.774C196.939 211.431 196.324 211.058 195.829 210.634C195.315 211.078 194.7 211.451 193.973 211.754L193.691 211.33C194.397 211.038 194.982 210.685 195.456 210.281C194.871 209.676 194.468 209 194.266 208.254ZM195.799 209.948C196.263 209.454 196.606 208.889 196.818 208.254H194.76C194.952 208.889 195.295 209.454 195.799 209.948ZM196.626 202.968V205.904H196.081V203.402H190.958V205.934H190.423V202.968H196.626ZM191.411 204.189H195.628V204.582H191.411V204.189ZM191.391 205.278H195.648V205.682H191.391V205.278ZM201.575 206.287H199.508V205.772H200.738C200.597 205.329 200.425 204.925 200.224 204.542L200.708 204.35C200.9 204.754 201.071 205.228 201.232 205.772H202.433C202.614 205.329 202.776 204.855 202.917 204.35L203.421 204.522C203.27 204.996 203.108 205.409 202.927 205.772H204.168V206.287H202.12V207.548H203.986V208.062H202.12V211.774H201.575V208.062H199.669V207.548H201.575V206.287ZM208.061 202.686L208.323 203.17C207.415 203.533 206.417 203.755 205.307 203.816V205.823H208.626V206.337H207.506V211.774H206.972V206.337H205.307V207.558C205.257 209.303 204.874 210.695 204.168 211.734L203.774 211.32C204.4 210.412 204.732 209.162 204.773 207.558V203.362C205.983 203.332 207.072 203.11 208.061 202.686ZM199.598 203.483H201.626C201.485 203.15 201.343 202.847 201.182 202.585L201.737 202.484C201.878 202.777 202.019 203.11 202.16 203.483H204.097V204.007H199.598V203.483ZM200.456 208.708L200.96 208.809C200.698 209.837 200.325 210.725 199.851 211.481L199.397 211.189C199.881 210.463 200.234 209.636 200.456 208.708ZM203.139 208.657C203.421 209.303 203.633 209.898 203.794 210.432L203.32 210.614C203.149 209.989 202.937 209.373 202.675 208.788L203.139 208.657ZM211.911 207.78L212.385 207.971C211.88 209.283 211.326 210.503 210.71 211.643L210.196 211.421C210.862 210.231 211.427 209.02 211.911 207.78ZM210.781 202.736C211.477 203.251 212.062 203.765 212.526 204.27L212.133 204.663C211.709 204.179 211.124 203.664 210.388 203.12L210.781 202.736ZM210.468 205.107C211.134 205.621 211.689 206.136 212.143 206.65L211.749 207.043C211.346 206.549 210.781 206.025 210.075 205.48L210.468 205.107ZM215.653 202.565H216.167V205.308H218.487V210.957C218.487 211.451 218.195 211.703 217.63 211.703H216.409L216.258 211.189C216.692 211.199 217.095 211.209 217.468 211.209C217.791 211.209 217.953 211.058 217.953 210.765V209.061C216.762 209.293 215.491 209.484 214.13 209.636L213.999 209.131C215.38 208.99 216.702 208.809 217.953 208.566V205.823H213.928V206.993C214.664 207.064 215.269 207.134 215.733 207.195C216.087 207.245 216.561 207.326 217.146 207.447L216.954 207.881C216.429 207.78 215.925 207.689 215.431 207.618C214.937 207.538 214.432 207.487 213.928 207.447V207.971C213.908 209.545 213.585 210.816 212.96 211.784L212.536 211.401C213.101 210.513 213.383 209.383 213.403 208.012V205.308H215.653V202.565ZM213.383 202.868C213.787 203.402 214.16 203.987 214.503 204.623L214.069 204.834C213.706 204.189 213.323 203.604 212.919 203.089L213.383 202.868ZM218.437 202.797L218.891 202.999C218.568 203.644 218.144 204.259 217.64 204.865L217.206 204.643C217.731 204.017 218.134 203.402 218.437 202.797ZM221.954 203.362H224.162C224.314 203.089 224.425 202.807 224.505 202.514L225.07 202.595C224.99 202.868 224.889 203.12 224.748 203.362H228.167V208.163H221.954V203.362ZM227.632 207.679V206.68H222.488V207.679H227.632ZM222.488 206.226H227.632V205.278H222.488V206.226ZM222.488 204.814H227.632V203.836H222.488V204.814ZM221.479 208.919L222.004 209.02C221.752 209.948 221.409 210.745 220.965 211.421L220.511 211.118C220.955 210.473 221.278 209.736 221.479 208.919ZM226.22 211.602H223.608C223.093 211.602 222.841 211.35 222.841 210.846V208.859H223.396V210.725C223.396 210.987 223.517 211.118 223.759 211.118H226.119C226.371 211.118 226.553 211.058 226.654 210.947C226.795 210.796 226.886 210.362 226.926 209.656L227.451 209.827C227.39 210.654 227.249 211.169 227.047 211.37C226.876 211.522 226.603 211.602 226.22 211.602ZM224.788 208.516C225.363 209.061 225.807 209.535 226.119 209.938L225.706 210.231C225.383 209.787 224.939 209.303 224.384 208.768L224.788 208.516ZM228.056 208.748C228.742 209.585 229.266 210.311 229.629 210.937L229.196 211.239C228.812 210.574 228.298 209.827 227.632 209.02L228.056 208.748Z" fill="#1A1A1A"/>
<rect x="372.521" y="194.326" width="84.0547" height="26.8975" rx="3.36219" fill="#00FFB3"/>
<rect x="372.521" y="194.326" width="84.0547" height="26.8975" rx="3.36219" stroke="#1A1A1A" stroke-width="0.840547" stroke-linecap="round"/>
<path d="M388.745 204.33H393.001C392.729 203.745 392.386 203.21 391.962 202.706L392.507 202.504C392.9 203.009 393.264 203.624 393.586 204.33H397.439V204.875H395.836C395.351 206.529 394.595 207.901 393.566 208.99C394.666 209.938 396.037 210.725 397.681 211.33L397.379 211.794C395.684 211.169 394.292 210.362 393.183 209.383C392.033 210.483 390.57 211.29 388.815 211.794L388.533 211.31C390.268 210.826 391.7 210.069 392.81 209.041C391.609 207.87 390.772 206.489 390.308 204.875H388.745V204.33ZM390.843 204.875C391.297 206.337 392.083 207.598 393.193 208.657C394.151 207.628 394.847 206.368 395.281 204.875H390.843ZM403.347 209.061H400.512V206.136H406.706V209.061H403.891V209.908H408.027V210.412H403.891V211.734H403.347V210.412H399.171V209.908H403.347V209.061ZM401.057 207.82V208.597H406.161V207.82H401.057ZM406.161 207.376V206.6H401.057V207.376H406.161ZM401.41 203.795H399.837V203.321H403.296C403.195 203.039 403.085 202.787 402.974 202.555L403.559 202.454C403.67 202.706 403.77 202.999 403.871 203.321H407.361V203.795H405.818L405.394 204.885H407.886V205.369H399.322V204.885H401.834L401.41 203.795ZM402.378 204.885H404.83L405.253 203.795H401.955L402.378 204.885ZM410.364 211.088V211.734H409.859V208.304H412.462V211.602H411.957V211.088H410.364ZM411.957 210.584V208.798H410.364V210.584H411.957ZM409.597 203.977H412.714V204.491H409.597V203.977ZM409.9 205.44H412.421V205.934H409.9V205.44ZM409.9 206.791H412.421V207.296H409.9V206.791ZM415.538 204.925H413.178V204.401H416.335C416.658 203.826 416.94 203.21 417.182 202.545L417.717 202.726C417.465 203.362 417.182 203.917 416.859 204.401H418.433V204.925H416.083V206.569H418.14V207.094H416.083V208.788H418.695V209.303H416.083V211.794H415.538V209.303H412.936V208.788H415.538V207.094H413.49V206.569H415.538V204.925ZM414.348 202.585C414.661 203.029 414.953 203.523 415.235 204.048L414.792 204.28C414.509 203.725 414.207 203.231 413.884 202.797L414.348 202.585ZM411.09 202.565C411.302 202.989 411.463 203.372 411.574 203.725L411.11 203.906C410.949 203.493 410.767 203.089 410.555 202.706L411.09 202.565ZM425.974 202.494H426.519V203.251H428.94V203.715H426.519V204.532H428.597V204.986H426.519V205.793H429.222V206.267H423.281V205.793H425.974V204.986H423.866V204.532H425.974V203.715H423.523V203.251H425.974V202.494ZM424.592 208.798V208.96C424.582 209.202 424.562 209.424 424.542 209.646H427.85V208.798H424.592ZM427.85 208.365V207.477H424.592V208.365H427.85ZM424.471 210.079C424.33 210.735 424.078 211.3 423.715 211.764L423.311 211.401C423.796 210.765 424.048 209.968 424.068 209V207.023H428.375V210.987C428.375 211.461 428.133 211.703 427.659 211.703H426.458L426.327 211.219C426.751 211.239 427.144 211.249 427.507 211.249C427.729 211.249 427.85 211.098 427.85 210.806V210.079H424.471ZM420.336 204.481L420.77 204.522C420.749 205.53 420.639 206.489 420.437 207.396L420.003 207.285C420.195 206.398 420.306 205.46 420.336 204.481ZM422.575 204.29C422.827 204.834 423.049 205.45 423.251 206.146L422.827 206.257C422.656 205.621 422.444 205.006 422.182 204.421L422.575 204.29ZM421.385 202.595H421.93V211.713H421.385V202.595ZM431.912 204.572H434.534C434.645 204.229 434.726 203.866 434.777 203.503H430.812V202.999H439.426V203.503H435.321C435.261 203.876 435.19 204.229 435.089 204.572H438.478V209.938H431.912V204.572ZM437.954 209.424V208.244H432.457V209.424H437.954ZM432.457 207.76H437.954V206.65H432.457V207.76ZM432.457 206.166H437.954V205.076H432.457V206.166ZM436.32 210.18C437.53 210.483 438.63 210.856 439.618 211.3L439.315 211.744C438.266 211.239 437.177 210.846 436.068 210.564L436.32 210.18ZM433.869 210.18L434.151 210.553C433.385 211.058 432.285 211.461 430.843 211.764L430.58 211.31C432.023 211.017 433.122 210.644 433.869 210.18Z" fill="#1A1A1A"/>
<rect x="167.429" y="343.102" width="84.0547" height="26.8975" rx="3.36219" fill="#00FFB3"/>
<path d="M192.642 356.394H193.116V358.129H194.145C194.175 357.907 194.195 357.685 194.205 357.463V356.162H194.71V357.463C194.69 358.27 194.528 358.915 194.205 359.399C193.883 359.843 193.368 360.196 192.642 360.459L192.36 360.025C193.035 359.793 193.52 359.47 193.802 359.067C193.893 358.915 193.963 358.754 194.024 358.593H192.642V356.394ZM197.181 356.414H197.665V358.693H196.132V360.58H195.628V356.162H196.132V358.209H197.181V356.414ZM194.528 354.064C194.73 354.598 194.901 355.214 195.063 355.899L194.649 356.01C194.609 355.819 194.558 355.637 194.518 355.466C193.741 355.617 193.025 355.738 192.37 355.829L192.269 355.415C192.662 355.193 193.166 354.618 193.782 353.68C193.308 353.721 192.844 353.771 192.39 353.812L192.269 353.388C192.349 353.358 192.41 353.297 192.46 353.216C192.864 352.672 193.207 352.026 193.499 351.29L193.953 351.471C193.59 352.258 193.227 352.884 192.864 353.348C193.267 353.327 193.661 353.287 194.064 353.237C194.236 352.954 194.407 352.652 194.589 352.349L195.022 352.52C194.175 353.953 193.499 354.891 192.995 355.335C193.398 355.274 193.873 355.183 194.417 355.082C194.326 354.77 194.236 354.477 194.135 354.195L194.528 354.064ZM197.534 353.933C197.746 354.508 197.937 355.173 198.099 355.92L197.695 356.031C197.655 355.819 197.605 355.617 197.554 355.415C196.798 355.536 196.092 355.627 195.446 355.698L195.345 355.274C195.688 355.062 196.132 354.508 196.667 353.61C196.203 353.66 195.749 353.701 195.305 353.741L195.194 353.327C195.264 353.297 195.325 353.237 195.386 353.156C195.718 352.631 196.011 352.026 196.263 351.34L196.727 351.522C196.404 352.268 196.092 352.853 195.769 353.297C196.152 353.257 196.535 353.216 196.929 353.166C197.07 352.894 197.231 352.601 197.393 352.299L197.826 352.46C197.08 353.862 196.485 354.78 196.031 355.214C196.435 355.163 196.899 355.093 197.443 355.012C197.352 354.679 197.252 354.356 197.141 354.054L197.534 353.933ZM188.95 351.814H192.349V352.319H191.764V360.61H191.25V358.582C190.544 358.875 189.808 359.117 189.021 359.309L188.89 358.804C189.071 358.764 189.243 358.724 189.404 358.683V352.319H188.95V351.814ZM189.909 358.542C190.373 358.401 190.826 358.25 191.25 358.078V356.606H189.909V358.542ZM189.909 356.101H191.25V354.467H189.909V356.101ZM189.909 353.963H191.25V352.319H189.909V353.963ZM199.931 357.917L200.436 357.977C200.375 358.875 200.224 359.672 200.002 360.358L199.497 360.206C199.729 359.541 199.871 358.784 199.931 357.917ZM201.565 357.836C201.696 358.482 201.807 359.188 201.898 359.934L201.404 360.045C201.323 359.258 201.222 358.552 201.111 357.947L201.565 357.836ZM202.453 355.365C202.695 355.91 202.907 356.545 203.088 357.271L202.624 357.382C202.574 357.201 202.523 357.019 202.483 356.858C201.545 357.12 200.637 357.301 199.76 357.402L199.619 356.908C199.719 356.868 199.8 356.827 199.861 356.767C200.294 356.353 200.809 355.678 201.404 354.729C200.799 354.82 200.214 354.901 199.629 354.971L199.508 354.487C199.588 354.447 199.659 354.386 199.729 354.286C200.325 353.448 200.839 352.47 201.273 351.35L201.787 351.552C201.242 352.773 200.698 353.741 200.153 354.447C200.678 354.397 201.192 354.326 201.706 354.245C201.938 353.842 202.181 353.418 202.443 352.954L202.957 353.146C201.928 354.921 201.081 356.152 200.415 356.837C201.061 356.737 201.706 356.606 202.352 356.444C202.251 356.121 202.13 355.809 202.009 355.516L202.453 355.365ZM202.695 357.614C202.927 358.159 203.129 358.744 203.3 359.369L202.846 359.571C202.665 358.885 202.473 358.29 202.251 357.765L202.695 357.614ZM207.738 356.827V360.529H207.214V360.015H204.521V360.499H203.996V356.827H207.738ZM204.521 359.5H207.214V357.342H204.521V359.5ZM204.803 351.32L205.307 351.441C205.186 351.734 205.065 352.016 204.944 352.288H207.738V352.692C207.375 353.539 206.851 354.286 206.185 354.931C206.871 355.456 207.688 355.91 208.636 356.283L208.414 356.757C207.385 356.313 206.528 355.809 205.832 355.244C205.146 355.819 204.329 356.313 203.381 356.716L203.058 356.303C203.986 355.91 204.783 355.446 205.438 354.911C204.954 354.467 204.561 353.983 204.248 353.469C203.976 353.852 203.683 354.195 203.371 354.518L203.028 354.114C203.774 353.368 204.359 352.44 204.803 351.32ZM205.791 354.608C206.366 354.064 206.82 353.448 207.153 352.783H204.682C204.621 352.884 204.571 352.974 204.521 353.055C204.843 353.63 205.267 354.144 205.791 354.608ZM214.624 356.071V356.626C214.009 356.837 213.363 357.029 212.687 357.201V359.611C212.687 360.136 212.405 360.398 211.85 360.398H210.741L210.62 359.884C210.983 359.904 211.336 359.914 211.659 359.914C211.981 359.914 212.143 359.763 212.143 359.47V357.332C211.467 357.483 210.771 357.614 210.045 357.735L209.964 357.201C210.731 357.08 211.457 356.938 212.143 356.777V354.669H209.984V354.144H212.143V352.561C211.578 352.682 210.993 352.783 210.378 352.863L210.267 352.339C211.719 352.178 213 351.875 214.11 351.441L214.301 351.956C213.797 352.137 213.262 352.299 212.687 352.44V354.144H215.33C215.259 353.307 215.229 352.379 215.229 351.35H215.774C215.774 352.409 215.804 353.337 215.865 354.144H219.042V354.669H215.905C215.976 355.435 216.076 356.091 216.208 356.616C216.278 356.918 216.359 357.201 216.45 357.463C216.984 356.837 217.448 356.121 217.842 355.314L218.316 355.567C217.852 356.525 217.297 357.352 216.651 358.038C216.803 358.431 216.974 358.764 217.156 359.046C217.499 359.551 217.781 359.803 218.003 359.803C218.245 359.793 218.457 359.188 218.628 357.997L219.112 358.26C218.87 359.672 218.527 360.388 218.084 360.388C217.69 360.388 217.267 360.075 216.813 359.47C216.601 359.178 216.409 358.835 216.238 358.441C215.491 359.137 214.634 359.672 213.676 360.045L213.373 359.581C214.392 359.198 215.28 358.633 216.026 357.897C215.895 357.533 215.784 357.15 215.683 356.727C215.542 356.142 215.441 355.456 215.37 354.669H212.687V356.646C213.373 356.464 214.019 356.273 214.624 356.071ZM216.883 351.482C217.61 351.976 218.225 352.48 218.729 352.995L218.346 353.378C217.892 352.894 217.277 352.379 216.51 351.835L216.883 351.482ZM221.691 354.518C221.348 355.103 220.975 355.657 220.562 356.172L220.38 355.587C221.318 354.336 221.994 352.914 222.418 351.33L222.912 351.552C222.72 352.228 222.488 352.863 222.226 353.448V360.489H221.691V354.518ZM223.87 353.781V354.951H225.373V353.781H223.87ZM225.373 353.327V352.198H223.87V353.327H225.373ZM227.128 353.781V354.951H228.712V353.781H227.128ZM228.712 353.327V352.198H227.128V353.327H228.712ZM225.887 351.714V355.425H223.87V360.489H223.345V351.714H225.887ZM228.712 355.435H226.603V351.714H229.216V359.702C229.216 360.176 228.984 360.418 228.53 360.418C228.086 360.418 227.663 360.408 227.239 360.398L227.108 359.904C227.541 359.914 227.955 359.924 228.338 359.924C228.58 359.924 228.712 359.793 228.712 359.531V355.435Z" fill="#1A1A1A"/>
<rect x="269.975" y="194.326" width="84.0547" height="26.8975" rx="3.36219" stroke="white" stroke-width="0.840547" stroke-linecap="round"/>
<path d="M293.302 205.863C292.818 206.115 292.303 206.357 291.738 206.579L291.426 206.075C293.352 205.389 294.744 204.512 295.591 203.442H293.544V202.928H296.378C297.175 204.169 298.577 205.157 300.574 205.904L300.201 206.398C298.375 205.662 297.014 204.693 296.106 203.483C295.47 204.391 294.542 205.177 293.322 205.853H298.738V206.388H296.338V208.345H299.313V208.879H296.338V210.907H300.231V211.441H291.92V210.907H295.783V208.879H292.767V208.345H295.783V206.388H293.302V205.863ZM307.641 203.009H310.869V203.432C310.526 204.512 310.143 205.52 309.739 206.448C310.577 207.477 311 208.324 311.01 208.98C311.01 209.504 310.869 209.868 310.607 210.079C310.324 210.281 309.77 210.392 308.922 210.392L308.761 209.827C308.963 209.847 309.144 209.858 309.286 209.858C309.79 209.847 310.103 209.787 310.244 209.666C310.385 209.535 310.456 209.303 310.456 208.98C310.445 208.334 310.012 207.497 309.164 206.448C309.548 205.621 309.911 204.643 310.264 203.523H308.176V211.734H307.641V203.009ZM302.205 203.644H304.293C304.172 203.261 304.051 202.908 303.919 202.605L304.474 202.504C304.595 202.847 304.716 203.221 304.817 203.644H306.925V204.169H306.381C306.159 205.016 305.907 205.762 305.634 206.408H306.986V206.942H302.053V206.408H303.425C303.264 205.611 303.042 204.865 302.78 204.169H302.205V203.644ZM305.11 206.408C305.392 205.702 305.624 204.955 305.826 204.169H303.324C303.546 204.804 303.758 205.551 303.95 206.408H305.11ZM306.481 208.072V211.744H305.937V211.179H303.224V211.744H302.689V208.072H306.481ZM303.224 210.644H305.937V208.597H303.224V210.644ZM312.712 204.33H316.968C316.696 203.745 316.353 203.21 315.929 202.706L316.474 202.504C316.867 203.009 317.23 203.624 317.553 204.33H321.406V204.875H319.802C319.318 206.529 318.562 207.901 317.533 208.99C318.632 209.938 320.004 210.725 321.648 211.33L321.346 211.794C319.651 211.169 318.259 210.362 317.15 209.383C316 210.483 314.537 211.29 312.782 211.794L312.5 211.31C314.235 210.826 315.667 210.069 316.776 209.041C315.576 207.87 314.739 206.489 314.275 204.875H312.712V204.33ZM314.81 204.875C315.263 206.337 316.05 207.598 317.16 208.657C318.118 207.628 318.814 206.368 319.248 204.875H314.81ZM327.314 209.061H324.479V206.136H330.672V209.061H327.858V209.908H331.994V210.412H327.858V211.734H327.314V210.412H323.138V209.908H327.314V209.061ZM325.024 207.82V208.597H330.128V207.82H325.024ZM330.128 207.376V206.6H325.024V207.376H330.128ZM325.377 203.795H323.803V203.321H327.263C327.162 203.039 327.051 202.787 326.94 202.555L327.525 202.454C327.636 202.706 327.737 202.999 327.838 203.321H331.328V203.795H329.785L329.361 204.885H331.853V205.369H323.289V204.885H325.801L325.377 203.795ZM326.345 204.885H328.796L329.22 203.795H325.922L326.345 204.885Z" fill="white"/>
<rect x="269.975" y="227.947" width="84.0547" height="26.8975" rx="3.36219" stroke="white" stroke-width="0.840547" stroke-linecap="round"/>
<path d="M291.617 240.14H300.493V240.624H295.894V245.405H295.349V244.417C294.421 244.598 293.211 244.739 291.718 244.84L291.647 244.356L292.606 244.296V240.624H291.617V240.14ZM293.13 244.255C293.967 244.175 294.704 244.084 295.349 243.963V243.216H293.13V244.255ZM293.13 242.793H295.349V241.915H293.13V242.793ZM293.13 241.492H295.349V240.624H293.13V241.492ZM296.812 241.875H296.509V241.391H299.868V241.845C299.646 242.652 299.263 243.337 298.728 243.912C299.212 244.306 299.808 244.649 300.514 244.951L300.231 245.395C299.485 245.052 298.869 244.679 298.375 244.255C297.861 244.699 297.246 245.072 296.519 245.375L296.237 244.951C296.943 244.659 297.528 244.306 298.002 243.902C297.417 243.297 297.014 242.621 296.812 241.875ZM298.345 243.569C298.809 243.075 299.152 242.51 299.364 241.875H297.306C297.498 242.51 297.841 243.075 298.345 243.569ZM299.172 236.589V239.525H298.627V237.023H293.503V239.555H292.969V236.589H299.172ZM293.957 237.81H298.173V238.203H293.957V237.81ZM293.937 238.899H298.194V239.303H293.937V238.899ZM304.121 239.908H302.053V239.394H303.284C303.143 238.95 302.971 238.546 302.77 238.163L303.254 237.971C303.445 238.375 303.617 238.849 303.778 239.394H304.979C305.16 238.95 305.322 238.476 305.463 237.971L305.967 238.143C305.816 238.617 305.654 239.03 305.473 239.394H306.713V239.908H304.666V241.169H306.532V241.683H304.666V245.395H304.121V241.683H302.215V241.169H304.121V239.908ZM310.607 236.307L310.869 236.791C309.961 237.154 308.963 237.376 307.853 237.437V239.444H311.172V239.958H310.052V245.395H309.518V239.958H307.853V241.179C307.803 242.924 307.42 244.316 306.713 245.355L306.32 244.941C306.945 244.033 307.278 242.783 307.319 241.179V236.983C308.529 236.953 309.618 236.731 310.607 236.307ZM302.144 237.104H304.172C304.03 236.771 303.889 236.468 303.728 236.206L304.283 236.105C304.424 236.398 304.565 236.731 304.706 237.104H306.643V237.628H302.144V237.104ZM303.002 242.329L303.506 242.43C303.244 243.458 302.87 244.346 302.396 245.103L301.943 244.81C302.427 244.084 302.78 243.257 303.002 242.329ZM305.685 242.278C305.967 242.924 306.179 243.519 306.34 244.054L305.866 244.235C305.695 243.61 305.483 242.994 305.221 242.409L305.685 242.278ZM319.883 237.265H318.148V240.221H319.883V237.265ZM319.883 240.755H318.138C318.078 242.863 317.462 244.407 316.312 245.395L315.899 245.032C316.988 244.124 317.553 242.702 317.604 240.755H316.444V240.221H317.604V237.265H316.666V236.741H321.396V237.265H320.418V240.221H321.679V240.755H320.418V245.365H319.883V240.755ZM314.013 237.316H312.722V236.791H316.171V237.316H314.527C314.386 238.183 314.164 239 313.861 239.757H315.768V244.195H314.033V245.022H313.508V240.533C313.266 241.017 312.984 241.471 312.681 241.895L312.389 241.431C313.216 240.241 313.751 238.869 314.013 237.316ZM314.033 243.701H315.263V240.261H314.033V243.701ZM328.352 237.709H324.156V239.081H323.612V237.185H327.283C327.132 236.832 326.961 236.509 326.779 236.226L327.364 236.126C327.535 236.438 327.697 236.791 327.858 237.185H331.52V239.081H330.975V237.709H328.867V239.343C328.867 239.585 328.998 239.706 329.26 239.706H331.449V240.18H329.008C328.564 240.18 328.352 239.979 328.352 239.575V237.709ZM326.597 237.881L327.011 238.133C326.486 239.283 325.468 240.019 323.955 240.362L323.692 239.918C325.145 239.605 326.113 238.93 326.597 237.881ZM326.587 239.868H327.122V240.775C327.122 240.947 327.112 241.108 327.102 241.26H329.765V244.427C329.765 244.649 329.865 244.77 330.077 244.77H330.914C331.207 244.77 331.389 244.588 331.459 244.235C331.499 243.832 331.52 243.408 331.52 242.954L332.034 243.105C331.974 243.912 331.923 244.396 331.883 244.578C331.782 245.042 331.459 245.284 330.925 245.284H329.997C329.482 245.284 329.23 245.022 329.23 244.507V241.784H327.031C326.9 242.551 326.628 243.196 326.224 243.711C325.659 244.386 324.742 244.921 323.461 245.304L323.158 244.84C324.409 244.477 325.306 243.973 325.841 243.327C326.154 242.894 326.365 242.379 326.486 241.784H323.824V241.26H326.557C326.577 241.098 326.587 240.937 326.587 240.775V239.868Z" fill="white"/>
<rect x="269.975" y="261.57" width="84.0547" height="26.8975" rx="3.36219" stroke="white" stroke-width="0.840547" stroke-linecap="round"/>
<path d="M297.538 271.161H295.844V274.126H297.538V271.161ZM297.538 274.641H295.844V277.747H297.538V274.641ZM298.042 277.747H299.757V274.641H298.042V277.747ZM298.042 274.126H299.757V271.161H298.042V274.126ZM299.757 278.252H295.844V278.968H295.339V270.656H300.261V278.968H299.757V278.252ZM291.95 276.436L292.414 276.496C292.354 277.394 292.202 278.191 291.98 278.887L291.486 278.736C291.738 278.07 291.89 277.303 291.95 276.436ZM293.372 276.365C293.503 276.91 293.594 277.646 293.645 278.574L293.16 278.635C293.13 277.677 293.05 276.94 292.928 276.416L293.372 276.365ZM294.351 276.083C294.573 276.628 294.754 277.213 294.916 277.818L294.482 277.999C294.32 277.334 294.139 276.749 293.947 276.244L294.351 276.083ZM294.149 273.702C294.472 274.328 294.754 274.994 294.986 275.7L294.542 275.881C294.472 275.659 294.401 275.447 294.331 275.246C293.453 275.528 292.606 275.72 291.779 275.821L291.637 275.347C291.738 275.306 291.819 275.256 291.879 275.195C292.283 274.762 292.767 274.035 293.332 273.027C292.747 273.138 292.182 273.228 291.627 273.309L291.506 272.835C291.587 272.795 291.658 272.734 291.718 272.643C292.222 271.836 292.666 270.888 293.05 269.799L293.554 270.001C293.07 271.191 292.596 272.119 292.122 272.795C292.616 272.724 293.11 272.633 293.604 272.522C293.796 272.149 293.998 271.756 294.199 271.342L294.673 271.534C293.725 273.36 292.959 274.61 292.364 275.296C292.969 275.185 293.574 275.034 294.179 274.842C294.028 274.479 293.877 274.156 293.735 273.864L294.149 273.702ZM303.163 273.067V275.014C303.163 275.115 303.153 275.205 303.153 275.306C303.718 275.205 304.222 275.084 304.686 274.943V273.521C304.192 273.329 303.687 273.178 303.163 273.067ZM304.686 273.027V270.757H303.163V272.593C303.698 272.704 304.202 272.845 304.686 273.027ZM303.133 275.821C303.062 277.102 302.83 278.161 302.437 279.008L302.023 278.635C302.427 277.697 302.638 276.496 302.649 275.044V270.243H305.211V278.07C305.211 278.645 304.958 278.937 304.474 278.937H303.617L303.486 278.433C303.778 278.443 304.051 278.453 304.303 278.453C304.555 278.453 304.686 278.262 304.686 277.888V275.447C304.202 275.589 303.677 275.72 303.133 275.821ZM306.895 269.769L307.42 269.829C307.319 270.253 307.198 270.666 307.046 271.05H310.587C310.567 273.531 310.526 274.983 310.466 275.417C310.405 275.841 310.294 276.133 310.133 276.285C309.961 276.426 309.618 276.507 309.104 276.507H308.822L308.65 275.992C308.862 275.992 309.064 276.002 309.265 276.002C309.538 276.002 309.719 275.922 309.82 275.78C309.901 275.639 309.951 275.377 309.981 275.004C310.002 274.62 310.022 273.47 310.042 271.554H306.824C306.492 272.26 306.068 272.885 305.553 273.43L305.241 273.017C306.058 272.129 306.613 271.05 306.895 269.769ZM308.862 272.996V275.669H306.663V277.747C306.663 278.11 306.834 278.302 307.188 278.312H309.719C310.032 278.302 310.254 278.191 310.385 277.969C310.486 277.777 310.556 277.354 310.617 276.688L311.101 276.839C311.041 277.465 310.96 277.919 310.859 278.191C310.677 278.584 310.345 278.786 309.85 278.806H307.016C306.431 278.806 306.149 278.504 306.149 277.898V272.996H308.862ZM306.663 275.175H308.347V273.491H306.663V275.175ZM313.287 270.011C314.033 270.505 314.668 270.999 315.173 271.504L314.769 271.897C314.305 271.423 313.68 270.919 312.893 270.384L313.287 270.011ZM312.984 272.371C313.68 272.865 314.255 273.36 314.719 273.864L314.315 274.257C313.892 273.773 313.327 273.269 312.611 272.734L312.984 272.371ZM314.497 275.145L314.981 275.347C314.477 276.607 313.922 277.798 313.307 278.907L312.782 278.675C313.438 277.525 314.013 276.345 314.497 275.145ZM320.74 274.812V278.978H320.206V278.373H316.454V278.978H315.919V274.812H320.74ZM316.454 277.848H320.206V275.316H316.454V277.848ZM319.641 271.009C320.307 271.897 320.922 272.855 321.497 273.904L320.983 274.156C320.821 273.864 320.67 273.592 320.529 273.329C319.016 273.531 317.321 273.682 315.445 273.783L315.344 273.289C316.07 272.885 316.918 271.715 317.876 269.799L318.411 269.981C317.664 271.413 316.928 272.502 316.202 273.249C317.664 273.168 319.016 273.037 320.246 272.855C319.883 272.27 319.52 271.736 319.157 271.251L319.641 271.009ZM324.742 274.177C324.742 274.066 324.752 273.965 324.752 273.864V270.656H328.141C328.01 270.344 327.858 270.061 327.697 269.809L328.252 269.708C328.403 269.991 328.544 270.303 328.675 270.656H331.984V271.181H325.296V273.864C325.246 275.982 324.782 277.687 323.914 278.958L323.501 278.584C324.177 277.626 324.58 276.355 324.701 274.772C324.237 275.195 323.713 275.589 323.118 275.952L322.976 275.417C323.612 275.064 324.197 274.651 324.742 274.177ZM323.491 271.423C323.874 272.028 324.197 272.664 324.459 273.339L324.005 273.521C323.713 272.795 323.39 272.149 323.047 271.604L323.491 271.423ZM325.841 272.099H328.322C328.403 271.877 328.484 271.635 328.544 271.393L329.069 271.443C329.008 271.675 328.948 271.897 328.867 272.099H331.863V272.583H329.381C329.654 273.057 330.007 273.481 330.44 273.844C330.824 273.501 331.096 273.218 331.257 272.996L331.661 273.259C331.439 273.521 331.136 273.793 330.763 274.096C331.157 274.378 331.6 274.63 332.085 274.842L331.863 275.316C331.469 275.125 331.116 274.923 330.804 274.711V276.87H329.038V278.282C329.038 278.746 328.806 278.978 328.352 278.978H327.566L327.455 278.504C327.707 278.524 327.949 278.534 328.181 278.534C328.403 278.534 328.514 278.403 328.514 278.161V276.87H326.608V274.762C326.305 274.923 325.992 275.054 325.649 275.155L325.377 274.701C325.891 274.55 326.345 274.348 326.739 274.086C326.497 273.844 326.204 273.592 325.861 273.329L326.204 273.007C326.567 273.279 326.87 273.541 327.112 273.803C327.515 273.46 327.838 273.047 328.1 272.583H325.841V272.099ZM327.546 274.116H330.047C329.543 273.652 329.149 273.148 328.867 272.583H328.665C328.383 273.188 328.01 273.702 327.546 274.116ZM327.112 275.659V276.426H330.299V275.659H327.112ZM330.299 275.266V274.56H327.112V275.266H330.299ZM327.041 277.273L327.354 277.636C326.809 278.12 326.133 278.524 325.306 278.847L325.084 278.383C325.871 278.1 326.517 277.737 327.041 277.273ZM330.017 277.273C330.743 277.596 331.399 277.989 332.004 278.453L331.731 278.877C331.086 278.362 330.42 277.959 329.755 277.677L330.017 277.273Z" fill="white"/>
<rect x="269.975" y="295.191" width="84.0547" height="26.8975" rx="3.36219" stroke="white" stroke-width="0.840547" stroke-linecap="round"/>
<path d="M295.642 306.95C295.42 307.485 295.168 307.969 294.885 308.413L294.452 308.131C294.966 307.354 295.349 306.476 295.591 305.488L296.086 305.599C296.005 305.891 295.924 306.164 295.844 306.426H299.868V306.95H297.73V307.404C297.72 307.949 297.669 308.453 297.588 308.907H300.352V309.432H297.478C297.336 309.956 297.155 310.42 296.913 310.814C296.408 311.6 295.581 312.226 294.421 312.669L294.129 312.216C295.258 311.782 296.065 311.187 296.539 310.43C296.701 310.128 296.842 309.795 296.953 309.432H294.351V308.907H297.074C297.155 308.433 297.205 307.929 297.215 307.404V306.95H295.642ZM296.64 303.329C296.822 303.662 297.003 304.035 297.165 304.459H300.332V304.983H293.756V307.485C293.715 309.603 293.261 311.308 292.394 312.579L291.98 312.205C292.646 311.247 293.039 309.976 293.16 308.393C292.686 308.837 292.162 309.24 291.577 309.613L291.436 309.089C292.071 308.716 292.656 308.282 293.201 307.798C293.201 307.687 293.211 307.586 293.211 307.485V304.459H296.62C296.459 304.076 296.287 303.733 296.086 303.43L296.64 303.329ZM291.97 304.994C292.333 305.609 292.636 306.264 292.898 306.95L292.444 307.142C292.162 306.396 291.849 305.75 291.516 305.185L291.97 304.994ZM298.214 310.138C299.233 310.985 300.009 311.731 300.554 312.377L300.11 312.69C299.495 311.963 298.728 311.207 297.81 310.43L298.214 310.138ZM307.762 309.22C307.49 309.956 307.026 310.571 306.371 311.056L306.038 310.642C306.724 310.138 307.177 309.482 307.399 308.695C307.44 308.534 307.47 308.362 307.51 308.181H305.574V312.589H305.049V307.677H307.581C307.621 307.293 307.652 306.89 307.662 306.456H304.757V305.942H310.849V306.456H308.166C308.156 306.89 308.136 307.293 308.095 307.677H310.536V311.641C310.536 312.226 310.254 312.528 309.689 312.528H308.66L308.519 312.014L309.518 312.044C309.84 312.044 310.012 311.873 310.012 311.53V308.181H308.025C307.984 308.383 307.944 308.584 307.904 308.766V308.776C308.499 309.24 309.043 309.805 309.528 310.46L309.225 310.904C308.741 310.208 308.257 309.643 307.762 309.22ZM303.698 307.757C303.698 307.646 303.708 307.545 303.708 307.455V304.267H307.127C307.006 303.955 306.865 303.672 306.713 303.42L307.268 303.319C307.399 303.592 307.53 303.904 307.662 304.267H310.93V304.782H304.232V307.455C304.192 309.573 303.748 311.278 302.921 312.548L302.517 312.185C303.163 311.217 303.546 309.936 303.667 308.342C303.203 308.726 302.689 309.089 302.124 309.432L301.983 308.897C302.598 308.574 303.173 308.191 303.698 307.757ZM302.457 304.994C302.81 305.599 303.113 306.234 303.365 306.9L302.901 307.102C302.618 306.375 302.316 305.73 301.993 305.185L302.457 304.994ZM321.094 304.55V312.145H320.549V311.459H318.421V312.175H317.886V304.55H321.094ZM318.421 310.945H320.549V305.064H318.421V310.945ZM313.922 305.367C313.66 305.942 313.367 306.476 313.034 306.96L312.56 306.668C313.226 305.7 313.72 304.6 314.043 303.38L314.578 303.501C314.446 303.965 314.305 304.419 314.144 304.842H317.2V305.367H315.647C315.637 306.174 315.586 306.91 315.506 307.576H317.291V308.09H315.435C315.385 308.403 315.324 308.695 315.263 308.968C315.929 309.654 316.615 310.43 317.311 311.298L316.988 311.782C316.242 310.773 315.617 309.997 315.112 309.462C314.699 310.652 313.942 311.631 312.853 312.407L312.5 311.963C313.589 311.187 314.315 310.188 314.678 308.968C314.749 308.685 314.81 308.393 314.87 308.09H312.651V307.576H314.951C315.032 306.91 315.082 306.174 315.092 305.367H313.922ZM329.059 307.737V311.328H327.082V311.903H326.608V307.737H329.059ZM327.082 310.884H328.584V309.714H327.082V310.884ZM327.082 309.28H328.584V308.181H327.082V309.28ZM331.318 303.934C331.54 304.459 331.742 305.054 331.923 305.72L331.499 305.831C331.338 305.215 331.146 304.62 330.914 304.056L331.318 303.934ZM327.788 303.36C327.899 303.642 328.01 303.975 328.12 304.348H329.311V304.832H328.917C328.857 305.397 328.776 305.922 328.675 306.396H329.956C329.936 305.528 329.926 304.56 329.926 303.471H330.43C330.43 304.57 330.44 305.548 330.461 306.396H332.054V306.9H330.471C330.501 307.989 330.551 308.867 330.612 309.533C330.945 308.887 331.237 308.181 331.489 307.424L331.933 307.606C331.57 308.635 331.167 309.543 330.703 310.329C330.723 310.45 330.743 310.561 330.763 310.662C330.925 311.429 331.106 311.822 331.308 311.852C331.479 311.842 331.621 311.348 331.721 310.38L332.135 310.672C331.994 311.852 331.721 312.448 331.338 312.448C331.106 312.448 330.894 312.276 330.703 311.933C330.541 311.641 330.42 311.298 330.329 310.914C329.906 311.53 329.462 312.064 328.978 312.508L328.605 312.185C329.21 311.62 329.734 310.985 330.198 310.259C330.178 310.198 330.168 310.138 330.168 310.097C330.067 309.462 329.997 308.393 329.966 306.9H326.103V306.396H327.041C326.94 305.811 326.819 305.296 326.698 304.832H326.345V304.348H327.606C327.505 304.015 327.384 303.713 327.253 303.44L327.788 303.36ZM328.231 306.396C328.332 305.891 328.403 305.367 328.443 304.832H327.172C327.273 305.296 327.374 305.821 327.475 306.396H328.231ZM324.439 303.39C324.62 303.813 324.772 304.197 324.873 304.56L324.399 304.731C324.267 304.318 324.106 303.914 323.914 303.531L324.439 303.39ZM323.047 304.812H325.982V305.316H323.047V304.812ZM323.41 306.305H325.669V306.769H323.41V306.305ZM323.41 307.737H325.669V308.211H323.41V307.737ZM325.74 309.169V312.468H325.236V311.893H323.854V312.468H323.35V309.169H325.74ZM323.854 311.409H325.236V309.643H323.854V311.409Z" fill="white"/>
<path d="M104.808 14.4492H119.517C128.569 14.4492 135.908 21.7876 135.908 30.8399V30.8399C135.908 39.8922 143.246 47.2305 152.299 47.2305H167.008" stroke="#9A9A9A" stroke-width="0.840547"/>
<path d="M105.228 14.4492H119.517C128.801 14.4492 136.328 21.9757 136.328 31.2602V83.3741C136.328 92.6585 143.854 100.185 153.139 100.185H167.428" stroke="#9A9A9A" stroke-width="0.840547"/>
<path d="M105.228 14.4492H119.097C128.381 14.4492 135.907 21.9757 135.907 31.2602V138.01C135.907 147.294 143.434 154.821 152.718 154.821H166.587" stroke="#9A9A9A" stroke-width="0.840547"/>
<path d="M105.228 14.4492H119.517C128.801 14.4492 136.328 21.9757 136.328 31.2602V190.964C136.328 200.248 143.854 207.775 153.139 207.775H167.428" stroke="#9A9A9A" stroke-width="0.840547"/>
<path d="M104.388 14.4492H119.097C128.382 14.4492 135.908 21.9757 135.908 31.2602V338.9C135.908 348.185 143.435 355.711 152.719 355.711H167.429" stroke="#9A9A9A" stroke-width="0.840547"/>
<path d="M269.975 207.775H251.483" stroke="#9A9A9A" stroke-width="0.840547"/>
<path d="M354.029 207.775H372.521" stroke="#9A9A9A" stroke-width="0.840547"/>
<path d="M13.6079 47.9324C14.0517 47.9324 14.4451 48.0837 14.7678 48.4065C15.0805 48.7192 15.2419 49.1024 15.2419 49.5563C15.2419 50.0001 15.0805 50.3935 14.7678 50.7163C14.4451 51.029 14.0517 51.1904 13.6079 51.1904C13.154 51.1904 12.7707 51.029 12.458 50.7163C12.1353 50.3935 11.984 50.0001 11.984 49.5563C11.984 49.1024 12.1353 48.7192 12.458 48.4065C12.7707 48.0837 13.154 47.9324 13.6079 47.9324ZM25.9337 44.9266H26.4985V46.7926H30.1499V51.4324H29.5951V50.7566H26.4985V54.2466H25.9337V50.7566H22.8472V51.4324H22.2924V46.7926H25.9337V44.9266ZM22.8472 50.2221H25.9337V47.3373H22.8472V50.2221ZM26.4985 50.2221H29.5951V47.3373H26.4985V50.2221ZM39.9002 48.2047V50.7163H41.1812V51.2307H36.7532C36.5716 51.7754 36.2892 52.2394 35.9059 52.6428C35.2402 53.2985 34.1307 53.8129 32.5874 54.1861L32.2748 53.712C33.8079 53.359 34.8872 52.8748 35.5327 52.2595C35.8151 51.9569 36.027 51.614 36.1783 51.2307H32.2647V50.7163H33.5255V48.2047H36.4506V47.2667H36.9953V48.2047H39.9002ZM34.0702 50.7163H36.3296C36.4002 50.4238 36.4405 50.1212 36.4506 49.7984V48.7192H34.0702V50.7163ZM36.9953 48.7192V49.7984C36.9852 50.1212 36.9549 50.4339 36.8944 50.7163H39.3555V48.7192H36.9953ZM32.4059 45.8949H34.6451V44.9468H35.1797V45.8949H36.4808V46.4194H35.1797V47.3776H34.6451V46.4194H32.4059V45.8949ZM38.2763 44.9468H38.8108V45.8949H41.0501V46.4194H38.8108V47.3776H38.2763V46.4194H36.9751V45.8949H38.2763V44.9468ZM37.2979 52.0074C38.8613 52.5319 40.1927 53.1169 41.3022 53.7523L40.929 54.1962C39.8901 53.5607 38.5688 52.9656 36.9751 52.4108L37.2979 52.0074ZM42.8825 46.7422H47.139C46.8666 46.1572 46.5237 45.6226 46.1001 45.1183L46.6447 44.9165C47.0381 45.4208 47.4012 46.0361 47.724 46.7422H51.5771V47.2869H49.9733C49.4892 48.9411 48.7327 50.3128 47.7038 51.4022C48.8033 52.3503 50.175 53.1371 51.8191 53.7423L51.5166 54.2062C49.822 53.5809 48.4301 52.774 47.3205 51.7956C46.1707 52.895 44.7081 53.7019 42.9531 54.2062L42.6706 53.7221C44.4055 53.2379 45.8378 52.4814 46.9473 51.4526C45.747 50.2826 44.9099 48.9007 44.4459 47.2869H42.8825V46.7422ZM44.9805 47.2869C45.4344 48.7494 46.2211 50.0102 47.3306 51.0693C48.2889 50.0405 48.9848 48.7797 49.4185 47.2869H44.9805ZM54.0651 53.5103V54.1558H53.5608V50.7062H56.1934V54.0146H55.689V53.5103H54.0651ZM55.689 53.0059V51.2004H54.0651V53.0059H55.689ZM53.2481 46.3589H56.4354V46.8632H53.2481V46.3589ZM53.6314 47.7811H56.1227V48.2653H53.6314V47.7811ZM53.6314 49.2033H56.1227V49.6875H53.6314V49.2033ZM56.8792 45.4108H62.0032V45.9151H59.3504L59.0983 47.2163H61.4787V49.2336H62.2856V49.748H56.8086V49.2336H58.1905L58.483 47.7105H57.1919V47.2163H58.5839L58.836 45.9151H56.8792V45.4108ZM58.7049 49.2336H60.9744V47.7105H58.9974L58.7049 49.2336ZM61.63 50.797V54.1861H61.1156V53.6717H57.8677V54.1861H57.3533V50.797H61.63ZM57.8677 53.1774H61.1156V51.2912H57.8677V53.1774ZM54.7106 44.9165C54.9729 45.3502 55.1847 45.7436 55.3259 46.1067L54.8619 46.2782C54.6804 45.8546 54.4585 45.4511 54.1962 45.0577L54.7106 44.9165ZM67.9106 54.1256H66.7607L66.6498 53.6111C67.023 53.6313 67.3861 53.6515 67.729 53.6515C67.9711 53.6515 68.0921 53.5304 68.0921 53.2884V50.7163C67.0431 50.7768 65.9033 50.8373 64.6728 50.8878L64.5215 50.4137C64.703 50.3935 64.8644 50.3633 65.0056 50.3128C66.0849 49.9699 67.2953 49.405 68.6469 48.6082C67.4365 48.6889 66.2362 48.7595 65.0359 48.82L64.9552 48.3359C66.2665 47.9929 67.5575 47.3171 68.8486 46.3085L69.2622 46.601C68.3342 47.3272 67.3558 47.9122 66.3169 48.356C67.3558 48.2955 68.3846 48.2249 69.4135 48.1442C69.8674 47.8618 70.3414 47.5491 70.8256 47.2163L71.34 47.4684C69.3227 48.8402 67.5676 49.8186 66.0647 50.3834C68.0014 50.2826 69.6555 50.1716 71.0172 50.0304C70.755 49.6673 70.4726 49.2941 70.17 48.9209L70.5734 48.6687C71.3501 49.6169 71.9452 50.4339 72.3587 51.1298L71.925 51.4324C71.7435 51.1198 71.5417 50.797 71.3198 50.454C70.5331 50.5448 69.6354 50.6255 68.6267 50.686V53.4296C68.6267 53.8936 68.3846 54.1256 67.9106 54.1256ZM69.9279 51.2811C70.9164 52.0578 71.7435 52.8345 72.3991 53.601L72.0158 53.9843C71.4207 53.2379 70.6037 52.4512 69.5749 51.6241L69.9279 51.2811ZM66.4379 51.382L66.8111 51.7249C66.1152 52.5722 65.2578 53.3085 64.2492 53.944L63.9062 53.5103C64.9048 52.9051 65.752 52.1889 66.4379 51.382ZM70.3818 45.0476L70.8458 45.3301C70.0388 45.6428 69.2319 45.8949 68.4048 46.0966C67.4869 46.3186 66.3371 46.5304 64.9451 46.7321L64.6526 46.2782C65.9134 46.137 67.023 45.9554 67.9913 45.7335C68.8789 45.5318 69.6757 45.3099 70.3818 45.0476ZM79.88 46.2278H77.8626V45.6932H82.9967C82.9967 49.2033 82.9463 51.3618 82.8454 52.1889C82.7345 53.3388 82.1797 53.9238 81.1912 53.9238C80.9895 53.9238 80.6365 53.9137 80.1321 53.8936L80.001 53.3892C80.4246 53.4094 80.7978 53.4195 81.1206 53.4195C81.8065 53.4195 82.21 52.9454 82.3108 52.0175C82.3915 51.3517 82.4319 49.4151 82.452 46.2278H80.4145V47.3877C80.3742 50.5146 79.305 52.7941 77.1969 54.2264L76.7632 53.8431C78.8007 52.5016 79.8396 50.3532 79.88 47.3877V46.2278ZM75.5226 52.7336L75.3612 52.2091C75.5125 52.1183 75.5932 51.9771 75.5932 51.7754V48.0131H74.2819V47.4785H75.5932V45.0981H76.1378V47.4785H78.0946V48.0131H76.1378V51.9267C76.7632 51.6846 77.3987 51.4022 78.0341 51.0693L78.1753 51.5737C77.4693 51.9973 76.5817 52.3907 75.5226 52.7336ZM85.8781 54.0549H85.0107L84.8896 53.5304C85.172 53.5506 85.4343 53.5708 85.6865 53.5708C85.9185 53.5708 86.0395 53.4397 86.0395 53.1875V50.4238C85.6461 50.5751 85.2427 50.7163 84.8392 50.8474L84.7081 50.3229C85.162 50.2019 85.6058 50.0607 86.0395 49.8993V47.4079H84.8392V46.8935H86.0395V44.9871H86.564V46.8935H87.5121V47.4079H86.564V49.6875C86.9271 49.5261 87.2801 49.3445 87.6332 49.1529V49.6975C87.2801 49.8791 86.9271 50.0506 86.564 50.212V53.3287C86.564 53.8129 86.332 54.0549 85.8781 54.0549ZM93.1808 47.2869V51.0794H93.8566V51.5837H90.8508C90.6894 52.0578 90.4574 52.4613 90.1649 52.8042C89.6908 53.359 88.8536 53.7927 87.6634 54.1155L87.4617 53.6515C88.5309 53.3691 89.2974 52.9858 89.7715 52.4814C89.9934 52.2192 90.1851 51.9267 90.3263 51.5837H87.7441V51.0794H88.4804V47.418C88.2989 47.5794 88.1173 47.7408 87.9358 47.882L87.6029 47.4886C88.5107 46.8128 89.2268 45.9655 89.7614 44.9367L90.2658 45.0577C90.1649 45.2595 90.0539 45.4612 89.943 45.6428H92.3133V46.0361C91.9704 46.5405 91.6174 46.954 91.2744 47.2869H93.1808ZM90.649 47.2869C91.0122 46.9439 91.3551 46.5505 91.6779 46.1067H89.6404C89.3378 46.5304 88.9949 46.9237 88.6317 47.2869H90.649ZM88.9747 51.0794H90.4877C90.5482 50.8272 90.5986 50.565 90.6289 50.2826L91.1332 50.333C91.0929 50.5953 91.0525 50.8474 91.0021 51.0794H92.6764V47.7609H88.9747V51.0794ZM90.76 49.1932C90.4776 49.6673 90.1245 50.0506 89.6807 50.333L89.4084 49.9901C90.0943 49.5261 90.5482 48.8906 90.7499 48.0736L91.1836 48.124C91.113 48.3762 91.0323 48.6082 90.9416 48.8301C91.456 49.1529 91.8998 49.5059 92.2831 49.8892L92.0006 50.2221C91.6678 49.8589 91.2542 49.516 90.76 49.1932ZM91.3047 52.078C92.2528 52.5319 93.1203 53.0866 93.907 53.7423L93.6145 54.176C92.7773 53.4498 91.92 52.8849 91.0424 52.4714L91.3047 52.078Z" fill="white"/>
</svg>
