<svg width="1123" height="440" viewBox="0 0 1123 440" fill="none" xmlns="http://www.w3.org/2000/svg">
<g opacity="0.7">
<line x1="1.01953" y1="3" x2="1.01951" y2="439.75" stroke="#F5F5F5" stroke-opacity="0.7" stroke-width="0.5" stroke-linecap="round" stroke-dasharray="8 8"/>
<line x1="161.195" y1="3" x2="161.195" y2="439.75" stroke="#F5F5F5" stroke-opacity="0.7" stroke-width="0.5" stroke-linecap="round" stroke-dasharray="8 8"/>
<line x1="321.371" y1="3" x2="321.371" y2="439.75" stroke="#F5F5F5" stroke-opacity="0.7" stroke-width="0.5" stroke-linecap="round" stroke-dasharray="8 8"/>
<line x1="481.547" y1="3" x2="481.547" y2="439.75" stroke="#F5F5F5" stroke-opacity="0.7" stroke-width="0.5" stroke-linecap="round" stroke-dasharray="8 8"/>
<line x1="641.723" y1="3" x2="641.723" y2="439.75" stroke="#F5F5F5" stroke-opacity="0.7" stroke-width="0.5" stroke-linecap="round" stroke-dasharray="8 8"/>
<line x1="801.898" y1="3" x2="801.898" y2="439.75" stroke="#F5F5F5" stroke-opacity="0.7" stroke-width="0.5" stroke-linecap="round" stroke-dasharray="8 8"/>
<line x1="962.074" y1="3" x2="962.074" y2="439.75" stroke="#F5F5F5" stroke-opacity="0.7" stroke-width="0.5" stroke-linecap="round" stroke-dasharray="8 8"/>
<line x1="1122.25" y1="3" x2="1122.25" y2="439.75" stroke="#F5F5F5" stroke-opacity="0.7" stroke-width="0.5" stroke-linecap="round" stroke-dasharray="8 8"/>
</g>
<g clip-path="url(#clip0_5244_335)">
<rect x="479.027" y="213.417" width="5" height="40" fill="#FF7B8E"/>
<rect width="315.13" height="40" transform="translate(484.027 213.417)" fill="#2C2C2C"/>
<circle cx="519.027" cy="233.417" r="3" fill="white"/>
<path d="M533.035 228.921H534.183V235.095C534.183 236.075 534.393 236.817 534.841 237.321C535.303 237.839 536.031 238.105 537.025 238.105C538.005 238.105 538.733 237.839 539.209 237.321C539.643 236.817 539.867 236.075 539.867 235.095V228.921H541.015V235.081C541.015 236.383 540.679 237.377 540.021 238.063C539.335 238.763 538.341 239.113 537.025 239.113C535.709 239.113 534.715 238.763 534.043 238.077C533.371 237.377 533.035 236.383 533.035 235.081V228.921ZM542.857 228.921H544.271L546.973 232.813L549.689 228.921H551.103L547.659 233.723L551.369 238.917H549.955L546.973 234.633L544.005 238.917H542.591L546.273 233.723L542.857 228.921ZM557.326 235.389V239.421H554.05V240.107H553.098V235.389H557.326ZM554.05 238.511H556.402V236.271H554.05V238.511ZM552.622 229.327H555.03C554.792 228.767 554.512 228.221 554.176 227.703L555.142 227.437C555.478 228.053 555.73 228.613 555.926 229.131L555.38 229.327H557.844V230.251H552.622V229.327ZM553.21 231.371H557.228V232.253H553.21V231.371ZM553.21 233.303H557.228V234.185H553.21V233.303ZM558.292 233.471H564.326V234.395C563.934 235.683 563.304 236.789 562.408 237.713C563.248 238.385 564.27 238.987 565.502 239.491L564.956 240.359C563.668 239.771 562.59 239.099 561.722 238.357C560.714 239.197 559.454 239.855 557.97 240.359L557.424 239.505C558.852 239.029 560.028 238.413 560.98 237.657C560.098 236.705 559.496 235.627 559.174 234.451H558.292V233.471ZM560.14 234.451C560.434 235.403 560.952 236.271 561.68 237.027C562.408 236.271 562.968 235.403 563.346 234.451H560.14ZM559.342 228.025H563.528V231.049C563.528 231.399 563.71 231.581 564.102 231.581H565.096V232.505H563.85C562.954 232.505 562.52 232.085 562.52 231.259V228.977H560.336V229.607C560.336 231.007 559.678 232.085 558.39 232.841L557.718 232.099C558.796 231.539 559.342 230.741 559.342 229.705V228.025ZM568.466 239.463V240.303H567.5V235.375H571.77V240.107H570.804V239.463H568.466ZM570.804 238.539V236.285H568.466V238.539H570.804ZM566.996 229.313H569.404C569.194 228.753 568.942 228.207 568.648 227.703L569.614 227.437C569.922 228.053 570.16 228.627 570.328 229.131L569.838 229.313H572.288V230.251H566.996V229.313ZM567.542 231.385H571.728V232.267H567.542V231.385ZM567.542 233.303H571.728V234.199H567.542V233.303ZM575.634 227.507H576.628V232.099H579.834V233.079H576.628V240.303H575.634V233.079H572.526V232.099H575.634V227.507Z" fill="white"/>
</g>
<path d="M520.047 280.437L520.587 280.509C520.515 281.601 520.359 282.573 520.119 283.425L519.579 283.257C519.831 282.441 519.987 281.493 520.047 280.437ZM521.643 280.425C521.847 281.181 522.027 281.997 522.183 282.885L521.631 283.005C521.499 282.069 521.343 281.253 521.163 280.545L521.643 280.425ZM522.567 277.305C522.831 278.001 523.059 278.805 523.275 279.717L522.759 279.837C522.711 279.597 522.651 279.381 522.603 279.165C521.643 279.441 520.707 279.633 519.819 279.741L519.651 279.177C519.771 279.141 519.867 279.081 519.939 278.997C520.395 278.517 520.935 277.737 521.559 276.645C520.935 276.741 520.335 276.837 519.759 276.909L519.603 276.333C519.699 276.285 519.795 276.201 519.867 276.081C520.467 275.085 520.983 273.921 521.427 272.577L522.015 272.817C521.439 274.293 520.875 275.457 520.311 276.297C520.827 276.237 521.355 276.153 521.883 276.057C522.123 275.601 522.363 275.121 522.627 274.605L523.191 274.821C522.111 276.885 521.223 278.313 520.527 279.105C521.187 279.009 521.835 278.865 522.471 278.697C522.351 278.265 522.219 277.845 522.087 277.461L522.567 277.305ZM522.807 280.101C523.083 280.749 523.323 281.433 523.527 282.153L523.047 282.381C522.831 281.577 522.591 280.869 522.351 280.257L522.807 280.101ZM526.491 281.517C525.963 281.517 525.711 281.241 525.711 280.701V279.009H525.147V278.445H526.779C526.635 278.013 526.467 277.617 526.287 277.269L526.851 277.173C527.019 277.545 527.175 277.965 527.319 278.445H528.699V279.009H526.287V280.629C526.287 280.845 526.407 280.965 526.659 280.965H528.507V281.517H526.491ZM525.903 274.449C526.155 274.905 526.383 275.385 526.575 275.889L526.107 276.105C525.891 275.541 525.663 275.049 525.411 274.617L525.903 274.449ZM527.727 274.365L528.279 274.449C528.147 275.085 527.955 275.673 527.691 276.213H528.807V276.789H525.027V276.213H527.187C527.439 275.637 527.619 275.013 527.727 274.365ZM529.131 283.413H527.595L527.427 282.825L528.939 282.849C529.251 282.849 529.407 282.681 529.407 282.345V273.801H524.439V283.485H523.827V273.201H530.007V282.477C530.007 283.101 529.707 283.413 529.131 283.413ZM539.123 272.625H539.771V274.809H542.879V275.457H539.771V277.977H542.207V283.509H541.583V282.681H537.983V283.521H537.371V277.977H539.123V272.625ZM537.983 282.069H541.583V278.565H537.983V282.069ZM532.235 274.713H534.263C534.095 274.017 533.915 273.393 533.723 272.829L534.383 272.721C534.551 273.297 534.731 273.969 534.899 274.713H536.891V275.337H532.235V274.713ZM533.183 276.189C533.483 277.605 533.759 279.225 533.999 281.049L533.447 281.193C533.231 279.525 532.955 277.917 532.619 276.381L533.183 276.189ZM536.723 281.085V281.721C535.355 282.129 533.879 282.477 532.295 282.753L532.139 282.129C533.051 281.985 533.939 281.817 534.779 281.625C535.175 279.885 535.463 278.037 535.643 276.069L536.279 276.153C536.087 278.073 535.787 279.849 535.403 281.469C535.847 281.349 536.291 281.217 536.723 281.085ZM550.987 273.489H554.707V277.509H550.987V273.489ZM554.083 276.909V274.077H551.599V276.909H554.083ZM546.667 272.685H547.303V273.609C547.303 273.681 547.291 273.741 547.291 273.813H549.763C549.739 275.817 549.619 277.017 549.391 277.413C549.163 277.797 548.767 278.001 548.191 278.001C547.999 278.001 547.783 277.989 547.531 277.965L547.363 277.365C547.639 277.389 547.867 277.413 548.047 277.413C548.503 277.401 548.791 277.233 548.911 276.909C549.031 276.585 549.091 275.745 549.115 274.389H547.255C547.063 276.093 546.367 277.377 545.155 278.217L544.663 277.785C545.791 277.041 546.439 275.901 546.607 274.389H544.891V273.813H546.655C546.655 273.741 546.667 273.669 546.667 273.609V272.685ZM544.795 279.237H549.703V278.193H550.351V279.237H555.271V279.861H550.351V283.569H549.703V279.861H544.795V279.237ZM548.323 280.485L548.767 280.893C547.783 281.865 546.559 282.717 545.119 283.449L544.735 282.945C546.151 282.249 547.351 281.421 548.323 280.485ZM551.671 280.449C553.015 281.205 554.227 282.033 555.307 282.921L554.875 283.389C553.723 282.429 552.523 281.601 551.275 280.893L551.671 280.449ZM562.635 272.577H563.235V273.573H565.575V272.577H566.187V273.573H567.699V274.101H566.187V275.073H567.471V275.589H566.187V276.573H567.975V277.101H564.687V277.989H567.243V281.061H568.035V281.613H567.243V282.729C567.243 283.281 566.943 283.557 566.355 283.557H565.299L565.155 282.993L566.175 283.029C566.487 283.029 566.643 282.885 566.643 282.609V281.613H562.131V283.557H561.531V281.613H560.715V281.061H561.531V277.989H564.075V277.101H560.835V276.573H562.635V275.589H561.339V275.073H562.635V274.101H561.111V273.573H562.635V272.577ZM562.131 281.061H564.075V279.993H562.131V281.061ZM564.687 281.061H566.643V279.993H564.687V281.061ZM563.235 276.573H565.575V275.589H563.235V276.573ZM563.235 275.073H565.575V274.101H563.235V275.073ZM566.643 279.525V278.517H564.687V279.525H566.643ZM564.075 278.517H562.131V279.525H564.075V278.517ZM559.335 277.209V283.545H558.711V277.269C558.351 278.529 557.859 279.669 557.235 280.689L556.971 280.041C557.775 278.769 558.339 277.317 558.675 275.685H557.187V275.073H558.711V272.649H559.335V275.073H560.607V275.685H559.335V276.537C559.815 277.173 560.319 277.905 560.823 278.721L560.475 279.249C560.031 278.409 559.647 277.725 559.335 277.209Z" fill="white"/>
<path d="M519.903 299.849H520.635V305.105C520.635 306.017 520.827 306.713 521.235 307.181C521.667 307.673 522.327 307.925 523.239 307.925C524.151 307.925 524.811 307.673 525.243 307.181C525.639 306.713 525.843 306.017 525.843 305.105V299.849H526.575V305.105C526.575 306.221 526.299 307.073 525.771 307.661C525.207 308.273 524.367 308.585 523.239 308.585C522.111 308.585 521.271 308.273 520.719 307.673C520.167 307.073 519.903 306.221 519.903 305.105V299.849ZM530.821 302.045C532.285 302.045 533.113 302.681 533.293 303.953H532.585C532.501 303.521 532.333 303.209 532.069 303.005C531.781 302.777 531.361 302.669 530.809 302.669C530.353 302.669 529.981 302.753 529.693 302.945C529.405 303.137 529.261 303.377 529.261 303.689C529.261 304.001 529.441 304.253 529.813 304.445C530.053 304.565 530.485 304.709 531.121 304.877C531.877 305.069 532.417 305.261 532.729 305.453C533.221 305.753 533.473 306.173 533.473 306.701C533.473 307.949 532.633 308.585 530.953 308.585C529.357 308.585 528.493 307.877 528.349 306.461H529.057C529.129 307.001 529.321 307.397 529.633 307.637C529.921 307.853 530.353 307.961 530.929 307.961C532.129 307.961 532.729 307.553 532.729 306.737C532.729 306.365 532.525 306.077 532.117 305.873C531.901 305.765 531.445 305.621 530.737 305.441C530.017 305.249 529.513 305.069 529.225 304.889C528.745 304.601 528.517 304.205 528.517 303.701C528.517 303.197 528.733 302.801 529.189 302.489C529.621 302.189 530.173 302.045 530.821 302.045ZM537.635 302.045C538.619 302.045 539.351 302.369 539.843 303.041C540.275 303.629 540.515 304.457 540.551 305.525H535.511C535.547 306.281 535.751 306.881 536.123 307.313C536.507 307.745 537.011 307.961 537.659 307.961C538.223 307.961 538.679 307.805 539.027 307.517C539.315 307.265 539.531 306.905 539.687 306.425H540.419C540.275 307.025 539.999 307.517 539.591 307.901C539.087 308.357 538.451 308.585 537.659 308.585C536.783 308.585 536.087 308.285 535.571 307.697C535.031 307.097 534.767 306.293 534.767 305.309C534.767 304.397 535.019 303.641 535.535 303.017C536.063 302.369 536.759 302.045 537.635 302.045ZM537.647 302.669C537.035 302.669 536.543 302.873 536.171 303.305C535.799 303.725 535.583 304.265 535.523 304.937H539.795C539.675 303.425 538.955 302.669 537.647 302.669ZM544.805 302.045C545.165 302.045 545.465 302.081 545.705 302.177V302.909C545.381 302.813 545.069 302.777 544.757 302.777C544.205 302.777 543.749 303.017 543.413 303.521C543.077 303.977 542.921 304.517 542.921 305.141V308.417H542.201V302.213H542.921V303.401C543.089 303.017 543.317 302.705 543.605 302.477C543.941 302.189 544.349 302.045 544.805 302.045ZM551.642 299.849H557.318V300.497H552.374V303.677H557.066V304.325H552.374V308.417H551.642V299.849ZM559.14 299.681H559.86V308.417H559.14V299.681ZM564.808 302.045C565.72 302.045 566.452 302.369 567.004 303.029C567.508 303.641 567.76 304.409 567.76 305.321C567.76 306.233 567.508 306.989 567.004 307.601C566.452 308.249 565.72 308.585 564.808 308.585C563.896 308.585 563.164 308.249 562.612 307.601C562.108 306.989 561.856 306.233 561.856 305.321C561.856 304.409 562.108 303.641 562.624 303.029C563.164 302.369 563.896 302.045 564.808 302.045ZM564.808 302.669C564.1 302.669 563.548 302.933 563.14 303.485C562.768 303.965 562.588 304.577 562.588 305.321C562.588 306.053 562.768 306.665 563.14 307.145C563.548 307.685 564.1 307.961 564.808 307.961C565.516 307.961 566.08 307.685 566.488 307.145C566.848 306.653 567.04 306.041 567.04 305.321C567.04 304.577 566.848 303.965 566.488 303.485C566.08 302.933 565.516 302.669 564.808 302.669ZM568.837 302.213H569.641L571.321 307.493L572.881 302.213H573.577L575.137 307.493L576.829 302.213H577.621L575.497 308.417H574.801L573.241 303.149L571.657 308.417H570.973L568.837 302.213ZM578.952 305.213H584.22C584.076 304.949 583.92 304.721 583.752 304.505L584.376 304.397C584.544 304.637 584.7 304.913 584.868 305.213H589.392V305.789H584.04C583.536 306.305 582.852 306.785 582.012 307.217V308.921C583.008 308.729 583.932 308.501 584.784 308.261L584.88 308.825C583.884 309.089 582.684 309.341 581.28 309.581L581.16 309.077C581.328 309.017 581.424 308.921 581.424 308.801V307.493C580.74 307.781 579.972 308.045 579.132 308.297L578.808 307.769C580.896 307.241 582.408 306.581 583.344 305.789H578.952V305.213ZM587.928 306.329L588.348 306.701C587.892 307.169 587.34 307.589 586.716 307.961C587.52 308.441 588.492 308.813 589.632 309.065L589.272 309.581C587.016 309.029 585.42 308.009 584.496 306.533L584.952 306.281C585.288 306.797 585.708 307.253 586.236 307.637C586.896 307.265 587.46 306.833 587.928 306.329ZM580.224 299.981C580.128 300.233 580.02 300.461 579.9 300.677L579.36 300.509C579.696 299.981 579.912 299.357 579.996 298.661L580.536 298.733C580.5 298.997 580.452 299.237 580.404 299.453H581.928V298.661H582.528V299.453H584.784V299.981H582.528V300.941H585.156V301.469H582.528V302.261H584.82V303.605C584.82 303.989 584.556 304.193 584.04 304.193H583.308L583.2 303.725L583.872 303.737C584.112 303.737 584.232 303.629 584.232 303.437V302.729H582.528V304.421H581.928V302.729H580.344V304.289H579.768V302.261H581.928V301.469H579.024V300.941H581.928V299.981H580.224ZM585.9 299.297H586.5V302.789H585.9V299.297ZM587.892 304.325H586.452L586.32 303.737C586.8 303.761 587.244 303.785 587.676 303.785C588 303.785 588.168 303.629 588.168 303.341V298.613H588.768V303.485C588.768 304.037 588.468 304.325 587.892 304.325ZM596.384 301.049C595.832 302.225 595.184 303.245 594.44 304.133L593.984 303.593C595.112 302.273 596 300.593 596.648 298.577L597.296 298.733C597.104 299.333 596.888 299.885 596.672 300.413H602.048V301.049H597.86V303.233H601.496V303.881H597.86V306.101H601.592V306.737H597.86V309.593H597.212V301.049H596.384ZM592.772 302.561C592.34 303.137 591.872 303.689 591.356 304.217L591.152 303.533C592.496 302.081 593.456 300.449 594.056 298.637L594.656 298.913C594.332 299.873 593.924 300.761 593.42 301.589V309.593H592.772V302.561Z" fill="white"/>
<path d="M522.699 327.121H525.255C525.399 326.713 525.507 326.281 525.567 325.837H521.199V329.917C521.163 332.257 520.779 334.141 520.059 335.569L519.567 335.125C520.191 333.877 520.515 332.137 520.551 329.917V325.201H530.199V325.837H526.215C526.143 326.293 526.035 326.713 525.891 327.121H529.287V331.573H526.431V334.729C526.431 335.269 526.143 335.545 525.591 335.545H524.379L524.235 334.921C524.631 334.945 525.003 334.969 525.363 334.969C525.627 334.969 525.771 334.837 525.771 334.573V331.573H522.699V327.121ZM528.651 330.973V329.617H523.335V330.973H528.651ZM523.335 329.053H528.651V327.709H523.335V329.053ZM523.623 332.257L524.199 332.545C523.647 333.553 522.999 334.441 522.243 335.185L521.715 334.801C522.459 334.081 523.095 333.241 523.623 332.257ZM528.267 332.257C529.119 333.241 529.779 334.105 530.235 334.849L529.695 335.233C529.227 334.441 528.579 333.553 527.739 332.593L528.267 332.257ZM532.679 325.237H538.247V325.837H536.963V327.805H538.499V328.429H536.963V331.129H536.339V328.429H534.575C534.443 329.701 533.975 330.661 533.159 331.285L532.679 330.853C533.411 330.313 533.831 329.509 533.939 328.429H532.367V327.805H533.975V325.837H532.679V325.237ZM534.611 325.837V327.805H536.339V325.837H534.611ZM539.363 325.465H539.975V329.581H539.363V325.465ZM532.967 332.425H537.251V331.261H537.899V332.425H542.099V333.037H537.899V334.645H542.771V335.257H532.283V334.645H537.251V333.037H532.967V332.425ZM541.283 331.213H539.687L539.543 330.601C540.071 330.625 540.587 330.649 541.067 330.649C541.367 330.649 541.523 330.457 541.523 330.097V324.793H542.159V330.253C542.159 330.889 541.859 331.213 541.283 331.213ZM544.795 331.213H550.063C549.919 330.949 549.763 330.721 549.595 330.505L550.219 330.397C550.387 330.637 550.543 330.913 550.711 331.213H555.235V331.789H549.883C549.379 332.305 548.695 332.785 547.855 333.217V334.921C548.851 334.729 549.775 334.501 550.627 334.261L550.723 334.825C549.727 335.089 548.527 335.341 547.123 335.581L547.003 335.077C547.171 335.017 547.267 334.921 547.267 334.801V333.493C546.583 333.781 545.815 334.045 544.975 334.297L544.651 333.769C546.739 333.241 548.251 332.581 549.187 331.789H544.795V331.213ZM553.771 332.329L554.191 332.701C553.735 333.169 553.183 333.589 552.559 333.961C553.363 334.441 554.335 334.813 555.475 335.065L555.115 335.581C552.859 335.029 551.263 334.009 550.339 332.533L550.795 332.281C551.131 332.797 551.551 333.253 552.079 333.637C552.739 333.265 553.303 332.833 553.771 332.329ZM546.067 325.981C545.971 326.233 545.863 326.461 545.743 326.677L545.203 326.509C545.539 325.981 545.755 325.357 545.839 324.661L546.379 324.733C546.343 324.997 546.295 325.237 546.247 325.453H547.771V324.661H548.371V325.453H550.627V325.981H548.371V326.941H550.999V327.469H548.371V328.261H550.663V329.605C550.663 329.989 550.399 330.193 549.883 330.193H549.151L549.043 329.725L549.715 329.737C549.955 329.737 550.075 329.629 550.075 329.437V328.729H548.371V330.421H547.771V328.729H546.187V330.289H545.611V328.261H547.771V327.469H544.867V326.941H547.771V325.981H546.067ZM551.743 325.297H552.343V328.789H551.743V325.297ZM553.735 330.325H552.295L552.163 329.737C552.643 329.761 553.087 329.785 553.519 329.785C553.843 329.785 554.011 329.629 554.011 329.341V324.613H554.611V329.485C554.611 330.037 554.311 330.325 553.735 330.325ZM562.227 327.049C561.675 328.225 561.027 329.245 560.283 330.133L559.827 329.593C560.955 328.273 561.843 326.593 562.491 324.577L563.139 324.733C562.947 325.333 562.731 325.885 562.515 326.413H567.891V327.049H563.703V329.233H567.339V329.881H563.703V332.101H567.435V332.737H563.703V335.593H563.055V327.049H562.227ZM558.615 328.561C558.183 329.137 557.715 329.689 557.199 330.217L556.995 329.533C558.339 328.081 559.299 326.449 559.899 324.637L560.499 324.913C560.175 325.873 559.767 326.761 559.263 327.589V335.593H558.615V328.561Z" fill="white"/>
<path d="M520.263 350.961C520.947 351.489 521.523 352.029 521.979 352.557L521.535 353.001C521.115 352.485 520.539 351.945 519.819 351.381L520.263 350.961ZM520.119 353.913C520.767 354.453 521.307 354.993 521.739 355.545L521.295 355.989C520.887 355.461 520.347 354.909 519.675 354.333L520.119 353.913ZM521.331 357.129L521.883 357.357C521.415 358.797 520.899 360.153 520.323 361.425L519.747 361.173C520.347 359.853 520.875 358.509 521.331 357.129ZM522.531 351.165H526.191V358.329H522.531V351.165ZM525.555 357.729V356.013H523.167V357.729H525.555ZM523.167 355.413H525.555V353.841H523.167V355.413ZM523.167 353.253H525.555V351.753H523.167V353.253ZM525.303 358.833C525.867 359.673 526.299 360.393 526.599 361.017L526.095 361.377C525.783 360.705 525.351 359.961 524.811 359.145L525.303 358.833ZM523.323 358.857L523.875 359.121C523.503 359.961 523.023 360.777 522.423 361.569L521.859 361.281C522.471 360.465 522.963 359.661 523.323 358.857ZM527.331 351.729H527.943V359.217H527.331V351.729ZM529.179 361.413H527.859L527.727 360.777C528.159 360.801 528.567 360.825 528.951 360.825C529.263 360.825 529.419 360.645 529.419 360.297V350.685H530.043V360.465C530.043 361.089 529.755 361.413 529.179 361.413ZM533.927 350.613C534.167 351.117 534.347 351.597 534.479 352.029L533.915 352.233C533.747 351.729 533.531 351.249 533.291 350.781L533.927 350.613ZM532.223 352.329H535.931V352.941H532.223V352.329ZM532.571 354.069H535.523V354.657H532.571V354.069ZM532.571 355.665H535.523V356.265H532.571V355.665ZM535.607 357.477V361.401H534.995V360.789H533.075V361.569H532.475V357.477H535.607ZM533.075 360.189H534.995V358.065H533.075V360.189ZM536.327 352.929H539.795C539.771 352.209 539.771 351.465 539.771 350.685H540.383C540.383 351.477 540.383 352.233 540.407 352.929H542.747V353.541H540.431C540.503 355.797 540.683 357.573 540.971 358.857C541.259 360.105 541.523 360.741 541.787 360.753C542.003 360.681 542.231 359.889 542.471 358.377L542.987 358.665C542.675 360.513 542.279 361.449 541.787 361.449C541.079 361.425 540.527 360.153 540.143 357.609C539.975 356.457 539.867 355.101 539.819 353.541H536.327V352.929ZM536.255 355.545H539.267V356.133H538.091V359.313C538.595 359.217 539.075 359.121 539.543 359.013V359.601C538.511 359.841 537.407 360.033 536.219 360.201L536.063 359.613C536.543 359.553 537.023 359.493 537.479 359.421V356.133H536.255V355.545ZM541.511 350.757C541.979 351.285 542.339 351.753 542.591 352.161L542.123 352.485C541.859 352.053 541.499 351.573 541.055 351.045L541.511 350.757ZM549.811 351.021L550.447 351.129C550.303 351.705 550.135 352.221 549.919 352.701H551.611V350.637H552.259V352.701H554.659V353.325H552.247C552.223 354.141 552.139 354.873 552.019 355.533H555.163V356.157H551.887C551.743 356.673 551.575 357.141 551.371 357.549C550.819 358.581 549.907 359.409 548.647 360.009L548.287 359.457C549.511 358.881 550.375 358.077 550.891 357.069C551.011 356.781 551.119 356.481 551.215 356.157H548.215V355.533H551.371C551.503 354.861 551.575 354.129 551.599 353.325H549.595C549.283 353.853 548.923 354.309 548.503 354.693L548.107 354.201C548.947 353.409 549.511 352.353 549.811 351.021ZM552.235 357.069C553.387 357.849 554.359 358.629 555.139 359.421L554.671 359.877C553.975 359.109 553.027 358.305 551.827 357.465L552.235 357.069ZM545.635 350.793C546.331 351.369 546.919 351.933 547.399 352.509L546.967 352.941C546.523 352.401 545.935 351.825 545.191 351.213L545.635 350.793ZM544.735 353.697H547.567V354.213C547.063 354.981 546.475 355.725 545.815 356.445H547.627V356.889C547.411 357.897 547.135 358.749 546.799 359.433C546.895 359.481 547.003 359.565 547.123 359.661C547.495 360.021 547.891 360.297 548.311 360.489C548.731 360.657 549.295 360.741 550.003 360.753C550.663 360.753 551.419 360.765 552.271 360.765C553.123 360.765 554.227 360.741 555.595 360.717L555.451 361.341H552.355C551.407 361.341 550.603 361.329 549.955 361.317C549.127 361.293 548.491 361.185 548.047 360.993C547.543 360.789 547.099 360.477 546.691 360.057C546.595 359.973 546.487 359.937 546.391 359.937C546.079 359.937 545.659 360.477 545.131 361.557L544.663 361.137C545.215 360.021 545.731 359.421 546.223 359.325C546.535 358.665 546.799 357.897 547.003 357.009H545.011V356.505C545.719 355.761 546.331 355.029 546.835 354.297H544.735V353.697ZM567.447 353.601L567.555 354.225L563.511 354.717C563.583 355.581 563.691 356.325 563.835 356.937C564.123 358.161 564.543 359.133 565.095 359.853C565.587 360.501 566.055 360.837 566.487 360.861C566.847 360.849 567.123 360.045 567.291 358.461L567.855 358.797C567.711 359.781 567.519 360.501 567.279 360.981C567.063 361.329 566.811 361.509 566.523 361.509C565.947 361.509 565.347 361.125 564.735 360.369C564.063 359.553 563.559 358.473 563.223 357.129C563.067 356.505 562.947 355.737 562.863 354.801L560.175 355.125L560.079 354.513L562.815 354.177C562.743 353.145 562.695 351.957 562.683 350.613H563.331C563.331 351.933 563.379 353.085 563.451 354.093L567.447 353.601ZM558.663 354.561C558.207 355.209 557.703 355.821 557.151 356.385L556.947 355.713C558.315 354.201 559.299 352.509 559.899 350.613L560.499 350.889C560.187 351.825 559.791 352.713 559.311 353.541V361.617H558.663V354.561ZM564.687 350.733C565.431 351.345 566.055 351.969 566.559 352.593L566.115 353.025C565.659 352.437 565.047 351.801 564.255 351.129L564.687 350.733Z" fill="white"/>
<g clip-path="url(#clip1_5244_335)">
<rect x="639.092" y="291.333" width="5" height="40" fill="#FF7B8E"/>
<rect width="370.425" height="40" transform="translate(644.092 291.333)" fill="#2C2C2C"/>
<circle cx="679.092" cy="311.333" r="3" fill="white"/>
<path d="M693.1 306.837H694.248V313.011C694.248 313.991 694.458 314.733 694.906 315.237C695.368 315.755 696.096 316.021 697.09 316.021C698.07 316.021 698.798 315.755 699.274 315.237C699.708 314.733 699.932 313.991 699.932 313.011V306.837H701.08V312.997C701.08 314.299 700.744 315.293 700.086 315.979C699.4 316.679 698.406 317.029 697.09 317.029C695.774 317.029 694.78 316.679 694.108 315.993C693.436 315.293 693.1 314.299 693.1 312.997V306.837ZM703.678 306.837H704.812V316.833H703.678V306.837ZM711.798 313.305V317.337H708.522V318.023H707.57V313.305H711.798ZM708.522 316.427H710.874V314.187H708.522V316.427ZM707.094 307.243H709.502C709.264 306.683 708.984 306.137 708.648 305.619L709.614 305.353C709.95 305.969 710.202 306.529 710.398 307.047L709.852 307.243H712.316V308.167H707.094V307.243ZM707.682 309.287H711.7V310.169H707.682V309.287ZM707.682 311.219H711.7V312.101H707.682V311.219ZM712.764 311.387H718.798V312.311C718.406 313.599 717.776 314.705 716.88 315.629C717.72 316.301 718.742 316.903 719.974 317.407L719.428 318.275C718.14 317.687 717.062 317.015 716.194 316.273C715.186 317.113 713.926 317.771 712.442 318.275L711.896 317.421C713.324 316.945 714.5 316.329 715.452 315.573C714.57 314.621 713.968 313.543 713.646 312.367H712.764V311.387ZM714.612 312.367C714.906 313.319 715.424 314.187 716.152 314.943C716.88 314.187 717.44 313.319 717.818 312.367H714.612ZM713.814 305.941H718V308.965C718 309.315 718.182 309.497 718.574 309.497H719.568V310.421H718.322C717.426 310.421 716.992 310.001 716.992 309.175V306.893H714.808V307.523C714.808 308.923 714.15 310.001 712.862 310.757L712.19 310.015C713.268 309.455 713.814 308.657 713.814 307.621V305.941ZM722.938 317.379V318.219H721.972V313.291H726.242V318.023H725.276V317.379H722.938ZM725.276 316.455V314.201H722.938V316.455H725.276ZM721.468 307.229H723.876C723.666 306.669 723.414 306.123 723.12 305.619L724.086 305.353C724.394 305.969 724.632 306.543 724.8 307.047L724.31 307.229H726.76V308.167H721.468V307.229ZM722.014 309.301H726.2V310.183H722.014V309.301ZM722.014 311.219H726.2V312.115H722.014V311.219ZM730.106 305.423H731.1V310.015H734.306V310.995H731.1V318.219H730.106V310.995H726.998V310.015H730.106V305.423Z" fill="white"/>
</g>
<path d="M683.652 357.405V360.693H680.784V361.317H680.172V357.405H683.652ZM680.784 360.105H683.052V357.981H680.784V360.105ZM679.716 352.245H684.12V352.845H679.716V352.245ZM680.244 353.973H683.556V354.549H680.244V353.973ZM680.256 355.617H683.556V356.205H680.256V355.617ZM684.552 355.773H689.64V356.373C689.292 357.501 688.716 358.485 687.924 359.301C688.668 359.937 689.592 360.489 690.696 360.957L690.348 361.509C689.184 360.981 688.224 360.393 687.48 359.721C686.592 360.465 685.5 361.065 684.18 361.509L683.82 360.969C685.104 360.537 686.16 359.961 687 359.265C686.184 358.413 685.644 357.453 685.356 356.397H684.552V355.773ZM685.968 356.397C686.244 357.309 686.736 358.137 687.444 358.857C688.164 358.137 688.68 357.321 689.016 356.397H685.968ZM685.548 351.093H688.92V353.745C688.92 354.057 689.088 354.213 689.424 354.213H690.36V354.813H689.28C688.608 354.813 688.272 354.489 688.272 353.853V351.705H686.184V352.353C686.184 353.529 685.632 354.441 684.528 355.089L684.096 354.609C685.056 354.093 685.548 353.361 685.548 352.425V351.093ZM681.72 350.529C682.02 351.033 682.26 351.501 682.428 351.933L681.864 352.149C681.66 351.645 681.408 351.165 681.108 350.697L681.72 350.529ZM693.176 360.741V361.485H692.552V357.381H696.116V361.317H695.492V360.741H693.176ZM695.492 360.141V357.981H693.176V360.141H695.492ZM692.108 352.245H696.572V352.857H692.108V352.245ZM692.576 353.985H696.092V354.573H692.576V353.985ZM692.576 355.617H696.092V356.217H692.576V355.617ZM699.584 350.577H700.22V354.597H703.052V355.221H700.22V361.497H699.584V355.221H696.8V354.597H699.584V350.577ZM694.208 350.529C694.472 351.033 694.676 351.513 694.82 351.945L694.268 352.149C694.076 351.645 693.848 351.165 693.584 350.697L694.208 350.529ZM709.828 351.081H714.736V357.573H713.392V360.501C713.392 360.645 713.464 360.717 713.632 360.729H714.34C714.64 360.717 714.82 360.573 714.868 360.309C714.94 359.973 714.976 359.409 714.976 358.605L715.54 358.809C715.54 359.937 715.468 360.645 715.324 360.909C715.168 361.161 714.856 361.293 714.376 361.317H713.632C713.056 361.317 712.768 361.077 712.768 360.597V357.573H711.748C711.616 359.361 710.692 360.669 708.976 361.485L708.628 360.945C710.176 360.249 711.016 359.133 711.136 357.573H709.828V351.081ZM714.124 357.021V355.533H710.44V357.021H714.124ZM710.44 354.993H714.124V353.589H710.44V354.993ZM710.44 353.049H714.124V351.645H710.44V353.049ZM704.98 352.593H706.804V350.553H707.452V352.593H709.036V353.217H707.452V355.197C707.452 355.305 707.44 355.413 707.44 355.521H709.204V356.133H707.416C707.392 356.445 707.356 356.757 707.308 357.045C707.98 357.657 708.652 358.365 709.348 359.169L708.976 359.721C708.28 358.833 707.68 358.137 707.2 357.645C706.852 359.241 706.168 360.489 705.16 361.377L704.68 360.957C705.904 359.901 706.6 358.293 706.768 356.133H704.824V355.521H706.792C706.792 355.401 706.804 355.293 706.804 355.197V353.217H704.98V352.593ZM718.788 352.053C718.488 352.521 718.152 352.953 717.78 353.337L717.24 353.001C717.972 352.269 718.512 351.441 718.86 350.529L719.484 350.661C719.364 350.949 719.244 351.225 719.112 351.489H722.34V352.053H720.504C720.768 352.461 720.972 352.833 721.116 353.193L720.564 353.397C720.36 352.929 720.12 352.485 719.844 352.053H718.788ZM723.912 352.053C723.648 352.533 723.348 352.965 723.012 353.361L722.484 353.013C723.108 352.281 723.576 351.453 723.876 350.541L724.5 350.673C724.404 350.961 724.296 351.225 724.188 351.489H727.764V352.053H725.652C725.94 352.485 726.18 352.881 726.348 353.241L725.784 353.457C725.568 352.977 725.304 352.509 724.992 352.053H723.912ZM717.804 355.401H719.82V354.633H717.468V354.069H719.82V353.349H720.444V354.069H722.796V354.633H720.444V355.401H722.448V358.797H720.444V359.613H722.892V360.177H720.444V361.485H719.82V360.177H717.36V359.613H719.82V358.797H717.804V355.401ZM721.896 358.293V357.345H720.408V358.293H721.896ZM719.856 358.293V357.345H718.368V358.293H719.856ZM718.368 356.865H719.856V355.917H718.368V356.865ZM720.408 355.917V356.865H721.896V355.917H720.408ZM726.6 354.621H723.984V360.177C723.984 360.525 724.164 360.705 724.536 360.705H726.36C726.768 360.705 727.032 360.585 727.128 360.369C727.236 360.105 727.32 359.625 727.368 358.905L727.968 359.109C727.896 360.117 727.764 360.753 727.548 360.993C727.368 361.185 727.02 361.293 726.492 361.293H724.332C723.696 361.293 723.384 360.981 723.384 360.357V354.057H727.2V357.057C727.188 357.741 726.876 358.101 726.276 358.125C725.916 358.125 725.58 358.113 725.244 358.089L725.076 357.525C725.436 357.549 725.772 357.561 726.084 357.561C726.42 357.561 726.6 357.345 726.6 356.913V354.621Z" fill="white"/>
<path d="M679.152 377.765H679.98L682.032 385.349H682.068L684.168 377.765H685.02L687.12 385.349H687.156L689.208 377.765H690.036L687.576 386.333H686.712L684.612 378.797H684.576L682.476 386.333H681.612L679.152 377.765ZM693.86 379.961C694.844 379.961 695.576 380.285 696.068 380.957C696.5 381.545 696.74 382.373 696.776 383.441H691.736C691.772 384.197 691.976 384.797 692.348 385.229C692.732 385.661 693.236 385.877 693.884 385.877C694.448 385.877 694.904 385.721 695.252 385.433C695.54 385.181 695.756 384.821 695.912 384.341H696.644C696.5 384.941 696.224 385.433 695.816 385.817C695.312 386.273 694.676 386.501 693.884 386.501C693.008 386.501 692.312 386.201 691.796 385.613C691.256 385.013 690.992 384.209 690.992 383.225C690.992 382.313 691.244 381.557 691.76 380.933C692.288 380.285 692.984 379.961 693.86 379.961ZM693.872 380.585C693.26 380.585 692.768 380.789 692.396 381.221C692.024 381.641 691.808 382.181 691.748 382.853H696.02C695.9 381.341 695.18 380.585 693.872 380.585ZM698.426 377.597H699.146V381.437C699.602 380.453 700.322 379.961 701.318 379.961C702.182 379.961 702.878 380.285 703.382 380.957C703.838 381.557 704.066 382.313 704.066 383.225C704.066 384.149 703.838 384.917 703.382 385.517C702.878 386.165 702.182 386.501 701.294 386.501C700.262 386.501 699.53 386.033 699.11 385.109V386.333H698.426V377.597ZM701.186 380.573C700.55 380.573 700.046 380.813 699.674 381.317C699.302 381.797 699.122 382.409 699.122 383.177V383.321C699.122 384.053 699.29 384.653 699.638 385.121C699.998 385.625 700.526 385.889 701.21 385.889C701.906 385.889 702.446 385.625 702.83 385.097C703.166 384.629 703.334 384.005 703.334 383.225C703.334 382.445 703.154 381.821 702.818 381.365C702.434 380.837 701.894 380.573 701.186 380.573ZM705.852 383.129H711.12C710.976 382.865 710.82 382.637 710.652 382.421L711.276 382.313C711.444 382.553 711.6 382.829 711.768 383.129H716.292V383.705H710.94C710.436 384.221 709.752 384.701 708.912 385.133V386.837C709.908 386.645 710.832 386.417 711.684 386.177L711.78 386.741C710.784 387.005 709.584 387.257 708.18 387.497L708.06 386.993C708.228 386.933 708.324 386.837 708.324 386.717V385.409C707.64 385.697 706.872 385.961 706.032 386.213L705.708 385.685C707.796 385.157 709.308 384.497 710.244 383.705H705.852V383.129ZM714.828 384.245L715.248 384.617C714.792 385.085 714.24 385.505 713.616 385.877C714.42 386.357 715.392 386.729 716.532 386.981L716.172 387.497C713.916 386.945 712.32 385.925 711.396 384.449L711.852 384.197C712.188 384.713 712.608 385.169 713.136 385.553C713.796 385.181 714.36 384.749 714.828 384.245ZM707.124 377.897C707.028 378.149 706.92 378.377 706.8 378.593L706.26 378.425C706.596 377.897 706.812 377.273 706.896 376.577L707.436 376.649C707.4 376.913 707.352 377.153 707.304 377.369H708.828V376.577H709.428V377.369H711.684V377.897H709.428V378.857H712.056V379.385H709.428V380.177H711.72V381.521C711.72 381.905 711.456 382.109 710.94 382.109H710.208L710.1 381.641L710.772 381.653C711.012 381.653 711.132 381.545 711.132 381.353V380.645H709.428V382.337H708.828V380.645H707.244V382.205H706.668V380.177H708.828V379.385H705.924V378.857H708.828V377.897H707.124ZM712.8 377.213H713.4V380.705H712.8V377.213ZM714.792 382.241H713.352L713.22 381.653C713.7 381.677 714.144 381.701 714.576 381.701C714.9 381.701 715.068 381.545 715.068 381.257V376.529H715.668V381.401C715.668 381.953 715.368 382.241 714.792 382.241ZM723.284 378.965C722.732 380.141 722.084 381.161 721.34 382.049L720.884 381.509C722.012 380.189 722.9 378.509 723.548 376.493L724.196 376.649C724.004 377.249 723.788 377.801 723.572 378.329H728.948V378.965H724.76V381.149H728.396V381.797H724.76V384.017H728.492V384.653H724.76V387.509H724.112V378.965H723.284ZM719.672 380.477C719.24 381.053 718.772 381.605 718.256 382.133L718.052 381.449C719.396 379.997 720.356 378.365 720.956 376.553L721.556 376.829C721.232 377.789 720.824 378.677 720.32 379.505V387.509H719.672V380.477Z" fill="white"/>
<path d="M679.968 403.765H680.94L684.3 411.409H684.336L687.672 403.765H688.644V412.333H687.912V404.977H687.876L684.66 412.333H683.952L680.748 404.977H680.7V412.333H679.968V403.765ZM693.489 405.961C694.401 405.961 695.133 406.285 695.685 406.945C696.189 407.557 696.441 408.325 696.441 409.237C696.441 410.149 696.189 410.905 695.685 411.517C695.133 412.165 694.401 412.501 693.489 412.501C692.577 412.501 691.845 412.165 691.293 411.517C690.789 410.905 690.537 410.149 690.537 409.237C690.537 408.325 690.789 407.557 691.305 406.945C691.845 406.285 692.577 405.961 693.489 405.961ZM693.489 406.585C692.781 406.585 692.229 406.849 691.821 407.401C691.449 407.881 691.269 408.493 691.269 409.237C691.269 409.969 691.449 410.581 691.821 411.061C692.229 411.601 692.781 411.877 693.489 411.877C694.197 411.877 694.761 411.601 695.169 411.061C695.529 410.569 695.721 409.957 695.721 409.237C695.721 408.493 695.529 407.881 695.169 407.401C694.761 406.849 694.197 406.585 693.489 406.585ZM698.215 403.597H698.935V407.437C699.391 406.453 700.111 405.961 701.107 405.961C701.971 405.961 702.667 406.285 703.171 406.957C703.627 407.557 703.855 408.313 703.855 409.225C703.855 410.149 703.627 410.917 703.171 411.517C702.667 412.165 701.971 412.501 701.083 412.501C700.051 412.501 699.319 412.033 698.899 411.109V412.333H698.215V403.597ZM700.975 406.573C700.339 406.573 699.835 406.813 699.463 407.317C699.091 407.797 698.911 408.409 698.911 409.177V409.321C698.911 410.053 699.079 410.653 699.427 411.121C699.787 411.625 700.315 411.889 700.999 411.889C701.695 411.889 702.235 411.625 702.619 411.097C702.955 410.629 703.123 410.005 703.123 409.225C703.123 408.445 702.943 407.821 702.607 407.365C702.223 406.837 701.683 406.573 700.975 406.573ZM706.349 403.897C706.517 403.897 706.661 403.957 706.781 404.077C706.901 404.173 706.961 404.317 706.961 404.497C706.961 404.665 706.889 404.809 706.769 404.929C706.649 405.037 706.517 405.097 706.349 405.097C706.169 405.097 706.025 405.037 705.917 404.929C705.797 404.809 705.737 404.665 705.737 404.497C705.737 404.317 705.797 404.173 705.917 404.077C706.025 403.957 706.169 403.897 706.349 403.897ZM705.989 406.129H706.709V412.333H705.989V406.129ZM709.31 403.597H710.03V412.333H709.31V403.597ZM714.774 405.961C715.758 405.961 716.49 406.285 716.982 406.957C717.414 407.545 717.654 408.373 717.69 409.441H712.65C712.686 410.197 712.89 410.797 713.262 411.229C713.646 411.661 714.15 411.877 714.798 411.877C715.362 411.877 715.818 411.721 716.166 411.433C716.454 411.181 716.67 410.821 716.826 410.341H717.558C717.414 410.941 717.138 411.433 716.73 411.817C716.226 412.273 715.59 412.501 714.798 412.501C713.922 412.501 713.226 412.201 712.71 411.613C712.17 411.013 711.906 410.209 711.906 409.225C711.906 408.313 712.158 407.557 712.674 406.933C713.202 406.285 713.898 405.961 714.774 405.961ZM714.786 406.585C714.174 406.585 713.682 406.789 713.31 407.221C712.938 407.641 712.722 408.181 712.662 408.853H716.934C716.814 407.341 716.094 406.585 714.786 406.585ZM719.136 404.629H720.78C720.612 403.969 720.42 403.369 720.204 402.817L720.852 402.709C721.044 403.273 721.236 403.909 721.404 404.629H722.868V405.253H719.136V404.629ZM719.964 406.081C720.252 407.473 720.504 409.057 720.72 410.845L720.192 410.977C719.976 409.345 719.724 407.773 719.412 406.261L719.964 406.081ZM722.88 411.013V411.637C721.764 412.069 720.564 412.441 719.268 412.729L719.1 412.093C719.82 411.949 720.528 411.781 721.212 411.589C721.536 409.813 721.764 407.905 721.908 405.889L722.496 405.973C722.34 407.941 722.1 409.753 721.788 411.409C722.148 411.289 722.52 411.157 722.88 411.013ZM728.7 404.953V403.057H729.336V405.541H723.744V403.057H724.38V404.953H726.204V402.577H726.852V404.953H728.7ZM723.18 406.705H729.984V407.329H726.744C726.648 407.785 726.504 408.229 726.336 408.637H729.576V412.621C729.576 413.173 729.348 413.461 728.904 413.461H728.364L728.196 412.873L728.712 412.897C728.904 412.897 729 412.765 729 412.501V409.237H727.704V413.293H727.152V409.237H726V413.293H725.436V409.237H724.176V413.461H723.576V408.637H725.712C725.892 408.217 726.024 407.785 726.108 407.329H723.18V406.705ZM731.852 409.129H737.12C736.976 408.865 736.82 408.637 736.652 408.421L737.276 408.313C737.444 408.553 737.6 408.829 737.768 409.129H742.292V409.705H736.94C736.436 410.221 735.752 410.701 734.912 411.133V412.837C735.908 412.645 736.832 412.417 737.684 412.177L737.78 412.741C736.784 413.005 735.584 413.257 734.18 413.497L734.06 412.993C734.228 412.933 734.324 412.837 734.324 412.717V411.409C733.64 411.697 732.872 411.961 732.032 412.213L731.708 411.685C733.796 411.157 735.308 410.497 736.244 409.705H731.852V409.129ZM740.828 410.245L741.248 410.617C740.792 411.085 740.24 411.505 739.616 411.877C740.42 412.357 741.392 412.729 742.532 412.981L742.172 413.497C739.916 412.945 738.32 411.925 737.396 410.449L737.852 410.197C738.188 410.713 738.608 411.169 739.136 411.553C739.796 411.181 740.36 410.749 740.828 410.245ZM733.124 403.897C733.028 404.149 732.92 404.377 732.8 404.593L732.26 404.425C732.596 403.897 732.812 403.273 732.896 402.577L733.436 402.649C733.4 402.913 733.352 403.153 733.304 403.369H734.828V402.577H735.428V403.369H737.684V403.897H735.428V404.857H738.056V405.385H735.428V406.177H737.72V407.521C737.72 407.905 737.456 408.109 736.94 408.109H736.208L736.1 407.641L736.772 407.653C737.012 407.653 737.132 407.545 737.132 407.353V406.645H735.428V408.337H734.828V406.645H733.244V408.205H732.668V406.177H734.828V405.385H731.924V404.857H734.828V403.897H733.124ZM738.8 403.213H739.4V406.705H738.8V403.213ZM740.792 408.241H739.352L739.22 407.653C739.7 407.677 740.144 407.701 740.576 407.701C740.9 407.701 741.068 407.545 741.068 407.257V402.529H741.668V407.401C741.668 407.953 741.368 408.241 740.792 408.241ZM749.284 404.965C748.732 406.141 748.084 407.161 747.34 408.049L746.884 407.509C748.012 406.189 748.9 404.509 749.548 402.493L750.196 402.649C750.004 403.249 749.788 403.801 749.572 404.329H754.948V404.965H750.76V407.149H754.396V407.797H750.76V410.017H754.492V410.653H750.76V413.509H750.112V404.965H749.284ZM745.672 406.477C745.24 407.053 744.772 407.605 744.256 408.133L744.052 407.449C745.396 405.997 746.356 404.365 746.956 402.553L747.556 402.829C747.232 403.789 746.824 404.677 746.32 405.505V413.509H745.672V406.477Z" fill="white"/>
<rect width="319" height="40" transform="translate(802)" fill="#2C2C2C"/>
<path d="M837.794 15.98C839.166 16.316 840.44 16.638 841.63 16.974C842.624 16.666 843.506 16.302 844.276 15.882H835.372V15.042H840.818C840.678 14.706 840.51 14.398 840.342 14.118L841.364 13.95C841.532 14.258 841.686 14.622 841.854 15.042H846.656V15.882H844.416L845.004 16.274C844.29 16.666 843.548 17.002 842.764 17.31C843.856 17.632 844.864 17.954 845.76 18.276L845.172 18.864H846.726V19.732H836.758V21.314C836.702 23.638 836.254 25.514 835.386 26.928L834.644 26.256C835.372 25.08 835.75 23.428 835.778 21.314V18.864H845.116C844.136 18.472 842.988 18.08 841.644 17.688C840.188 18.136 838.62 18.472 836.912 18.668L836.436 18.024C837.892 17.856 839.208 17.618 840.384 17.324C839.404 17.044 838.368 16.778 837.248 16.498L837.794 15.98ZM838.746 22.182C838.382 22.7 837.976 23.134 837.528 23.498L836.828 22.882C837.724 22.21 838.396 21.3 838.858 20.152L839.656 20.474C839.53 20.768 839.404 21.048 839.278 21.3H841.756V20.152H842.736V21.3H846.404V22.182H842.736V23.484H846.082V24.366H842.736V25.668H847.076V26.536H836.996V25.668H841.756V24.366H838.424V23.484H841.756V22.182H838.746ZM851.636 14.65H859.35V19.228H851.636V14.65ZM858.342 18.276V15.602H852.644V18.276H858.342ZM854.702 20.614V26.69H853.722V25.976H850.768V26.69H849.774V20.614H854.702ZM850.768 25.024H853.722V21.58H850.768V25.024ZM861.212 20.614V26.69H860.204V25.976H857.138V26.69H856.144V20.614H861.212ZM857.138 25.024H860.204V21.58H857.138V25.024ZM866.15 22.392H868.012V20.782H866.528V19.914H873.318V20.782H871.96V22.392H873.766V23.288H871.96V26.508H871.036V23.288H868.852C868.768 24.03 868.6 24.66 868.348 25.164C868.012 25.822 867.438 26.34 866.654 26.704L866.15 25.906C866.836 25.57 867.326 25.122 867.606 24.562C867.76 24.198 867.872 23.764 867.942 23.288H866.15V22.392ZM871.036 22.392V20.782H868.922V22.392H871.036ZM865.226 17.058V18.08H868.376V17.058H865.226ZM868.376 16.344V15.266H865.226V16.344H868.376ZM871.512 17.058V18.052H874.746V17.058H871.512ZM874.746 16.344V15.294H871.512V16.344H874.746ZM869.356 14.468V18.892H865.226V26.774H864.218V14.468H869.356ZM874.746 18.85H870.532V14.482H875.74V25.332C875.74 26.256 875.32 26.718 874.48 26.718C873.976 26.718 873.472 26.704 872.968 26.676L872.73 25.78C873.234 25.808 873.696 25.836 874.116 25.836C874.536 25.836 874.746 25.556 874.746 25.024V18.85ZM879.698 15.868C880.356 16.288 880.888 16.68 881.308 17.03C882.008 16.568 882.582 16.05 883.002 15.49H879.152V14.608H884.15V15.336C883.604 16.358 882.736 17.226 881.56 17.954H883.604V21.174H880.482L880.23 22.7H883.688C883.688 24.352 883.618 25.43 883.478 25.962C883.31 26.522 882.666 26.816 881.532 26.844C881.028 26.844 880.51 26.816 879.992 26.788L879.754 25.906C880.272 25.934 880.804 25.962 881.336 25.962C882.064 25.962 882.484 25.808 882.61 25.5C882.708 25.192 882.764 24.534 882.764 23.554H879.25L879.698 20.306H882.708V18.822H879.796C879.432 18.962 879.068 19.102 878.69 19.228L878.088 18.444C879.012 18.164 879.824 17.842 880.524 17.478C880.076 17.114 879.558 16.736 878.956 16.344L879.698 15.868ZM888.056 14.062L888.77 14.496C888.434 14.874 888.112 15.182 887.776 15.434C887.538 15.602 887.258 15.784 886.936 15.952C887.202 16.176 887.482 16.386 887.79 16.582C888.14 16.414 888.462 16.218 888.756 15.994C889.106 15.728 889.428 15.42 889.722 15.056L890.436 15.49C890.086 15.924 889.736 16.288 889.372 16.568C889.148 16.736 888.896 16.904 888.616 17.072C889.316 17.464 890.086 17.814 890.94 18.122L890.268 18.92C889.722 18.696 889.218 18.472 888.756 18.234V19.578C888.756 19.858 888.924 20.012 889.288 20.012H890.072V20.838H889.036C888.28 20.838 887.902 20.488 887.902 19.788V18.794H885.858C885.858 19.312 885.774 19.746 885.606 20.096C885.41 20.46 885.074 20.81 884.598 21.132L883.898 20.516C884.346 20.166 884.64 19.83 884.808 19.494C884.92 19.172 884.99 18.654 884.99 17.954H888.238C886.614 17.03 885.424 15.966 884.668 14.748L885.466 14.3C885.704 14.678 885.984 15.028 886.306 15.364C886.614 15.224 886.908 15.056 887.174 14.874C887.496 14.65 887.79 14.37 888.056 14.062ZM884.542 21.608H889.442V22.462C889.134 23.302 888.686 24.044 888.098 24.688C888.966 25.192 889.764 25.71 890.464 26.214L889.778 26.928C889.12 26.396 888.336 25.864 887.44 25.304C886.656 25.948 885.69 26.48 884.556 26.872L884.178 25.99C885.102 25.682 885.9 25.276 886.558 24.786C885.928 24.422 885.256 24.058 884.556 23.694L885.158 23.106C885.9 23.47 886.6 23.834 887.244 24.198C887.748 23.694 888.154 23.12 888.434 22.504H884.542V21.608Z" fill="white"/>
<path d="M845.432 60.432H846.296L849.728 69H848.924L847.928 66.444H843.8L842.804 69H842L845.432 60.432ZM844.04 65.82H847.688L845.888 61.224H845.852L844.04 65.82ZM851.099 60.432H854.579C856.475 60.432 857.435 61.248 857.435 62.892C857.435 64.536 856.475 65.364 854.567 65.364H851.831V69H851.099V60.432ZM851.831 61.08V64.716H854.531C855.275 64.716 855.815 64.56 856.175 64.26C856.511 63.96 856.691 63.504 856.691 62.892C856.691 62.28 856.511 61.836 856.175 61.548C855.815 61.236 855.263 61.08 854.531 61.08H851.831ZM859.312 60.432H860.044V69H859.312V60.432ZM866.083 66.072V69.36H863.215V69.984H862.603V66.072H866.083ZM863.215 68.772H865.483V66.648H863.215V68.772ZM862.147 60.912H866.551V61.512H862.147V60.912ZM862.675 62.64H865.987V63.216H862.675V62.64ZM862.687 64.284H865.987V64.872H862.687V64.284ZM866.983 64.44H872.071V65.04C871.723 66.168 871.147 67.152 870.355 67.968C871.099 68.604 872.023 69.156 873.127 69.624L872.779 70.176C871.615 69.648 870.655 69.06 869.911 68.388C869.023 69.132 867.931 69.732 866.611 70.176L866.251 69.636C867.535 69.204 868.591 68.628 869.431 67.932C868.615 67.08 868.075 66.12 867.787 65.064H866.983V64.44ZM868.399 65.064C868.675 65.976 869.167 66.804 869.875 67.524C870.595 66.804 871.111 65.988 871.447 65.064H868.399ZM867.979 59.76H871.351V62.412C871.351 62.724 871.519 62.88 871.855 62.88H872.791V63.48H871.711C871.039 63.48 870.703 63.156 870.703 62.52V60.372H868.615V61.02C868.615 62.196 868.063 63.108 866.959 63.756L866.527 63.276C867.487 62.76 867.979 62.028 867.979 61.092V59.76ZM864.151 59.196C864.451 59.7 864.691 60.168 864.859 60.6L864.295 60.816C864.091 60.312 863.839 59.832 863.539 59.364L864.151 59.196ZM875.607 69.408V70.152H874.983V66.048H878.547V69.984H877.923V69.408H875.607ZM877.923 68.808V66.648H875.607V68.808H877.923ZM874.539 60.912H879.003V61.524H874.539V60.912ZM875.007 62.652H878.523V63.24H875.007V62.652ZM875.007 64.284H878.523V64.884H875.007V64.284ZM882.015 59.244H882.651V63.264H885.483V63.888H882.651V70.164H882.015V63.888H879.231V63.264H882.015V59.244ZM876.639 59.196C876.903 59.7 877.107 60.18 877.251 60.612L876.699 60.816C876.507 60.312 876.279 59.832 876.015 59.364L876.639 59.196Z" fill="white"/>
<path d="M851.312 88.16C852.056 89.144 852.632 90.008 853.016 90.752L852.536 91.088C852.368 90.776 852.188 90.464 851.984 90.14C850.616 90.368 848.828 90.548 846.62 90.692L846.44 90.164C847.4 89.828 848.492 89.084 849.716 87.92C848.972 88.004 847.988 88.088 846.776 88.172L846.692 87.632C846.98 87.572 847.28 87.38 847.604 87.056C848.108 86.516 848.564 85.892 848.996 85.172L849.572 85.388C848.912 86.372 848.312 87.116 847.76 87.596C848.672 87.512 849.512 87.416 850.304 87.32C850.64 86.984 850.964 86.624 851.3 86.252L851.876 86.528C850.352 88.208 849.008 89.396 847.832 90.104C849.32 89.972 850.592 89.816 851.648 89.624C851.384 89.24 851.108 88.856 850.82 88.46L851.312 88.16ZM848.384 90.584L848.936 90.8C848.792 91.1 848.66 91.376 848.516 91.64H852.116V92.168C851.744 93.068 851.12 93.836 850.232 94.484C851.192 94.988 852.308 95.372 853.568 95.66L853.196 96.212C851.828 95.876 850.652 95.42 849.656 94.868C848.72 95.42 847.556 95.876 846.188 96.212L845.876 95.66C847.148 95.36 848.204 94.976 849.068 94.508C848.444 94.1 847.904 93.656 847.436 93.176C847.052 93.596 846.632 93.968 846.2 94.28L845.732 93.872C846.212 93.536 846.644 93.152 847.028 92.732C846.764 92.432 846.536 92.12 846.344 91.796L846.86 91.508C847.028 91.772 847.208 92.036 847.4 92.276C847.784 91.748 848.12 91.184 848.384 90.584ZM849.632 94.16C850.46 93.608 851.06 92.948 851.444 92.204H848.18C848.06 92.396 847.928 92.564 847.808 92.732C848.324 93.272 848.936 93.752 849.632 94.16ZM845.228 85.232L845.816 85.496C845.144 86.816 844.112 87.968 842.696 88.94L842.492 88.304C843.764 87.392 844.676 86.372 845.228 85.232ZM845.504 88.268L846.08 88.532C845.756 89.18 845.36 89.792 844.892 90.356V96.104H844.268V91.04C843.812 91.484 843.32 91.892 842.792 92.276L842.6 91.664C843.944 90.656 844.904 89.528 845.504 88.268ZM855.052 87.296H856.696C856.528 86.636 856.336 86.036 856.12 85.484L856.768 85.376C856.96 85.94 857.152 86.576 857.32 87.296H858.784V87.92H855.052V87.296ZM855.88 88.748C856.168 90.14 856.42 91.724 856.636 93.512L856.108 93.644C855.892 92.012 855.64 90.44 855.328 88.928L855.88 88.748ZM858.796 93.68V94.304C857.68 94.736 856.48 95.108 855.184 95.396L855.016 94.76C855.736 94.616 856.444 94.448 857.128 94.256C857.452 92.48 857.68 90.572 857.824 88.556L858.412 88.64C858.256 90.608 858.016 92.42 857.704 94.076C858.064 93.956 858.436 93.824 858.796 93.68ZM864.616 87.62V85.724H865.252V88.208H859.66V85.724H860.296V87.62H862.12V85.244H862.768V87.62H864.616ZM859.096 89.372H865.9V89.996H862.66C862.564 90.452 862.42 90.896 862.252 91.304H865.492V95.288C865.492 95.84 865.264 96.128 864.82 96.128H864.28L864.112 95.54L864.628 95.564C864.82 95.564 864.916 95.432 864.916 95.168V91.904H863.62V95.96H863.068V91.904H861.916V95.96H861.352V91.904H860.092V96.128H859.492V91.304H861.628C861.808 90.884 861.94 90.452 862.024 89.996H859.096V89.372ZM869.7 92.444H871.38V90.872H870.024V90.296H875.844V90.872H874.608V92.444H876.228V93.02H874.608V95.84H874.008V93.02H871.932C871.86 93.68 871.716 94.232 871.5 94.664C871.2 95.228 870.72 95.672 870.048 95.996L869.712 95.468C870.324 95.18 870.756 94.784 871.008 94.28C871.176 93.92 871.284 93.5 871.332 93.02H869.7V92.444ZM874.008 92.444V90.872H871.968V92.444H874.008ZM868.788 87.716V88.736H871.716V87.716H868.788ZM871.716 87.236V86.132H868.788V87.236H871.716ZM874.176 87.716V88.724H877.176V87.716H874.176ZM877.176 87.236V86.156H874.176V87.236H877.176ZM872.364 85.604V89.276H868.788V96.068H868.14V85.604H872.364ZM877.176 89.252H873.54V85.616H877.836V94.904C877.836 95.636 877.5 96.008 876.852 96.008C876.42 96.008 875.976 95.996 875.544 95.984L875.388 95.396C875.82 95.42 876.228 95.432 876.612 95.432C876.984 95.432 877.176 95.192 877.176 94.712V89.252ZM881.324 86.768C881.924 87.152 882.416 87.512 882.8 87.836C883.484 87.38 884.024 86.876 884.408 86.324H880.94V85.748H885.14V86.228C884.624 87.164 883.796 87.968 882.668 88.616H884.672V91.196H881.996L881.744 92.684H884.744C884.744 94.064 884.684 94.964 884.576 95.384C884.432 95.852 883.904 96.104 882.98 96.128C882.536 96.128 882.08 96.104 881.624 96.08L881.468 95.492C881.924 95.516 882.392 95.54 882.848 95.54C883.496 95.54 883.88 95.396 884 95.12C884.096 94.808 884.144 94.184 884.144 93.248H881.084L881.48 90.632H884.084V89.204H881.456C881.12 89.336 880.796 89.456 880.46 89.576L880.064 89.06C880.916 88.796 881.66 88.484 882.284 88.148C881.888 87.8 881.408 87.44 880.832 87.068L881.324 86.768ZM888.632 85.244L889.112 85.532C888.824 85.856 888.548 86.12 888.26 86.324C888.02 86.492 887.732 86.66 887.408 86.828C887.672 87.056 887.948 87.272 888.26 87.476C888.62 87.32 888.932 87.14 889.22 86.924C889.532 86.684 889.808 86.396 890.06 86.072L890.54 86.372C890.24 86.744 889.94 87.056 889.628 87.296C889.388 87.476 889.112 87.656 888.8 87.824C889.448 88.196 890.168 88.532 890.984 88.82L890.552 89.324C890.012 89.108 889.52 88.892 889.088 88.664V90.044C889.088 90.308 889.244 90.452 889.556 90.452H890.252V91.004H889.376C888.8 91.004 888.524 90.728 888.524 90.176V89.168H886.568C886.568 89.636 886.496 90.02 886.364 90.308C886.184 90.632 885.896 90.932 885.5 91.208L885.044 90.8C885.428 90.512 885.68 90.224 885.824 89.924C885.944 89.648 886.004 89.216 886.004 88.616H889.004C887.492 87.8 886.388 86.84 885.692 85.736L886.208 85.436C886.424 85.796 886.688 86.12 886.988 86.432C887.312 86.288 887.6 86.132 887.852 85.964C888.14 85.748 888.404 85.508 888.632 85.244ZM885.56 91.748H889.7V92.312C889.4 93.092 888.98 93.764 888.428 94.34C889.208 94.82 889.916 95.288 890.54 95.756L890.084 96.2C889.496 95.72 888.8 95.24 887.996 94.748C887.3 95.324 886.472 95.792 885.5 96.152L885.26 95.576C886.124 95.276 886.856 94.892 887.444 94.412C886.868 94.076 886.244 93.728 885.584 93.38L885.992 92.996C886.664 93.332 887.288 93.68 887.888 94.016C888.38 93.512 888.764 92.96 889.04 92.348H885.56V91.748Z" fill="white"/>
<path d="M850.196 111.196L850.832 111.424C850.556 111.94 850.256 112.396 849.92 112.792H853.136V113.44H842.852V112.792H846.068C845.816 112.252 845.528 111.76 845.216 111.328L845.876 111.208C846.176 111.664 846.464 112.192 846.728 112.792H849.212C849.596 112.3 849.92 111.772 850.196 111.196ZM844.196 117.34V118.336C844.196 118.552 844.184 118.756 844.172 118.948H847.124V117.34H844.196ZM847.124 116.752V115.156H844.196V116.752H847.124ZM844.112 119.548C843.968 120.604 843.668 121.504 843.2 122.224L842.732 121.792C843.284 120.904 843.572 119.764 843.596 118.372V114.568H847.736V121.168C847.736 121.768 847.412 122.08 846.764 122.08H845.66L845.492 121.504C845.888 121.516 846.248 121.528 846.584 121.528C846.944 121.528 847.124 121.336 847.124 120.952V119.548H844.112ZM851.492 122.092H849.908L849.776 121.468C850.304 121.492 850.796 121.516 851.264 121.516C851.6 121.516 851.78 121.336 851.78 120.976V114.172H852.428V121.132C852.428 121.768 852.116 122.092 851.492 122.092ZM849.272 115.048H849.896V120.304H849.272V115.048ZM855.052 113.296H856.696C856.528 112.636 856.336 112.036 856.12 111.484L856.768 111.376C856.96 111.94 857.152 112.576 857.32 113.296H858.784V113.92H855.052V113.296ZM855.88 114.748C856.168 116.14 856.42 117.724 856.636 119.512L856.108 119.644C855.892 118.012 855.64 116.44 855.328 114.928L855.88 114.748ZM858.796 119.68V120.304C857.68 120.736 856.48 121.108 855.184 121.396L855.016 120.76C855.736 120.616 856.444 120.448 857.128 120.256C857.452 118.48 857.68 116.572 857.824 114.556L858.412 114.64C858.256 116.608 858.016 118.42 857.704 120.076C858.064 119.956 858.436 119.824 858.796 119.68ZM864.616 113.62V111.724H865.252V114.208H859.66V111.724H860.296V113.62H862.12V111.244H862.768V113.62H864.616ZM859.096 115.372H865.9V115.996H862.66C862.564 116.452 862.42 116.896 862.252 117.304H865.492V121.288C865.492 121.84 865.264 122.128 864.82 122.128H864.28L864.112 121.54L864.628 121.564C864.82 121.564 864.916 121.432 864.916 121.168V117.904H863.62V121.96H863.068V117.904H861.916V121.96H861.352V117.904H860.092V122.128H859.492V117.304H861.628C861.808 116.884 861.94 116.452 862.024 115.996H859.096V115.372ZM869.7 118.444H871.38V116.872H870.024V116.296H875.844V116.872H874.608V118.444H876.228V119.02H874.608V121.84H874.008V119.02H871.932C871.86 119.68 871.716 120.232 871.5 120.664C871.2 121.228 870.72 121.672 870.048 121.996L869.712 121.468C870.324 121.18 870.756 120.784 871.008 120.28C871.176 119.92 871.284 119.5 871.332 119.02H869.7V118.444ZM874.008 118.444V116.872H871.968V118.444H874.008ZM868.788 113.716V114.736H871.716V113.716H868.788ZM871.716 113.236V112.132H868.788V113.236H871.716ZM874.176 113.716V114.724H877.176V113.716H874.176ZM877.176 113.236V112.156H874.176V113.236H877.176ZM872.364 111.604V115.276H868.788V122.068H868.14V111.604H872.364ZM877.176 115.252H873.54V111.616H877.836V120.904C877.836 121.636 877.5 122.008 876.852 122.008C876.42 122.008 875.976 121.996 875.544 121.984L875.388 121.396C875.82 121.42 876.228 121.432 876.612 121.432C876.984 121.432 877.176 121.192 877.176 120.712V115.252ZM881.324 112.768C881.924 113.152 882.416 113.512 882.8 113.836C883.484 113.38 884.024 112.876 884.408 112.324H880.94V111.748H885.14V112.228C884.624 113.164 883.796 113.968 882.668 114.616H884.672V117.196H881.996L881.744 118.684H884.744C884.744 120.064 884.684 120.964 884.576 121.384C884.432 121.852 883.904 122.104 882.98 122.128C882.536 122.128 882.08 122.104 881.624 122.08L881.468 121.492C881.924 121.516 882.392 121.54 882.848 121.54C883.496 121.54 883.88 121.396 884 121.12C884.096 120.808 884.144 120.184 884.144 119.248H881.084L881.48 116.632H884.084V115.204H881.456C881.12 115.336 880.796 115.456 880.46 115.576L880.064 115.06C880.916 114.796 881.66 114.484 882.284 114.148C881.888 113.8 881.408 113.44 880.832 113.068L881.324 112.768ZM888.632 111.244L889.112 111.532C888.824 111.856 888.548 112.12 888.26 112.324C888.02 112.492 887.732 112.66 887.408 112.828C887.672 113.056 887.948 113.272 888.26 113.476C888.62 113.32 888.932 113.14 889.22 112.924C889.532 112.684 889.808 112.396 890.06 112.072L890.54 112.372C890.24 112.744 889.94 113.056 889.628 113.296C889.388 113.476 889.112 113.656 888.8 113.824C889.448 114.196 890.168 114.532 890.984 114.82L890.552 115.324C890.012 115.108 889.52 114.892 889.088 114.664V116.044C889.088 116.308 889.244 116.452 889.556 116.452H890.252V117.004H889.376C888.8 117.004 888.524 116.728 888.524 116.176V115.168H886.568C886.568 115.636 886.496 116.02 886.364 116.308C886.184 116.632 885.896 116.932 885.5 117.208L885.044 116.8C885.428 116.512 885.68 116.224 885.824 115.924C885.944 115.648 886.004 115.216 886.004 114.616H889.004C887.492 113.8 886.388 112.84 885.692 111.736L886.208 111.436C886.424 111.796 886.688 112.12 886.988 112.432C887.312 112.288 887.6 112.132 887.852 111.964C888.14 111.748 888.404 111.508 888.632 111.244ZM885.56 117.748H889.7V118.312C889.4 119.092 888.98 119.764 888.428 120.34C889.208 120.82 889.916 121.288 890.54 121.756L890.084 122.2C889.496 121.72 888.8 121.24 887.996 120.748C887.3 121.324 886.472 121.792 885.5 122.152L885.26 121.576C886.124 121.276 886.856 120.892 887.444 120.412C886.868 120.076 886.244 119.728 885.584 119.38L885.992 118.996C886.664 119.332 887.288 119.68 887.888 120.016C888.38 119.512 888.764 118.96 889.04 118.348H885.56V117.748Z" fill="white"/>
<g clip-path="url(#clip2_5244_335)">
<rect x="319.91" y="137.333" width="5" height="40" fill="#FF7B8E"/>
<rect width="314.909" height="40" transform="translate(324.91 137.333)" fill="#2C2C2C"/>
<circle cx="359.91" cy="157.333" r="3" fill="white"/>
<path d="M378.3 159.305V163.337H375.024V164.023H374.072V159.305H378.3ZM375.024 162.427H377.376V160.187H375.024V162.427ZM373.596 153.243H376.004C375.766 152.683 375.486 152.137 375.15 151.619L376.116 151.353C376.452 151.969 376.704 152.529 376.9 153.047L376.354 153.243H378.818V154.167H373.596V153.243ZM374.184 155.287H378.202V156.169H374.184V155.287ZM374.184 157.219H378.202V158.101H374.184V157.219ZM379.266 157.387H385.3V158.311C384.908 159.599 384.278 160.705 383.382 161.629C384.222 162.301 385.244 162.903 386.476 163.407L385.93 164.275C384.642 163.687 383.564 163.015 382.696 162.273C381.688 163.113 380.428 163.771 378.944 164.275L378.398 163.421C379.826 162.945 381.002 162.329 381.954 161.573C381.072 160.621 380.47 159.543 380.148 158.367H379.266V157.387ZM381.114 158.367C381.408 159.319 381.926 160.187 382.654 160.943C383.382 160.187 383.942 159.319 384.32 158.367H381.114ZM380.316 151.941H384.502V154.965C384.502 155.315 384.684 155.497 385.076 155.497H386.07V156.421H384.824C383.928 156.421 383.494 156.001 383.494 155.175V152.893H381.31V153.523C381.31 154.923 380.652 156.001 379.364 156.757L378.692 156.015C379.77 155.455 380.316 154.657 380.316 153.621V151.941ZM389.44 163.379V164.219H388.474V159.291H392.744V164.023H391.778V163.379H389.44ZM391.778 162.455V160.201H389.44V162.455H391.778ZM387.97 153.229H390.378C390.168 152.669 389.916 152.123 389.622 151.619L390.588 151.353C390.896 151.969 391.134 152.543 391.302 153.047L390.812 153.229H393.262V154.167H387.97V153.229ZM388.516 155.301H392.702V156.183H388.516V155.301ZM388.516 157.219H392.702V158.115H388.516V157.219ZM396.608 151.423H397.602V156.015H400.808V156.995H397.602V164.219H396.608V156.995H393.5V156.015H396.608V151.423ZM404.108 153.201C404.766 153.621 405.298 154.013 405.718 154.363C406.418 153.901 406.992 153.383 407.412 152.823H403.562V151.941H408.56V152.669C408.014 153.691 407.146 154.559 405.97 155.287H408.014V158.507H404.892L404.64 160.033H408.098C408.098 161.685 408.028 162.763 407.888 163.295C407.72 163.855 407.076 164.149 405.942 164.177C405.438 164.177 404.92 164.149 404.402 164.121L404.164 163.239C404.682 163.267 405.214 163.295 405.746 163.295C406.474 163.295 406.894 163.141 407.02 162.833C407.118 162.525 407.174 161.867 407.174 160.887H403.66L404.108 157.639H407.118V156.155H404.206C403.842 156.295 403.478 156.435 403.1 156.561L402.498 155.777C403.422 155.497 404.234 155.175 404.934 154.811C404.486 154.447 403.968 154.069 403.366 153.677L404.108 153.201ZM412.466 151.395L413.18 151.829C412.844 152.207 412.522 152.515 412.186 152.767C411.948 152.935 411.668 153.117 411.346 153.285C411.612 153.509 411.892 153.719 412.2 153.915C412.55 153.747 412.872 153.551 413.166 153.327C413.516 153.061 413.838 152.753 414.132 152.389L414.846 152.823C414.496 153.257 414.146 153.621 413.782 153.901C413.558 154.069 413.306 154.237 413.026 154.405C413.726 154.797 414.496 155.147 415.35 155.455L414.678 156.253C414.132 156.029 413.628 155.805 413.166 155.567V156.911C413.166 157.191 413.334 157.345 413.698 157.345H414.482V158.171H413.446C412.69 158.171 412.312 157.821 412.312 157.121V156.127H410.268C410.268 156.645 410.184 157.079 410.016 157.429C409.82 157.793 409.484 158.143 409.008 158.465L408.308 157.849C408.756 157.499 409.05 157.163 409.218 156.827C409.33 156.505 409.4 155.987 409.4 155.287H412.648C411.024 154.363 409.834 153.299 409.078 152.081L409.876 151.633C410.114 152.011 410.394 152.361 410.716 152.697C411.024 152.557 411.318 152.389 411.584 152.207C411.906 151.983 412.2 151.703 412.466 151.395ZM408.952 158.941H413.852V159.795C413.544 160.635 413.096 161.377 412.508 162.021C413.376 162.525 414.174 163.043 414.874 163.547L414.188 164.261C413.53 163.729 412.746 163.197 411.85 162.637C411.066 163.281 410.1 163.813 408.966 164.205L408.588 163.323C409.512 163.015 410.31 162.609 410.968 162.119C410.338 161.755 409.666 161.391 408.966 161.027L409.568 160.439C410.31 160.803 411.01 161.167 411.654 161.531C412.158 161.027 412.564 160.453 412.844 159.837H408.952V158.941ZM423.34 151.955H428.716V158.899H423.34V151.955ZM427.736 158.003V156.827H424.32V158.003H427.736ZM424.32 156.001H427.736V154.867H424.32V156.001ZM424.32 154.027H427.736V152.851H424.32V154.027ZM420.554 155.567V159.109H419.546V155.357C418.944 156.477 418.202 157.513 417.306 158.465L416.928 157.513C418.02 156.533 418.888 155.371 419.518 154.041H417.236V153.117H419.546V151.563H420.554V153.117H422.416V154.041H420.554V154.699C421.282 155.217 422.024 155.805 422.78 156.449L422.22 157.289C421.576 156.561 421.016 155.987 420.554 155.567ZM418.482 159.907L419.476 160.117C419.112 161.461 418.608 162.637 417.964 163.617L417.096 163.071C417.74 162.119 418.202 161.069 418.482 159.907ZM425.286 163.939H421.786C420.89 163.939 420.442 163.463 420.442 162.539V159.725H421.464V162.329C421.464 162.749 421.674 162.959 422.094 162.959H425.104C425.412 162.959 425.636 162.875 425.776 162.735C425.944 162.553 426.07 162.021 426.126 161.153L427.078 161.475C426.98 162.637 426.784 163.351 426.476 163.617C426.224 163.827 425.832 163.939 425.286 163.939ZM423.326 159.459C423.998 160.173 424.53 160.803 424.894 161.335L424.096 161.895C423.704 161.307 423.186 160.649 422.542 159.949L423.326 159.459ZM427.694 159.529C428.632 160.719 429.346 161.755 429.85 162.651L428.996 163.253C428.464 162.287 427.764 161.223 426.882 160.047L427.694 159.529Z" fill="white"/>
</g>
<path d="M364.47 203.405V206.693H361.602V207.317H360.99V203.405H364.47ZM361.602 206.105H363.87V203.981H361.602V206.105ZM360.534 198.245H364.938V198.845H360.534V198.245ZM361.062 199.973H364.374V200.549H361.062V199.973ZM361.074 201.617H364.374V202.205H361.074V201.617ZM365.37 201.773H370.458V202.373C370.11 203.501 369.534 204.485 368.742 205.301C369.486 205.937 370.41 206.489 371.514 206.957L371.166 207.509C370.002 206.981 369.042 206.393 368.298 205.721C367.41 206.465 366.318 207.065 364.998 207.509L364.638 206.969C365.922 206.537 366.978 205.961 367.818 205.265C367.002 204.413 366.462 203.453 366.174 202.397H365.37V201.773ZM366.786 202.397C367.062 203.309 367.554 204.137 368.262 204.857C368.982 204.137 369.498 203.321 369.834 202.397H366.786ZM366.366 197.093H369.738V199.745C369.738 200.057 369.906 200.213 370.242 200.213H371.178V200.813H370.098C369.426 200.813 369.09 200.489 369.09 199.853V197.705H367.002V198.353C367.002 199.529 366.45 200.441 365.346 201.089L364.914 200.609C365.874 200.093 366.366 199.361 366.366 198.425V197.093ZM362.538 196.529C362.838 197.033 363.078 197.501 363.246 197.933L362.682 198.149C362.478 197.645 362.226 197.165 361.926 196.697L362.538 196.529ZM373.994 206.741V207.485H373.37V203.381H376.934V207.317H376.31V206.741H373.994ZM376.31 206.141V203.981H373.994V206.141H376.31ZM372.926 198.245H377.39V198.857H372.926V198.245ZM373.394 199.985H376.91V200.573H373.394V199.985ZM373.394 201.617H376.91V202.217H373.394V201.617ZM380.402 196.577H381.038V200.597H383.87V201.221H381.038V207.497H380.402V201.221H377.618V200.597H380.402V196.577ZM375.026 196.529C375.29 197.033 375.494 197.513 375.638 197.945L375.086 198.149C374.894 197.645 374.666 197.165 374.402 196.697L375.026 196.529ZM386.194 196.769C387.022 197.333 387.718 197.909 388.27 198.485L387.814 198.929C387.298 198.377 386.614 197.801 385.75 197.201L386.194 196.769ZM386.038 199.601C386.818 200.177 387.478 200.765 388.006 201.353L387.55 201.797C387.07 201.245 386.41 200.657 385.582 200.033L386.038 199.601ZM387.634 202.889L388.198 203.117C387.598 204.629 386.938 206.045 386.206 207.365L385.582 207.101C386.374 205.733 387.058 204.329 387.634 202.889ZM390.718 201.221H394.054V205.073H390.718V201.221ZM393.454 204.497V201.809H391.306V204.497H393.454ZM394.75 207.425H393.214L393.034 206.789L394.534 206.813C394.966 206.813 395.182 206.633 395.182 206.273V197.705H389.482V207.461H388.846V197.081H395.818V206.417C395.818 207.089 395.458 207.425 394.75 207.425ZM390.358 199.217H394.426V199.829H390.358V199.217ZM401.382 202.193C400.542 202.913 399.546 203.465 398.418 203.849L398.13 203.333C400.134 202.709 401.646 201.509 402.666 199.745H400.722C400.614 199.841 400.506 199.925 400.41 200.021C400.806 200.297 401.154 200.573 401.442 200.861L401.07 201.221C400.806 200.933 400.458 200.633 400.038 200.321C399.702 200.573 399.33 200.813 398.934 201.041L398.574 200.597C399.654 200.021 400.506 199.313 401.13 198.449L401.718 198.593C401.55 198.833 401.382 199.049 401.214 199.241H403.326V199.673C402.846 200.609 402.246 201.401 401.526 202.061H405.498C404.79 201.449 404.214 200.753 403.77 199.961L404.238 199.697C404.634 200.345 405.114 200.933 405.678 201.437C406.146 200.957 406.566 200.393 406.95 199.769H404.334V199.217H407.634V198.053H399.258V199.517H398.634V197.465H403.254C403.11 197.153 402.942 196.865 402.774 196.601L403.458 196.481C403.626 196.769 403.77 197.105 403.914 197.465H408.258V199.517H407.658V199.685C407.19 200.501 406.674 201.209 406.122 201.809C406.89 202.421 407.79 202.913 408.834 203.285L408.498 203.801C407.382 203.369 406.434 202.829 405.642 202.181V202.625H401.382V202.193ZM399.678 203.873H407.334V204.437H403.758V207.521H403.134V204.437H399.678V203.873ZM405.594 204.941C406.722 205.637 407.682 206.321 408.45 207.017L408.018 207.437C407.322 206.777 406.374 206.081 405.186 205.337L405.594 204.941ZM401.25 204.965L401.694 205.361C400.938 206.153 400.002 206.861 398.898 207.461L398.526 206.981C399.606 206.405 400.506 205.733 401.25 204.965ZM398.694 202.265L398.526 201.809C399.102 201.617 399.666 201.365 400.194 201.053L400.326 201.485C399.822 201.785 399.282 202.049 398.694 202.265Z" fill="white"/>
<path d="M366.99 228.877C366.774 229.333 366.522 229.717 366.222 230.041L365.838 229.573C366.366 228.985 366.726 228.193 366.918 227.209L367.47 227.317C367.398 227.665 367.314 227.989 367.218 228.277H368.514V227.113H369.15V228.277H371.046V228.877H369.15V230.521H371.298V231.133H369.15V233.533H368.514V231.133H365.838V230.521H368.514V228.877H366.99ZM367.638 223.921H365.958V223.345H370.854C370.842 224.905 370.734 225.841 370.542 226.153C370.35 226.465 370.002 226.621 369.51 226.621C369.234 226.621 368.898 226.609 368.502 226.597L368.346 226.033C368.754 226.057 369.102 226.069 369.366 226.081C369.726 226.069 369.966 225.949 370.062 225.721C370.146 225.493 370.206 224.893 370.23 223.921H368.25C368.13 224.509 367.962 225.025 367.722 225.457C367.41 225.961 366.954 226.405 366.354 226.801L365.982 226.309C366.534 225.973 366.954 225.565 367.23 225.097C367.422 224.749 367.554 224.353 367.638 223.921ZM361.782 228.277V229.645C361.782 229.765 361.77 229.885 361.77 230.005H363.042V228.277H361.782ZM363.594 228.277V230.005H364.89V228.277H363.594ZM364.89 227.701V226.045H363.594V227.701H364.89ZM363.042 227.701V226.045H361.782V227.701H363.042ZM361.746 230.569C361.65 231.781 361.374 232.789 360.918 233.593L360.474 233.185C360.954 232.273 361.194 231.109 361.206 229.693V225.757C361.11 225.865 361.026 225.973 360.93 226.069L360.534 225.589C361.29 224.773 361.89 223.741 362.322 222.493L362.922 222.637C362.814 222.937 362.706 223.225 362.586 223.501H364.794V223.969C364.494 224.557 364.206 225.061 363.918 225.469H365.454V232.597C365.454 233.149 365.178 233.425 364.626 233.425H363.786L363.642 232.873C363.93 232.885 364.194 232.897 364.446 232.897C364.734 232.897 364.89 232.729 364.89 232.405V230.569H361.746ZM363.234 225.469C363.534 225.061 363.822 224.593 364.086 224.065H362.31C362.046 224.569 361.746 225.037 361.434 225.469H363.234ZM373.778 222.805C374.618 223.345 375.314 223.897 375.878 224.449L375.41 224.905C374.894 224.389 374.198 223.837 373.31 223.249L373.778 222.805ZM373.502 225.637C374.294 226.189 374.966 226.753 375.506 227.305L375.038 227.773C374.546 227.245 373.874 226.681 373.034 226.081L373.502 225.637ZM375.086 228.841L375.674 229.081C375.11 230.593 374.474 232.009 373.778 233.353L373.154 233.077C373.898 231.697 374.534 230.281 375.086 228.841ZM383.426 233.521C382.238 232.117 381.11 230.977 380.054 230.089L380.486 229.669C381.458 230.437 382.586 231.565 383.882 233.065L383.426 233.521ZM376.694 224.317H379.022V222.565H379.67V224.317H382.538V227.905H383.738V228.541H379.466C379.022 230.821 377.882 232.465 376.034 233.461L375.638 232.945C377.354 232.057 378.41 230.593 378.818 228.541H376.106V227.905H378.926C378.986 227.437 379.022 226.957 379.022 226.465V224.941H376.694V224.317ZM379.67 224.941V226.321C379.67 226.873 379.634 227.401 379.574 227.905H381.902V224.941H379.67ZM385.762 224.389H391.006C390.754 223.813 390.442 223.261 390.082 222.757L390.706 222.529C391.054 223.045 391.378 223.669 391.666 224.389H396.178V225.025H389.806C389.782 225.517 389.746 226.261 389.686 227.257C389.686 227.293 389.674 227.329 389.674 227.377H394.678C394.654 229.597 394.582 231.049 394.45 231.745C394.246 232.825 393.67 233.377 392.722 233.413C392.338 233.413 391.87 233.401 391.33 233.377L391.138 232.777C391.738 232.801 392.242 232.825 392.65 232.825C393.346 232.789 393.766 232.297 393.91 231.361C393.982 230.785 394.018 229.669 394.018 228.001H389.602C389.458 228.997 389.17 229.909 388.738 230.737C388.138 231.745 387.31 232.669 386.278 233.521L385.798 233.065C387.07 231.985 387.934 230.977 388.378 230.041C388.786 229.105 389.014 228.061 389.086 226.909C389.122 226.057 389.146 225.433 389.158 225.025H385.762V224.389ZM402.606 224.473L403.206 224.653C402.966 224.989 402.738 225.289 402.522 225.565H408.174V226.105H406.122C405.654 226.741 405.15 227.245 404.598 227.617C405.702 227.905 406.842 228.241 408.006 228.637L407.634 229.141C406.41 228.697 405.174 228.313 403.95 227.977C402.678 228.589 401.01 228.901 398.946 228.925L398.586 228.397C400.494 228.397 402.006 228.181 403.122 227.761C402.234 227.533 401.358 227.341 400.482 227.173C400.794 226.813 401.094 226.453 401.382 226.105H398.67V225.565H401.802C402.09 225.193 402.354 224.833 402.606 224.473ZM403.854 227.425C404.514 227.041 405.042 226.609 405.438 226.105H402.102C401.862 226.405 401.634 226.669 401.43 226.897C402.222 227.041 403.026 227.209 403.854 227.425ZM408.186 223.573V225.157H407.574V224.125H399.246V225.157H398.634V223.573H403.182C403.014 223.225 402.846 222.913 402.654 222.637L403.314 222.517C403.494 222.829 403.662 223.177 403.818 223.573H408.186ZM398.298 229.765H403.11V228.769H403.758V229.765H408.534V230.341H403.758V233.521H403.11V230.341H398.298V229.765ZM405.45 230.857C406.566 231.505 407.502 232.165 408.258 232.825L407.802 233.281C407.13 232.633 406.206 231.961 405.054 231.241L405.45 230.857ZM401.37 230.857L401.802 231.253C401.01 232.021 400.026 232.681 398.85 233.257L398.454 232.741C399.606 232.213 400.578 231.577 401.37 230.857Z" fill="white"/>
<g clip-path="url(#clip3_5244_335)">
<rect y="61.333" width="5" height="40" fill="#FF7B8E"/>
<rect width="316" height="40" transform="translate(5 61.333)" fill="#2C2C2C"/>
<circle cx="40" cy="81.333" r="3" fill="white"/>
<path d="M63.808 77.047H61.624V80.925H63.808V77.047ZM63.808 81.891H61.61C61.498 84.775 60.672 86.889 59.104 88.247L58.362 87.575C59.79 86.371 60.546 84.481 60.63 81.891H59.104V80.925H60.644V77.047H59.412V76.095H66.062V77.047H64.774V80.925H66.44V81.891H64.774V88.205H63.808V81.891ZM55.632 77.131H53.952V76.151H58.796V77.131H56.584C56.388 78.251 56.094 79.315 55.716 80.295H58.306V86.637H55.898V87.743H54.974V81.891C54.68 82.423 54.358 82.927 54.008 83.403L53.476 82.535C54.568 80.967 55.282 79.161 55.632 77.131ZM55.898 85.755H57.368V81.191H55.898V85.755ZM75.466 77.649H69.894V79.483H68.872V76.725H73.968C73.772 76.277 73.548 75.871 73.31 75.507L74.416 75.339C74.626 75.745 74.836 76.207 75.032 76.725H80.128V79.483H79.106V77.649H76.432V79.749C76.432 80.057 76.586 80.225 76.922 80.225H79.876V81.079H76.488C75.802 81.079 75.466 80.771 75.466 80.169V77.649ZM73.058 77.747L73.814 78.195C73.086 79.791 71.658 80.827 69.516 81.303L69.04 80.491C71.056 80.071 72.386 79.161 73.058 77.747ZM73.002 80.547H74.024V81.807L73.996 82.367H77.65V86.735C77.65 87.015 77.776 87.155 78.042 87.155H79.106C79.47 87.155 79.68 86.959 79.75 86.581C79.806 86.021 79.848 85.419 79.848 84.803L80.786 85.083C80.702 86.231 80.618 86.931 80.534 87.197C80.38 87.799 79.904 88.107 79.106 88.107H77.888C77.062 88.107 76.656 87.701 76.656 86.903V83.319H73.87C73.674 84.355 73.296 85.209 72.736 85.909C71.952 86.861 70.664 87.617 68.872 88.149L68.326 87.281C70.062 86.763 71.28 86.091 71.98 85.251C72.372 84.691 72.652 84.047 72.82 83.319H69.278V82.367H72.974L73.002 81.807V80.547ZM83.232 75.955H87.362V76.753C86.956 78.027 86.466 79.357 85.906 80.729C86.774 81.989 87.25 83.123 87.32 84.145C87.306 84.733 87.152 85.153 86.858 85.433C86.466 85.741 85.766 85.909 84.758 85.923L84.422 84.901C84.646 84.929 84.828 84.957 84.968 84.957C85.514 84.929 85.878 84.859 86.06 84.747C86.242 84.635 86.34 84.425 86.34 84.145C86.34 83.165 85.85 82.087 84.884 80.883C85.514 79.413 86.004 78.083 86.354 76.907H84.184V88.233H83.232V75.955ZM88.93 77.901V80.057C89.714 79.861 90.4 79.651 90.988 79.399L91.128 80.197C90.232 80.575 89.154 80.911 87.894 81.191L87.628 80.323C87.88 80.239 88.02 80.099 88.02 79.889V75.465H88.93V77.019H91.016V77.901H88.93ZM94.614 82.045V88.233H93.718V87.631H89.364V88.233H88.468V82.045H90.414C90.554 81.653 90.652 81.247 90.708 80.827L91.702 80.953C91.618 81.331 91.506 81.695 91.366 82.045H94.614ZM89.364 86.791H93.718V85.251H89.364V86.791ZM89.364 84.425H93.718V82.885H89.364V84.425ZM94.04 80.995H92.752C92.038 80.995 91.688 80.631 91.688 79.903V75.437H92.626V77.033L95.16 76.809V77.691L92.626 77.915V79.707C92.626 79.973 92.766 80.113 93.06 80.113H93.872C94.082 80.113 94.236 80.057 94.32 79.945C94.432 79.791 94.516 79.357 94.558 78.657L95.426 78.937C95.342 79.917 95.202 80.505 94.978 80.729C94.782 80.897 94.46 80.995 94.04 80.995ZM99.202 79.819V81.555H102.324V82.465H99.202V84.649C100.616 84.509 101.82 84.327 102.814 84.075V85.013C101.918 85.237 100.714 85.433 99.202 85.615V88.149H98.222V85.727L97.27 85.811L97.116 84.803C97.494 84.775 97.858 84.761 98.222 84.733V76.557C99.93 76.305 101.316 75.941 102.408 75.451L102.912 76.305C101.82 76.739 100.574 77.075 99.202 77.299V78.895H102.324V79.819H99.202ZM103.108 81.415H108.932V82.297C108.54 83.613 107.924 84.733 107.056 85.657C107.84 86.315 108.82 86.889 109.996 87.393L109.45 88.261C108.218 87.687 107.21 87.029 106.398 86.301C105.418 87.141 104.228 87.799 102.814 88.289L102.254 87.435C103.626 86.959 104.76 86.329 105.656 85.573C104.788 84.621 104.214 83.543 103.906 82.339H103.108V81.415ZM104.83 82.339C105.11 83.305 105.6 84.173 106.314 84.943C107.028 84.187 107.56 83.319 107.924 82.339H104.83ZM104.172 75.927H108.106V78.909C108.106 79.287 108.288 79.483 108.652 79.483H109.814V80.393H108.4C107.546 80.393 107.126 79.959 107.126 79.119V76.865H105.166V77.719C105.166 79.063 104.578 80.113 103.402 80.841L102.73 80.085C103.682 79.553 104.172 78.797 104.172 77.817V75.927Z" fill="white"/>
</g>
<path d="M42.256 128.305H41.44V125.317H45.172V128.305H44.296V130.465C44.824 130.213 45.316 129.949 45.772 129.673L45.916 130.177C45.244 130.609 44.488 130.981 43.648 131.293L43.48 130.765C43.624 130.669 43.708 130.537 43.708 130.357V128.305H42.832C42.772 129.169 42.616 129.817 42.376 130.249C42.088 130.741 41.608 131.161 40.948 131.521L40.564 131.041C41.164 130.729 41.584 130.381 41.836 129.973C42.052 129.613 42.196 129.049 42.256 128.305ZM41.824 122.221H40.996V121.645H43C42.88 121.285 42.748 120.949 42.604 120.661L43.24 120.553C43.36 120.877 43.468 121.237 43.576 121.645H45.388V122.221H44.764L44.404 123.829H45.58V124.405H40.768V123.829H42.124L41.824 122.221ZM42.724 123.829H43.804L44.164 122.221H42.424L42.724 123.829ZM44.56 127.753V125.869H42.04V127.753H44.56ZM50.464 131.281H49.708C49.204 131.281 48.952 131.017 48.952 130.501V128.305H48.064C48.004 129.157 47.86 129.793 47.632 130.225C47.356 130.705 46.9 131.113 46.276 131.461L45.892 130.981C46.444 130.693 46.852 130.345 47.092 129.937C47.308 129.577 47.44 129.025 47.5 128.305H46.624V125.317H50.452V128.305H49.528V130.381C49.528 130.597 49.636 130.705 49.876 130.705H50.356C50.548 130.705 50.68 130.645 50.752 130.537C50.86 130.393 50.932 129.973 50.968 129.277L51.484 129.445C51.424 130.297 51.316 130.825 51.148 131.041C51.004 131.197 50.776 131.281 50.464 131.281ZM47.032 122.221H46.168V121.645H48.256C48.136 121.285 47.992 120.949 47.836 120.649L48.472 120.541C48.604 120.865 48.724 121.237 48.844 121.645H50.836V122.221H50.056L49.684 123.829H51.184V124.405H45.94V123.829H47.38L47.032 122.221ZM47.968 123.829H49.096L49.468 122.221H47.62L47.968 123.829ZM49.84 127.753V125.869H47.236V127.753H49.84ZM55.248 121.129H61.728V124.861H55.248V121.129ZM61.068 124.237V121.753H55.908V124.237H61.068ZM57.732 126.277V131.317H57.096V130.681H54.324V131.317H53.688V126.277H57.732ZM54.324 130.069H57.096V126.889H54.324V130.069ZM63.312 126.277V131.317H62.664V130.681H59.772V131.317H59.136V126.277H63.312ZM59.772 130.069H62.664V126.889H59.772V130.069ZM68.96 121.081L69.572 121.321C68.696 123.253 67.544 124.729 66.104 125.737L65.6 125.293C67.076 124.249 68.192 122.845 68.96 121.081ZM70.88 120.961H73.088C73.724 122.713 74.84 124.129 76.448 125.197L76.028 125.773C74.516 124.729 73.388 123.337 72.644 121.597H70.88V120.961ZM69.932 126.037H67.34V125.401H74.396C74.36 126.865 74.288 128.053 74.18 128.965C74.06 129.853 73.868 130.489 73.604 130.849C73.34 131.197 72.908 131.389 72.308 131.413H70.112L69.944 130.777C70.664 130.789 71.336 130.801 71.984 130.801C72.656 130.801 73.1 130.501 73.316 129.925C73.532 129.313 73.676 128.017 73.748 126.037H70.58C70.292 127.393 69.872 128.461 69.344 129.253C68.72 130.093 67.796 130.861 66.548 131.533L66.14 131.005C67.292 130.393 68.144 129.721 68.72 128.989C69.272 128.245 69.668 127.261 69.932 126.037ZM80.704 124.993V131.473H80.056V125.005C79.624 126.349 79.036 127.549 78.292 128.605L78.016 127.909C78.976 126.649 79.648 125.221 80.032 123.613H78.244V122.977H80.056V120.553H80.704V122.977H82.408V123.613H80.704V124.309C81.304 124.933 81.904 125.653 82.504 126.445L82.144 126.973C81.592 126.157 81.112 125.497 80.704 124.993ZM88.18 120.625L88.504 121.213C87.124 121.729 85.576 122.029 83.86 122.101V124.465H88.816V125.101H86.944V131.485H86.284V125.101H83.86V125.341C83.788 127.885 83.188 129.901 82.06 131.413L81.592 130.921C82.6 129.577 83.152 127.717 83.236 125.341V121.549C85.06 121.501 86.704 121.201 88.18 120.625Z" fill="white"/>
<path d="M42.436 150.609V152.721C42.436 152.781 42.424 152.841 42.424 152.913H45.724V150.609H42.436ZM42.388 153.525C42.268 155.085 41.812 156.369 41.032 157.377L40.552 156.933C41.344 155.841 41.752 154.449 41.776 152.769V147.081H50.536V156.057C50.536 156.837 50.14 157.233 49.36 157.233H47.98L47.812 156.597C48.292 156.621 48.736 156.633 49.144 156.633C49.636 156.633 49.888 156.357 49.888 155.817V153.525H46.372V157.101H45.724V153.525H42.388ZM49.888 152.913V150.609H46.372V152.913H49.888ZM49.888 150.009V147.717H46.372V150.009H49.888ZM45.724 147.717H42.436V150.009H45.724V147.717ZM62.508 146.709L62.832 147.297C60.54 147.753 57.972 148.017 55.116 148.065V149.673H62.928V153.273H54.96C54.72 154.953 54.228 156.357 53.496 157.473L53.028 156.981C53.94 155.613 54.432 153.705 54.504 151.269V147.501C57.456 147.465 60.12 147.201 62.508 146.709ZM55.032 152.649H62.292V150.297H55.116V151.269C55.104 151.749 55.08 152.217 55.032 152.649ZM69.356 153.405V156.681H66.62V157.317H66.02V153.405H69.356ZM66.62 156.117H68.756V153.969H66.62V156.117ZM70.388 148.509H76.412V149.121H72.524V149.973C72.512 150.465 72.488 150.933 72.464 151.389H75.836C75.812 153.621 75.74 155.085 75.608 155.793C75.404 156.777 74.864 157.281 73.988 157.329C73.652 157.329 73.244 157.317 72.788 157.293L72.608 156.717C73.112 156.741 73.556 156.765 73.916 156.765C74.564 156.729 74.948 156.285 75.068 155.433C75.14 154.845 75.176 153.693 75.188 151.989H72.404C72.116 154.377 71.372 156.189 70.148 157.437L69.656 157.017C71.12 155.553 71.864 153.201 71.888 149.973V149.121H70.388V148.509ZM65.54 148.245H69.8V148.845H65.54V148.245ZM66.116 149.973H69.26V150.549H66.116V149.973ZM66.116 151.617H69.26V152.193H66.116V151.617ZM73.124 146.493C73.46 147.117 73.736 147.705 73.928 148.233L73.34 148.449C73.1 147.837 72.824 147.237 72.5 146.661L73.124 146.493ZM67.436 146.529C67.736 147.033 67.964 147.501 68.12 147.933L67.568 148.149C67.364 147.645 67.112 147.165 66.812 146.697L67.436 146.529ZM88.012 146.997L88.564 147.201C88.252 148.065 87.844 148.809 87.364 149.457L86.836 149.157C87.316 148.545 87.7 147.825 88.012 146.997ZM87.976 152.433L88.528 152.637C88.24 153.429 87.868 154.137 87.412 154.749L86.896 154.461C87.328 153.885 87.688 153.201 87.976 152.433ZM82.924 147.105C83.332 147.741 83.692 148.425 84.004 149.145L83.476 149.361C83.14 148.593 82.768 147.909 82.372 147.321L82.924 147.105ZM82.96 152.481C83.344 153.093 83.68 153.741 83.956 154.437L83.428 154.665C83.116 153.921 82.792 153.261 82.432 152.697L82.96 152.481ZM85.396 149.877C85.276 150.117 85.132 150.333 84.988 150.537C84.472 151.161 83.62 151.665 82.444 152.025L82.096 151.485C83.224 151.149 84.04 150.693 84.52 150.117C84.952 149.517 85.168 148.749 85.192 147.801V146.565H85.816V147.801C85.804 148.377 85.732 148.905 85.6 149.361C86.74 149.949 87.784 150.645 88.744 151.449L88.384 151.977C87.4 151.101 86.404 150.405 85.396 149.877ZM85.204 151.365H85.852V152.337L85.816 152.937C85.984 154.905 87.064 156.249 89.044 156.969L88.66 157.521C87.052 156.861 86.02 155.817 85.564 154.377C85.408 154.881 85.204 155.313 84.94 155.697C84.376 156.477 83.452 157.089 82.168 157.533L81.808 156.993C83.056 156.573 83.944 155.997 84.472 155.253C84.94 154.509 85.18 153.537 85.204 152.337V151.365ZM78.1 148.233H82.06V148.833H78.1V148.233ZM78.52 149.973H81.7V150.537H78.52V149.973ZM78.52 151.641H81.7V152.217H78.52V151.641ZM81.676 153.381V156.621H79.168V157.317H78.568V153.381H81.676ZM79.168 156.057H81.076V153.945H79.168V156.057ZM80.008 146.565C80.296 147.069 80.524 147.525 80.668 147.957L80.104 148.161C79.912 147.669 79.684 147.189 79.396 146.733L80.008 146.565Z" fill="white"/>
<defs>
<clipPath id="clip0_5244_335">
<rect width="320.13" height="40" fill="white" transform="translate(479.027 213.417)"/>
</clipPath>
<clipPath id="clip1_5244_335">
<rect width="375.425" height="40" fill="white" transform="translate(639.092 291.333)"/>
</clipPath>
<clipPath id="clip2_5244_335">
<rect width="319.909" height="40" fill="white" transform="translate(319.91 137.333)"/>
</clipPath>
<clipPath id="clip3_5244_335">
<rect width="319.909" height="40" fill="white" transform="translate(0 61.333)"/>
</clipPath>
</defs>
</svg>
