<svg width="32" height="33" viewBox="0 0 32 33" fill="none" xmlns="http://www.w3.org/2000/svg">
<mask id="mask0_5158_148" style="mask-type:alpha" maskUnits="userSpaceOnUse" x="0" y="0" width="32" height="33">
<rect y="0.650391" width="32" height="32" fill="#D9D9D9"/>
</mask>
<g mask="url(#mask0_5158_148)">
<path d="M13.334 18.1608L20.8993 10.5955C21.2442 10.2506 21.6557 10.0781 22.134 10.0781C22.6122 10.0781 23.0237 10.2506 23.3686 10.5955C23.7137 10.9403 23.8863 11.3551 23.8863 11.8398C23.8863 12.3242 23.7137 12.7389 23.3686 13.0838L14.5876 21.8838C14.233 22.2385 13.8151 22.4158 13.334 22.4158C12.8529 22.4158 12.435 22.2385 12.0803 21.8838L8.61363 18.4171C8.26875 18.0722 8.09941 17.6576 8.10563 17.1731C8.11186 16.6885 8.28752 16.2737 8.63263 15.9288C8.97752 15.5839 9.39219 15.4115 9.87663 15.4115C10.3613 15.4115 10.7761 15.5839 11.121 15.9288L13.334 18.1608Z" fill="#FFA92D"/>
</g>
</svg>
