<svg width="24" height="25" viewBox="0 0 24 25" fill="none" xmlns="http://www.w3.org/2000/svg">
<path d="M9.80715 13.756L16.0394 7.52383C16.3235 7.23971 16.6625 7.09766 17.0565 7.09766C17.4504 7.09766 17.7894 7.23971 18.0736 7.52383C18.3579 7.80794 18.5 8.14963 18.5 8.54889C18.5 8.94797 18.3579 9.28956 18.0736 9.57368L10.8399 16.823C10.5477 17.1151 10.2035 17.2612 9.80715 17.2612C9.41082 17.2612 9.06657 17.1151 8.7744 16.823L5.91862 13.9672C5.63451 13.6831 5.49501 13.3415 5.50014 12.9424C5.50526 12.5431 5.64997 12.2015 5.93427 11.9173C6.21838 11.6332 6.55998 11.4912 6.95906 11.4912C7.35832 11.4912 7.70001 11.6332 7.98412 11.9173L9.80715 13.756Z" fill="currentColor"/>
</svg>
