<svg width="24" height="25" viewBox="0 0 24 25" fill="none" xmlns="http://www.w3.org/2000/svg">
<rect y="0.113281" width="24" height="24" rx="12" fill="#FFA92D"/>
<path d="M9.80715 13.6645L16.0394 7.53259C16.3235 7.25305 16.6625 7.11328 17.0565 7.11328C17.4504 7.11328 17.7894 7.25305 18.0736 7.53259C18.3579 7.81214 18.5 8.14832 18.5 8.54116C18.5 8.93381 18.3579 9.26991 18.0736 9.54945L10.8399 16.6821C10.5477 16.9695 10.2035 17.1133 9.80715 17.1133C9.41082 17.1133 9.06657 16.9695 8.7744 16.6821L5.91862 13.8723C5.63451 13.5927 5.49501 13.2566 5.50014 12.864C5.50526 12.4711 5.64997 12.1349 5.93427 11.8554C6.21838 11.5759 6.55998 11.4361 6.95906 11.4361C7.35832 11.4361 7.70001 11.5759 7.98412 11.8554L9.80715 13.6645Z" fill="white"/>
</svg>
