<svg width="16" height="16" viewBox="0 0 16 16" fill="none" xmlns="http://www.w3.org/2000/svg">
<path d="M1.6 14.3996C1.16 14.3996 0.783333 14.2429 0.47 13.9296C0.156667 13.6163 0 13.2396 0 12.7996V3.19961C0 2.75961 0.156667 2.38294 0.47 2.06961C0.783333 1.75628 1.16 1.59961 1.6 1.59961H14.4C14.84 1.59961 15.2167 1.75628 15.53 2.06961C15.8433 2.38294 16 2.75961 16 3.19961V12.7996C16 13.2396 15.8433 13.6163 15.53 13.9296C15.2167 14.2429 14.84 14.3996 14.4 14.3996H1.6ZM14.4 4.79961L8.42 8.53961C8.35333 8.57961 8.28333 8.60961 8.21 8.62961C8.13667 8.64961 8.06667 8.65961 8 8.65961C7.93333 8.65961 7.86333 8.64961 7.79 8.62961C7.71667 8.60961 7.64667 8.57961 7.58 8.53961L1.6 4.79961V12.7996H14.4V4.79961ZM8 7.19961L14.4 3.19961H1.6L8 7.19961ZM1.6 4.99961V3.81961V3.83961V3.82961V4.99961Z" fill="currentColor"/>
</svg>
