<svg width="16" height="16" viewBox="0 0 16 16" fill="none" xmlns="http://www.w3.org/2000/svg">
<mask id="mask0_6094_474" style="mask-type:alpha" maskUnits="userSpaceOnUse" x="0" y="0" width="16" height="16">
<rect width="16" height="16" fill="#D9D9D9"/>
</mask>
<g mask="url(#mask0_6094_474)">
<path d="M7.33398 11.333H8.66732V7.33301H7.33398V11.333ZM8.00065 5.99967C8.18954 5.99967 8.34787 5.93579 8.47565 5.80801C8.60343 5.68023 8.66732 5.5219 8.66732 5.33301C8.66732 5.14412 8.60343 4.98579 8.47565 4.85801C8.34787 4.73023 8.18954 4.66634 8.00065 4.66634C7.81176 4.66634 7.65343 4.73023 7.52565 4.85801C7.39787 4.98579 7.33398 5.14412 7.33398 5.33301C7.33398 5.5219 7.39787 5.68023 7.52565 5.80801C7.65343 5.93579 7.81176 5.99967 8.00065 5.99967ZM8.00065 14.6663C7.07843 14.6663 6.21176 14.4913 5.40065 14.1413C4.58954 13.7913 3.88398 13.3163 3.28398 12.7163C2.68398 12.1163 2.20898 11.4108 1.85898 10.5997C1.50898 9.78856 1.33398 8.9219 1.33398 7.99967C1.33398 7.07745 1.50898 6.21079 1.85898 5.39967C2.20898 4.58856 2.68398 3.88301 3.28398 3.28301C3.88398 2.68301 4.58954 2.20801 5.40065 1.85801C6.21176 1.50801 7.07843 1.33301 8.00065 1.33301C8.92287 1.33301 9.78954 1.50801 10.6007 1.85801C11.4118 2.20801 12.1173 2.68301 12.7173 3.28301C13.3173 3.88301 13.7923 4.58856 14.1423 5.39967C14.4923 6.21079 14.6673 7.07745 14.6673 7.99967C14.6673 8.9219 14.4923 9.78856 14.1423 10.5997C13.7923 11.4108 13.3173 12.1163 12.7173 12.7163C12.1173 13.3163 11.4118 13.7913 10.6007 14.1413C9.78954 14.4913 8.92287 14.6663 8.00065 14.6663ZM8.00065 13.333C9.48954 13.333 10.7507 12.8163 11.784 11.783C12.8173 10.7497 13.334 9.48856 13.334 7.99967C13.334 6.51079 12.8173 5.24967 11.784 4.21634C10.7507 3.18301 9.48954 2.66634 8.00065 2.66634C6.51176 2.66634 5.25065 3.18301 4.21732 4.21634C3.18398 5.24967 2.66732 6.51079 2.66732 7.99967C2.66732 9.48856 3.18398 10.7497 4.21732 11.783C5.25065 12.8163 6.51176 13.333 8.00065 13.333Z" fill="#F5F5F5" fill-opacity="0.7"/>
</g>
</svg>
