<svg width="45" height="15" viewBox="0 0 45 15" fill="none" xmlns="http://www.w3.org/2000/svg">
<path d="M36.125 12.832H44.125V14.24H36.125V12.832Z" fill="white"/>
<path d="M30.9428 0.351562C32.0948 0.351562 33.0068 0.623563 33.7108 1.18356C34.3828 1.74356 34.7348 2.51156 34.7348 3.48756C34.7348 4.73556 34.0948 5.58356 32.8468 5.99956C33.5188 6.20756 34.0308 6.52756 34.3828 6.94356C34.7668 7.37556 34.9588 7.93556 34.9588 8.60756C34.9588 9.66356 34.5908 10.5276 33.8708 11.1996C33.1028 11.8716 32.0947 12.2236 30.8787 12.2236C29.7107 12.2236 28.7667 11.9196 28.0627 11.3276C27.2627 10.6556 26.8148 9.67956 26.7188 8.39956H28.4788C28.5108 9.16756 28.7508 9.75956 29.2308 10.1756C29.6468 10.5596 30.1908 10.7516 30.8628 10.7516C31.5988 10.7516 32.1908 10.5276 32.6388 10.1116C33.0228 9.72756 33.2308 9.26356 33.2308 8.68756C33.2308 8.01556 33.0228 7.51956 32.6068 7.19956C32.2228 6.87956 31.6468 6.71956 30.8948 6.71956H30.0627V5.40756H30.8787C31.5827 5.40756 32.1107 5.24756 32.4627 4.94356C32.8147 4.63956 33.0068 4.19156 33.0068 3.61556C33.0068 3.03956 32.8307 2.60756 32.5107 2.30356C32.1587 1.98356 31.6308 1.83956 30.9588 1.83956C30.2708 1.83956 29.7268 2.01556 29.3428 2.36756C28.9588 2.71956 28.7188 3.24756 28.6548 3.95156H26.9428C27.0388 2.81556 27.4548 1.93556 28.2068 1.29556C28.9108 0.655562 29.8228 0.351562 30.9428 0.351562Z" fill="white"/>
<path d="M23.3481 9.71191C23.6681 9.71191 23.9561 9.82391 24.1961 10.0479C24.4201 10.2719 24.5481 10.5599 24.5481 10.9119C24.5481 11.2319 24.4201 11.5199 24.1961 11.7599C23.9561 11.9679 23.6681 12.0799 23.3481 12.0799C22.9961 12.0799 22.7241 11.9679 22.5161 11.7599C22.2761 11.5199 22.1641 11.2319 22.1641 10.9119C22.1641 10.5599 22.2761 10.2719 22.5161 10.0479C22.7241 9.82391 22.9961 9.71191 23.3481 9.71191Z" fill="white"/>
<path d="M12.3984 3.72754H14.0944V8.76754C14.0944 9.47154 14.2384 9.98354 14.5424 10.3035C14.8304 10.6235 15.3104 10.7995 15.9664 10.7995C16.4144 10.7995 16.8144 10.6075 17.1984 10.2555C17.5824 9.88754 17.8544 9.39154 17.9984 8.78354V3.72754H19.6944V11.9995H17.9984V10.8795C17.2944 11.7755 16.4304 12.2235 15.3904 12.2235C13.3904 12.2235 12.3984 11.1035 12.3984 8.87954V3.72754Z" fill="white"/>
<path d="M0.0800781 0.575195H2.17608L5.47208 5.8072L8.76808 0.575195H10.8641L6.33608 7.4392V11.9992H4.60808V7.4392L0.0800781 0.575195Z" fill="white"/>
</svg>
