<svg width="18" height="18" viewBox="0 0 18 18" fill="none" xmlns="http://www.w3.org/2000/svg">
<g clip-path="url(#clip0_6452_57)">
<path d="M6.92212 1.33554C4.42275 1.49029 2.29784 1.63469 2.19779 1.65339C1.91734 1.69993 1.66048 1.8867 1.53777 2.1351L1.43026 2.35368L1.37736 7.5932L1.32921 12.8328L1.48513 13.1594C1.57298 13.3402 2.17218 14.1868 2.82603 15.0586C4.1192 16.7775 4.21281 16.8737 4.71158 16.9296C4.85637 16.9462 5.94573 16.9094 7.12534 16.8538C8.31006 16.7932 10.2091 16.701 11.3489 16.6499C16.2169 16.4131 15.9668 16.4351 16.2492 16.1987C16.6023 15.9133 16.5716 16.3874 16.6631 10.0196C16.7381 4.62048 16.7373 4.26603 16.6594 4.1002C16.5668 3.91428 16.3985 3.78242 14.1996 2.19732C12.7288 1.14064 12.6246 1.08442 11.9602 1.06632C11.6858 1.05323 9.4165 1.17568 6.92212 1.33554ZM12.5276 2.08719C12.7362 2.18447 14.2568 3.27176 14.4789 3.47945C14.5382 3.54018 14.5575 3.59033 14.5271 3.61997C14.4566 3.67915 4.95995 4.12947 4.68595 4.08605C4.56143 4.06465 4.37755 3.98757 4.27353 3.91619C3.84246 3.61627 2.77445 2.71923 2.77522 2.65448C2.77727 2.48454 2.74221 2.48412 6.97643 2.23051C7.78632 2.18528 9.116 2.10145 9.92601 2.04611C11.6804 1.92726 12.2049 1.93863 12.5276 2.08719ZM15.5115 4.85561C15.5804 4.92625 15.6388 5.06185 15.6572 5.1919C15.6706 5.3121 15.6538 7.54975 15.6123 10.1567C15.5437 14.6316 15.5352 14.9113 15.4487 15.0401C15.3978 15.1194 15.297 15.2032 15.2215 15.2273C15.0111 15.3097 5.06024 15.7546 4.85629 15.6921C4.76184 15.666 4.63266 15.5845 4.5637 15.5139L4.44524 15.3826L4.48841 10.5578C4.51902 7.17135 4.54714 5.67305 4.58888 5.53866C4.62009 5.43921 4.69639 5.32009 4.76193 5.28107C4.85267 5.22214 5.44266 5.17932 7.47189 5.084C8.89641 5.02121 11.1005 4.91282 12.3651 4.85316C15.3733 4.70421 15.3636 4.7041 15.5115 4.85561Z" fill="white"/>
<path d="M12.8189 6.47654C12.279 6.50511 11.7989 6.54925 11.7436 6.5786C11.5777 6.66158 11.4762 6.8003 11.4544 6.95989C11.4376 7.12459 11.4872 7.14508 12.0256 7.21663L12.2599 7.24946L12.2343 9.38212C12.219 10.6506 12.189 11.4896 12.1644 11.4643C12.1398 11.434 11.4437 10.3468 10.6149 9.04801C9.78647 7.74443 9.09996 6.67191 9.08997 6.66199C9.07998 6.65176 8.53035 6.67517 7.87062 6.71241C7.06073 6.75763 6.61573 6.8022 6.52511 6.85102C6.37923 6.92413 6.21622 7.1869 6.21412 7.36188C6.21286 7.46675 6.40203 7.52399 6.80158 7.52879L7.01131 7.53131L6.93756 13.6646L6.59676 13.7654C6.33111 13.8421 6.24049 13.8909 6.19444 13.9902C6.11248 14.1592 6.11568 14.314 6.19559 14.315C6.22559 14.3153 6.79045 14.287 7.44001 14.2551C8.72455 14.1956 8.86963 14.1623 9.00768 13.8992C9.04876 13.8198 9.08452 13.7353 9.08482 13.7103C9.08506 13.6904 8.91111 13.6283 8.70167 13.5759C8.48749 13.5234 8.27331 13.4709 8.22858 13.4602C8.14391 13.4343 8.14072 13.2794 8.16655 11.1316L8.19424 8.82904L9.6839 11.2298C11.247 13.7461 11.4436 14.0334 11.6868 14.1611C11.9897 14.3246 12.7652 14.224 13.1577 13.9741L13.2786 13.9007L13.3297 10.4946L13.3856 7.08357L13.6509 7.03684C13.9662 6.98061 14.1129 6.8377 14.1159 6.58785C14.1178 6.42803 14.1078 6.4178 13.9581 6.42106C13.8686 6.42409 13.3537 6.44791 12.8189 6.47654Z" fill="white"/>
</g>
<defs>
<clipPath id="clip0_6452_57">
<rect width="16" height="16" fill="white" transform="translate(1.09766 0.904297) rotate(0.688933)"/>
</clipPath>
</defs>
</svg>
