<svg width="496" height="595" viewBox="0 0 496 595" fill="none" xmlns="http://www.w3.org/2000/svg">
<rect x="118.44" y="31.6133" width="99.357" height="28.9039" rx="3.61298" fill="#2C2C2C"/>
<path d="M157.638 48.4264L157.465 47.9169C157.595 47.8736 157.671 47.7977 157.671 47.6893V41.7279H158.256V47.7327C158.863 47.5592 159.459 47.3533 160.044 47.1149V40.7849H160.63V50.5725H160.044V47.6893C159.275 47.9711 158.473 48.2096 157.638 48.4264ZM162.852 43.0286C162.461 44.0474 161.974 44.8929 161.367 45.5649L160.998 45.1313C161.919 44.0258 162.537 42.5517 162.862 40.6874L163.448 40.7957C163.339 41.3919 163.198 41.9447 163.047 42.4541H166.764V43.0286H165.811C165.746 44.8712 165.29 46.432 164.456 47.7327C165.149 48.6648 165.995 49.4886 166.981 50.204L166.58 50.6809C165.594 49.9655 164.759 49.1526 164.087 48.2529C163.372 49.1851 162.429 49.9655 161.28 50.5942L160.944 50.063C162.125 49.4561 163.057 48.6973 163.74 47.776C163.123 46.8872 162.635 45.9117 162.277 44.8495L162.754 44.5785C163.09 45.5432 163.534 46.432 164.098 47.2449C164.813 46.0526 165.204 44.6436 165.247 43.0286H162.852ZM168.918 42.9093H169.438V44.817H170.598V43.3646H175.486V42.9202H175.009V42.0531H173.633V41.522H175.009V40.7524H175.562V41.522H177.979V42.0531H175.562V42.6926H176.006C176.006 42.9202 176.006 43.1478 176.017 43.3646H177.025C176.906 43.0394 176.776 42.7359 176.635 42.4649L177.144 42.3782C177.275 42.6709 177.394 42.9961 177.513 43.3646H178.12V43.874H176.028C176.05 45.2939 176.136 46.3995 176.277 47.2016C176.31 47.4075 176.353 47.6026 176.397 47.7977C176.743 46.9414 176.971 45.9117 177.101 44.7086L177.611 44.817C177.437 46.3561 177.101 47.6134 176.603 48.5781C176.678 48.8491 176.765 49.0875 176.863 49.2935C177.079 49.727 177.253 49.9547 177.394 49.9547C177.546 49.933 177.686 49.4019 177.806 48.3613L178.25 48.5998C178.077 49.9221 177.817 50.5833 177.491 50.5833C177.22 50.5833 176.928 50.3123 176.603 49.7921C176.483 49.5861 176.375 49.3585 176.288 49.1201C175.876 49.727 175.389 50.204 174.825 50.54L174.543 50.0956C175.161 49.727 175.67 49.1851 176.061 48.4806C175.963 48.1446 175.876 47.776 175.8 47.3858C175.627 46.4754 175.529 45.3047 175.497 43.874H171.129V47.1907C171.107 48.6215 170.836 49.7704 170.327 50.6375L169.904 50.2581C170.338 49.5211 170.576 48.5022 170.598 47.1907V47.0607H169.568C169.525 48.5348 169.254 49.5645 168.755 50.1281L168.343 49.8137C168.799 49.3152 169.048 48.4047 169.091 47.0607H168.43V46.5512H170.598V45.3373H168.918V42.9093ZM168.69 41.522H171.107V40.7524H171.66V41.522H173.026V42.0531H171.66V42.9202H171.107V42.0531H168.69V41.522ZM174.847 48.1662H173.828V49.3585H174.901V49.8463H171.855V44.6327H174.901V45.1096H173.828V46.2152H174.847V48.1662ZM173.351 45.1096H172.343V46.2152H173.351V45.1096ZM172.343 46.6705V47.711H174.37V46.6705H172.343ZM172.343 48.1662V49.3585H173.351V48.1662H172.343Z" fill="white"/>
<rect x="118.44" y="236.65" width="99.357" height="28.9039" rx="3.61298" fill="#2C2C2C"/>
<path d="M163.664 245.779H164.228V248.413L166.526 247.73C166.493 249.02 166.342 250.396 166.071 251.859L165.518 251.686C165.724 250.645 165.876 249.561 165.962 248.456L164.228 248.976V253.323H163.664V249.15L162.082 249.637V254.32C162.082 254.71 162.255 254.916 162.602 254.916H165.475C165.746 254.916 165.941 254.84 166.049 254.688C166.19 254.482 166.287 253.897 166.342 252.932L166.894 253.106C166.829 254.211 166.689 254.894 166.472 255.154C166.277 255.36 165.984 255.469 165.594 255.469H162.429C161.811 255.469 161.508 255.122 161.508 254.439V249.811L160.651 250.071V249.486L161.508 249.236V246.873H162.082V249.063L163.664 248.586V245.779ZM157.215 248.781H158.57V245.811H159.155V248.781H160.434V249.356H159.155V253.16C159.676 252.976 160.185 252.77 160.684 252.542V253.138C159.622 253.615 158.462 254.016 157.226 254.32L157.074 253.734C157.595 253.626 158.093 253.496 158.57 253.355V249.356H157.215V248.781ZM171.14 247.448H175.551V249.095H173.557L173.373 249.681H176.613V250.114H170.078V249.681H172.831L173.015 249.095H171.14V247.448ZM175.042 248.716V247.838H171.649V248.716H175.042ZM170.641 250.721H176.039V254.06H170.641V250.721ZM175.54 253.659V251.101H171.151V253.659H175.54ZM172.018 251.664H174.673V253.106H172.018V251.664ZM174.229 252.781V251.979H172.462V252.781H174.229ZM177.708 246.256V255.664H177.155V255.219H169.525V255.696H168.972V246.256H177.708ZM169.525 254.732H177.155V246.776H169.525V254.732Z" fill="white"/>
<rect x="118.44" y="444.396" width="99.357" height="28.9039" rx="3.61298" fill="#2C2C2C"/>
<path d="M159.611 453.514L160.142 453.763C159.86 454.619 159.502 455.422 159.09 456.159V463.399H158.505V457.102C158.115 457.665 157.681 458.196 157.215 458.695L157.031 458.088C158.223 456.744 159.08 455.216 159.611 453.514ZM166.634 453.991V463.399H166.092V462.749H161.074V463.399H160.532V453.991H166.634ZM161.074 462.207H166.092V454.511H161.074V462.207ZM161.67 456.419H163.339V455.107H163.849V456.419H165.529V456.939H163.849V458.326H165.041V461.329H162.18V458.326H163.339V456.939H161.67V456.419ZM164.553 460.852V458.803H162.656V460.852H164.553ZM173.633 453.536C173.633 454.457 173.6 455.248 173.557 455.909C174.164 458.923 175.757 461.22 178.315 462.803L177.925 463.301C175.595 461.795 174.066 459.757 173.351 457.199C172.755 459.66 171.205 461.697 168.69 463.312L168.332 462.792C171.356 460.906 172.917 458.413 173.026 455.292C173.026 454.533 173.037 453.947 173.037 453.536H173.633Z" fill="white"/>
<path d="M1.04054 5.68132H5.2605C7.63062 5.68132 8.81568 6.69296 8.81568 8.71623C8.81568 10.7539 7.61617 11.78 5.24605 11.78H2.2256V16H1.04054V5.68132ZM2.2256 6.70741V10.7539H5.18824C6.02646 10.7539 6.63344 10.5805 7.03809 10.2481C7.42829 9.91574 7.63062 9.40992 7.63062 8.71623C7.63062 8.02253 7.42829 7.51672 7.02364 7.21323C6.61898 6.86638 6.012 6.70741 5.18824 6.70741H2.2256ZM11.1222 5.71022C11.3679 5.71022 11.5702 5.78248 11.7437 5.95591C11.9171 6.10043 12.0038 6.30275 12.0038 6.56289C12.0038 6.80857 11.9171 7.0109 11.7437 7.18432C11.5702 7.34329 11.3679 7.43 11.1222 7.43C10.8765 7.43 10.6742 7.34329 10.5008 7.18432C10.3274 7.0109 10.2551 6.80857 10.2551 6.56289C10.2551 6.30275 10.3274 6.10043 10.5008 5.95591C10.6742 5.78248 10.8765 5.71022 11.1222 5.71022ZM10.5442 8.52835H11.7003V16H10.5442V8.52835ZM17.3634 8.32602C19.2133 8.32602 20.1527 9.35211 20.1527 11.4043V16H18.9965V11.491C18.9965 10.0314 18.3317 9.30876 17.031 9.30876C16.5108 9.30876 16.0628 9.49663 15.687 9.87238C15.2824 10.277 15.0656 10.8118 15.0222 11.491V16H13.8661V8.52835H15.0222V9.6267C15.2824 9.20759 15.6147 8.88965 16.0194 8.67287C16.4241 8.44164 16.8721 8.32602 17.3634 8.32602ZM25.0171 8.32602C26.1443 8.32602 26.9825 8.81739 27.5317 9.81457V8.52835H28.6879V15.4797C28.6879 17.8643 27.5462 19.0638 25.2772 19.0638C24.2656 19.0638 23.4852 18.8615 22.9649 18.4568C22.4302 18.0522 22.0978 17.4452 21.9677 16.6359H23.1239C23.2106 17.1417 23.4274 17.5175 23.7598 17.7487C24.0922 17.9944 24.598 18.1244 25.2772 18.1244C26.7802 18.1244 27.5317 17.2862 27.5317 15.6387V14.3236C26.9825 15.3208 26.1443 15.8266 25.0171 15.8266C23.9765 15.8266 23.1528 15.4653 22.5458 14.7571C21.9388 14.0634 21.6498 13.1819 21.6498 12.098C21.6498 10.9996 21.9388 10.1181 22.5458 9.42437C23.1528 8.68732 23.9765 8.32602 25.0171 8.32602ZM25.1905 9.27985C24.439 9.27985 23.8609 9.53999 23.4418 10.0892C23.0372 10.5805 22.8348 11.2598 22.8348 12.098C22.8348 12.8784 23.0083 13.5287 23.3696 14.0201C23.7742 14.5693 24.3667 14.8583 25.1761 14.8583C25.9276 14.8583 26.5056 14.5982 26.9392 14.0779C27.3438 13.5721 27.5462 12.9073 27.5462 12.098C27.5462 11.2598 27.3438 10.5805 26.9392 10.0892C26.5056 9.53999 25.9276 9.27985 25.1905 9.27985ZM33.8157 8.32602C34.9285 8.32602 35.8245 8.70177 36.4893 9.48218C37.1252 10.2192 37.4431 11.1442 37.4431 12.2714C37.4431 13.3842 37.1252 14.3091 36.5038 15.0317C35.8245 15.8121 34.9285 16.2023 33.8157 16.2023C32.6885 16.2023 31.8069 15.8121 31.1421 15.0317C30.5062 14.3091 30.1883 13.3842 30.1883 12.2714C30.1883 11.1442 30.5062 10.2192 31.1421 9.48218C31.8069 8.70177 32.6885 8.32602 33.8157 8.32602ZM33.8157 9.2943C33.0209 9.2943 32.3994 9.59779 31.9659 10.2048C31.5612 10.7539 31.3733 11.4332 31.3733 12.2714C31.3733 13.0952 31.5612 13.7744 31.9659 14.3236C32.3994 14.9306 33.0209 15.234 33.8157 15.234C34.5961 15.234 35.2176 14.9306 35.68 14.3236C36.0702 13.7744 36.2725 13.0807 36.2725 12.2714C36.2725 11.4332 36.0702 10.7539 35.68 10.2048C35.2176 9.59779 34.5961 9.2943 33.8157 9.2943Z" fill="white"/>
<rect x="260.513" y="66.3891" width="107.486" height="28.0006" rx="3.16136" stroke="white" stroke-opacity="0.5" stroke-width="0.903246" stroke-linecap="round" stroke-linejoin="round"/>
<path d="M297.154 76.2364C296.818 76.6916 296.395 77.0927 295.885 77.4503L295.56 77.0168C296.362 76.4748 296.915 75.8137 297.197 75.0333L297.75 75.0983C297.663 75.3151 297.576 75.521 297.479 75.7161H301.435V76.1497C301.153 76.7133 300.828 77.1902 300.47 77.6021L300.058 77.2769C300.329 76.9734 300.579 76.6266 300.806 76.2364H297.154ZM292.645 75.7378H295.268V76.2581H292.645V75.7378ZM292.406 77.6996H295.506V78.2091H292.406V77.6996ZM298.552 76.4965L299.061 76.6049C299.018 76.7783 298.953 76.9517 298.877 77.1143C299.679 77.9706 300.709 78.48 301.966 78.6535L301.728 79.1521C300.492 78.957 299.473 78.415 298.649 77.5262C298.151 78.2849 297.295 78.7944 296.091 79.0328L295.81 78.5993C297.349 78.3175 298.27 77.6129 298.552 76.4965ZM293.75 79.1737H300.622V83.325H293.75V79.1737ZM300.048 82.8265V82.0244H294.325V82.8265H300.048ZM294.325 81.6017H300.048V80.8538H294.325V81.6017ZM294.325 80.431H300.048V79.6398H294.325V80.431ZM298.303 83.531C299.56 83.7586 300.752 84.0838 301.901 84.5173L301.717 84.9942C300.568 84.539 299.354 84.1922 298.097 83.9429L298.303 83.531ZM295.929 83.4876L296.222 83.8887C295.409 84.3439 294.238 84.7016 292.721 84.9834L292.45 84.5173C293.978 84.2572 295.138 83.9103 295.929 83.4876ZM307.49 79.5856H308.878V76.1822H307.523V75.6186H311.956V78.9353C311.956 81.1573 312.097 82.7181 312.379 83.6285C312.509 83.9754 312.617 84.1596 312.715 84.1596C312.78 84.1596 312.834 84.0404 312.877 83.802C312.932 83.5093 312.975 83.0216 312.997 82.3279L313.452 82.5555C313.408 83.5527 313.333 84.1922 313.213 84.474C313.105 84.7016 312.975 84.8208 312.845 84.8208C312.541 84.81 312.26 84.5607 312.021 84.0729C311.588 83.1191 311.371 81.4066 311.371 78.9353V76.1822H309.441V79.5856H310.872V80.1384H309.441V84.8859H308.878V80.1384H307.49V79.5856ZM303.61 76.5832H307.23V77.136H303.61V76.5832ZM304.033 78.144H306.797V78.6643H304.033V78.144ZM304.033 79.629H306.797V80.1709H304.033V79.629ZM306.883 81.2331V84.7775H306.331V84.2247H304.51V84.8533H303.957V81.2331H306.883ZM304.51 83.6719H306.331V81.7751H304.51V83.6719ZM305.333 75.0333C305.539 75.4885 305.691 75.922 305.8 76.3122L305.301 76.4965C305.149 76.0413 304.976 75.6077 304.77 75.185L305.333 75.0333ZM323.171 84.8425H321.686L321.556 84.2897C322.054 84.3114 322.52 84.3222 322.965 84.3222C323.377 84.3222 323.583 84.1055 323.583 83.6719V75.1416H324.168V83.8236C324.168 84.4957 323.832 84.8425 323.171 84.8425ZM321.263 75.9654H321.848V82.8373H321.263V75.9654ZM315.139 75.586H320.353V76.1713H317.48C317.404 76.7566 317.285 77.3094 317.133 77.8297H319.778V78.35C319.204 81.4174 317.74 83.5852 315.378 84.8425L315.074 84.3222C316.331 83.6502 317.329 82.7181 318.044 81.5258C317.48 81.0272 316.797 80.572 316.017 80.1492C315.757 80.4961 315.475 80.8212 315.172 81.1139L314.89 80.5611C316.006 79.4989 316.678 78.0356 316.906 76.1713H315.139V75.586ZM316.321 79.694C317.079 80.1059 317.751 80.5503 318.315 81.0272C318.716 80.2251 319.019 79.3472 319.225 78.3933H316.949C316.776 78.8594 316.559 79.293 316.321 79.694ZM326.755 76.0521H330.754V75.0766H331.34V76.0521H335.339V76.6157H331.34V77.7972H334.7V78.3608H331.34V79.5639H335.61V80.1167H330.635C330.245 80.6803 329.725 81.1898 329.096 81.6558V84.1813C329.952 83.932 330.809 83.6285 331.665 83.26L331.784 83.802C330.711 84.2464 329.627 84.6149 328.522 84.8967L328.326 84.3981C328.457 84.3439 328.522 84.268 328.522 84.1596V82.0461C327.904 82.4254 327.199 82.7723 326.408 83.0866L326.094 82.5772C327.893 81.9377 329.204 81.1139 330.007 80.1167H326.484V79.5639H330.754V78.3608H327.394V77.7972H330.754V76.6157H326.755V76.0521ZM334.711 80.7887L335.122 81.1898C334.526 81.7968 333.854 82.2628 333.096 82.588C333.833 83.4009 334.776 84.0079 335.925 84.3981L335.589 84.9184C333.616 84.1813 332.228 82.8481 331.426 80.908L331.882 80.6587C332.12 81.2223 332.413 81.7317 332.76 82.187C333.453 81.9051 334.104 81.4391 334.711 80.7887Z" fill="white"/>
<rect x="260.513" y="109.745" width="107.486" height="28.0006" rx="3.16136" stroke="white" stroke-opacity="0.5" stroke-width="0.903246" stroke-linecap="round" stroke-linejoin="round"/>
<path d="M278.329 119.57H280.887C280.713 119.158 280.518 118.79 280.312 118.465L280.919 118.356C281.115 118.714 281.299 119.115 281.472 119.57H283.889C284.106 119.158 284.279 118.746 284.388 118.313L284.995 118.4C284.886 118.822 284.713 119.212 284.496 119.57H287.022V120.112H282.968V121.315H286.469V121.836H282.968V123.049H287.39V123.613H277.96V123.049H282.383V121.836H278.925V121.315H282.383V120.112H278.329V119.57ZM282.502 123.982L283.087 124.036C283.044 124.361 282.968 124.654 282.881 124.935H287.141V125.499H282.664C282.426 126.019 282.09 126.475 281.667 126.854C280.963 127.493 279.727 127.992 277.96 128.361L277.722 127.797C279.326 127.493 280.475 127.049 281.19 126.464C281.516 126.182 281.787 125.868 282.003 125.499H278.221V124.935H282.263C282.372 124.632 282.448 124.318 282.502 123.982ZM283.25 126.009C284.854 126.518 286.317 127.136 287.64 127.862L287.304 128.382C285.873 127.58 284.42 126.941 282.925 126.485L283.25 126.009ZM293.771 118.465H294.183C295.527 119.765 297.077 120.795 298.833 121.554L298.54 122.074C296.762 121.283 295.234 120.253 293.977 118.996C292.817 120.21 291.289 121.272 289.381 122.161L289.099 121.64C290.974 120.795 292.535 119.733 293.771 118.465ZM291.852 123.689V124.74H296.188V123.689H291.852ZM296.188 123.169V122.128H291.852V123.169H296.188ZM297.554 125.152L298.052 125.402C297.597 125.933 297.098 126.41 296.567 126.832C297.239 127.168 297.857 127.526 298.421 127.894L298.052 128.339C296.925 127.558 295.494 126.843 293.76 126.171L294.107 125.759C294.801 126.019 295.462 126.301 296.08 126.594C296.632 126.139 297.12 125.662 297.554 125.152ZM292.579 120.286H295.397V120.784H292.579V120.286ZM291.148 128.296L290.985 127.829C291.18 127.775 291.278 127.624 291.278 127.385V121.597H296.762V125.271H291.852V127.656C292.752 127.483 293.608 127.266 294.432 127.017L294.54 127.537C293.63 127.819 292.503 128.079 291.148 128.296ZM304.194 118.356H304.79L300.899 128.328H300.303L304.194 118.356ZM307.8 123.646H314.531V125.738H311.539V127.472C311.539 127.992 311.29 128.263 310.792 128.263H309.523L309.393 127.721C309.816 127.743 310.217 127.764 310.596 127.764C310.835 127.764 310.954 127.613 310.954 127.331V125.738H307.8V123.646ZM313.946 125.261V124.133H308.374V125.261H313.946ZM307.637 118.768H314.629V121.716H311.214C311.323 121.944 311.42 122.193 311.529 122.453H315.864V122.963H306.391V122.453H310.9C310.792 122.182 310.672 121.933 310.542 121.716H307.637V118.768ZM314.043 121.229V120.448H308.223V121.229H314.043ZM308.223 120.004H314.043V119.245H308.223V120.004ZM313.014 126.236C314.043 126.55 315.04 127.006 316.005 127.613L315.788 128.144C314.824 127.526 313.816 127.049 312.764 126.702L313.014 126.236ZM308.992 126.193L309.372 126.583C308.645 127.222 307.713 127.743 306.575 128.155L306.25 127.667C307.442 127.266 308.364 126.778 308.992 126.193ZM317.866 123.505H319.698V122.573H317.768V118.866H322.147V122.573H320.218V123.505H322.039V124.003H320.218V125.022H322.299V125.553H317.595V125.022H319.698V124.003H317.866V123.505ZM317.942 126.106L318.419 126.16C318.354 126.962 318.213 127.667 317.985 128.296L317.486 128.144C317.725 127.548 317.877 126.865 317.942 126.106ZM319.513 126.171C319.578 126.659 319.622 127.32 319.654 128.155L319.156 128.22C319.134 127.363 319.101 126.702 319.047 126.225L319.513 126.171ZM321.757 126.009C321.974 126.648 322.147 127.233 322.277 127.775L321.822 127.938C321.681 127.32 321.508 126.724 321.313 126.139L321.757 126.009ZM320.641 126.128C320.792 126.702 320.912 127.32 321.02 127.992L320.532 128.1C320.435 127.385 320.326 126.767 320.196 126.225L320.641 126.128ZM321.649 122.096V119.332H320.174V122.096H321.649ZM319.73 122.096V119.332H318.256V122.096H319.73ZM320.89 119.754L321.258 119.852C321.183 120.481 321.042 121.077 320.846 121.651L320.489 121.521C320.673 120.968 320.803 120.383 320.89 119.754ZM318.95 119.852C319.123 120.34 319.264 120.903 319.394 121.543L319.036 121.63C318.928 121.055 318.776 120.502 318.603 119.971L318.95 119.852ZM324.391 118.465H324.976V120.524H327.35V121.077H324.976V123.201H326.862V128.296H326.309V127.689H323.394V128.296H322.841V123.201H324.391V118.465ZM323.394 127.147H326.309V123.743H323.394V127.147ZM331.866 118.887L332.419 119.104C331.628 120.849 330.587 122.182 329.286 123.093L328.831 122.692C330.164 121.749 331.172 120.481 331.866 118.887ZM333.6 118.779H335.595C336.169 120.361 337.177 121.64 338.63 122.605L338.25 123.125C336.885 122.182 335.866 120.925 335.194 119.353H333.6V118.779ZM332.744 123.364H330.403V122.789H336.776C336.744 124.112 336.679 125.185 336.581 126.009C336.473 126.811 336.299 127.385 336.061 127.71C335.822 128.025 335.432 128.198 334.89 128.22H332.907L332.755 127.645C333.405 127.656 334.012 127.667 334.598 127.667C335.204 127.667 335.606 127.396 335.801 126.876C335.996 126.323 336.126 125.152 336.191 123.364H333.329C333.069 124.589 332.69 125.553 332.213 126.269C331.649 127.027 330.815 127.721 329.687 128.328L329.319 127.851C330.359 127.298 331.129 126.691 331.649 126.03C332.148 125.358 332.506 124.469 332.744 123.364ZM340.306 124.99H342.203C342.225 124.849 342.235 124.708 342.235 124.578V123.624H342.788V124.578C342.788 124.719 342.777 124.86 342.766 124.99H344.88V125.51H342.691L342.626 125.803C343.471 126.453 344.176 127.092 344.75 127.743L344.36 128.133C343.872 127.537 343.243 126.919 342.463 126.279C342.105 127.157 341.455 127.851 340.523 128.361L340.089 127.97C341.195 127.407 341.878 126.594 342.127 125.51H340.306V124.99ZM340.393 120.6H342.376V118.475H342.94V120.6H344.858V121.109H342.94V123.277H342.376V121.109H340.393V120.6ZM344.208 118.605L344.642 118.811C344.436 119.31 344.186 119.754 343.905 120.123L343.514 119.841C343.785 119.494 344.013 119.082 344.208 118.605ZM341.065 118.703C341.347 119.115 341.585 119.548 341.791 120.015L341.357 120.21C341.119 119.7 340.87 119.245 340.599 118.855L341.065 118.703ZM343.742 123.516C344.121 123.906 344.414 124.253 344.62 124.556L344.219 124.838C344.002 124.513 343.72 124.144 343.363 123.754L343.742 123.516ZM341.531 121.63L341.889 121.944C341.487 122.562 341 123.104 340.425 123.57L340.122 123.158C340.675 122.724 341.141 122.215 341.531 121.63ZM343.709 121.575C344.197 122.009 344.642 122.486 345.043 122.995L344.707 123.364C344.284 122.8 343.85 122.323 343.395 121.911L343.709 121.575ZM348.208 126.279C348.901 126.821 349.497 127.363 349.974 127.905L349.584 128.296C349.151 127.764 348.576 127.212 347.839 126.626L348.208 126.279ZM345.097 118.887H349.823V119.418H347.763C347.742 119.787 347.72 120.134 347.677 120.459H349.443V126.106H345.563V120.459H347.102C347.145 120.123 347.178 119.776 347.2 119.418H345.097V118.887ZM348.89 125.586V124.339H346.127V125.586H348.89ZM346.127 123.852H348.89V122.67H346.127V123.852ZM346.127 122.172H348.89V120.968H346.127V122.172ZM346.777 126.269L347.156 126.615C346.658 127.287 346.051 127.873 345.324 128.371L344.988 127.938C345.682 127.461 346.278 126.908 346.777 126.269Z" fill="white"/>
<rect x="260.513" y="153.1" width="107.486" height="28.0006" rx="3.16136" stroke="white" stroke-opacity="0.5" stroke-width="0.903246" stroke-linecap="round" stroke-linejoin="round"/>
<path d="M292.775 169.462L292.601 168.952C292.731 168.909 292.807 168.833 292.807 168.724V162.763H293.393V168.768C294 168.594 294.596 168.388 295.181 168.15V161.82H295.766V171.608H295.181V168.724C294.411 169.006 293.609 169.245 292.775 169.462ZM297.988 164.064C297.598 165.083 297.11 165.928 296.503 166.6L296.135 166.166C297.056 165.061 297.674 163.587 297.999 161.723L298.584 161.831C298.476 162.427 298.335 162.98 298.183 163.489H301.901V164.064H300.947C300.882 165.906 300.427 167.467 299.592 168.768C300.286 169.7 301.132 170.524 302.118 171.239L301.717 171.716C300.731 171.001 299.896 170.188 299.224 169.288C298.509 170.22 297.566 171.001 296.417 171.629L296.081 171.098C297.262 170.491 298.194 169.732 298.877 168.811C298.259 167.922 297.771 166.947 297.414 165.885L297.891 165.614C298.227 166.578 298.671 167.467 299.235 168.28C299.95 167.088 300.34 165.679 300.384 164.064H297.988ZM304.054 163.944H304.575V165.852H305.734V164.4H310.623V163.955H310.146V163.088H308.769V162.557H310.146V161.788H310.699V162.557H313.116V163.088H310.699V163.728H311.143C311.143 163.955 311.143 164.183 311.154 164.4H312.162C312.043 164.075 311.913 163.771 311.772 163.5L312.281 163.413C312.411 163.706 312.531 164.031 312.65 164.4H313.257V164.909H311.165C311.186 166.329 311.273 167.435 311.414 168.237C311.447 168.443 311.49 168.638 311.533 168.833C311.88 167.977 312.108 166.947 312.238 165.744L312.747 165.852C312.574 167.391 312.238 168.649 311.739 169.613C311.815 169.884 311.902 170.123 311.999 170.329C312.216 170.762 312.39 170.99 312.531 170.99C312.682 170.968 312.823 170.437 312.942 169.396L313.387 169.635C313.213 170.957 312.953 171.618 312.628 171.618C312.357 171.618 312.064 171.347 311.739 170.827C311.62 170.621 311.512 170.394 311.425 170.155C311.013 170.762 310.525 171.239 309.962 171.575L309.68 171.131C310.298 170.762 310.807 170.22 311.197 169.516C311.1 169.18 311.013 168.811 310.937 168.421C310.764 167.511 310.666 166.34 310.634 164.909H306.266V168.226C306.244 169.657 305.973 170.806 305.464 171.673L305.041 171.293C305.474 170.556 305.713 169.537 305.734 168.226V168.096H304.705C304.661 169.57 304.39 170.6 303.892 171.163L303.48 170.849C303.935 170.35 304.185 169.44 304.228 168.096H303.567V167.586H305.734V166.372H304.054V163.944ZM303.827 162.557H306.244V161.788H306.797V162.557H308.162V163.088H306.797V163.955H306.244V163.088H303.827V162.557ZM309.983 169.201H308.964V170.394H310.038V170.881H306.992V165.668H310.038V166.145H308.964V167.25H309.983V169.201ZM308.488 166.145H307.48V167.25H308.488V166.145ZM307.48 167.706V168.746H309.506V167.706H307.48ZM307.48 169.201V170.394H308.488V169.201H307.48ZM322.813 166.058V168.085H317.296V168.963H323.312V171.651H322.726V171.163H317.296V171.64H316.711V166.058H322.813ZM317.296 170.632H322.726V169.451H317.296V170.632ZM317.296 167.597H322.239V166.557H317.296V167.597ZM324.298 164.79V166.654H323.724V165.299H315.789V166.654H315.215V164.79H319.594C319.464 164.497 319.334 164.237 319.204 163.999L319.778 163.89C319.919 164.15 320.049 164.454 320.168 164.79H324.298ZM316.375 163.132C316.104 163.565 315.789 163.977 315.443 164.346L314.944 164.031C315.616 163.338 316.115 162.568 316.429 161.712L317.003 161.831C316.895 162.091 316.787 162.351 316.667 162.6H319.713V163.132H317.751C318.033 163.511 318.25 163.858 318.412 164.183L317.881 164.389C317.665 163.955 317.404 163.543 317.123 163.132H316.375ZM321.057 163.132C320.851 163.522 320.624 163.879 320.363 164.205L319.865 163.879C320.396 163.24 320.786 162.525 321.035 161.723L321.588 161.842C321.502 162.102 321.404 162.362 321.306 162.6H324.547V163.132H322.499C322.759 163.478 322.965 163.793 323.117 164.096L322.585 164.281C322.38 163.89 322.141 163.5 321.859 163.132H321.057ZM330.212 162.243H335.372V167.12H333.085V168.573H335.589V169.126H333.085V170.741H336V171.315H329.519V170.741H332.499V169.126H329.996V168.573H332.499V167.12H330.212V162.243ZM334.797 166.589V164.953H333.085V166.589H334.797ZM332.499 166.589V164.953H330.776V166.589H332.499ZM330.776 164.443H332.499V162.774H330.776V164.443ZM333.085 162.774V164.443H334.797V162.774H333.085ZM326.321 165.852H327.6V163.099H326.17V162.535H329.605V163.099H328.186V165.852H329.475V166.427H328.186V169.126C328.641 168.963 329.074 168.79 329.486 168.616V169.191C328.489 169.613 327.405 169.96 326.245 170.242L326.104 169.689C326.625 169.581 327.123 169.462 327.6 169.31V166.427H326.321V165.852Z" fill="white"/>
<rect x="260.513" y="271.426" width="107.486" height="28.0006" rx="3.16136" stroke="white" stroke-opacity="0.5" stroke-width="0.903246"/>
<path d="M285.058 283.062V284.298H286.347V284.818H284.516V280.937C285.101 280.862 285.654 280.656 286.152 280.32L286.434 280.775C286.055 281.035 285.599 281.219 285.058 281.339V282.563H286.337V283.062H285.058ZM288.277 282.574H289.512V281.176H288.222V280.656H290.054V284.829H288.19V284.308H289.512V283.062H288.277V282.574ZM287.019 280.157H287.572V285.891H290.054V286.389C289.61 287.235 288.905 287.95 287.941 288.536C288.699 288.904 289.599 289.197 290.629 289.414L290.412 289.966C289.198 289.706 288.179 289.338 287.345 288.861C286.423 289.316 285.318 289.695 284.039 289.977L283.746 289.457C284.927 289.218 285.935 288.904 286.781 288.525C285.935 287.95 285.285 287.246 284.852 286.422H284.429V285.891H287.019V280.157ZM285.459 286.422C285.903 287.137 286.542 287.733 287.377 288.232C288.298 287.733 288.981 287.127 289.415 286.422H285.459ZM282.055 289.88H281.025L280.906 289.338C281.231 289.359 281.557 289.381 281.86 289.381C282.12 289.381 282.261 289.229 282.261 288.926V286.043C281.828 286.216 281.394 286.368 280.96 286.498L280.83 285.945C281.329 285.804 281.806 285.652 282.261 285.479V282.802H281.004V282.249H282.261V280.157H282.846V282.249H283.941V282.802H282.846V285.241C283.247 285.056 283.638 284.861 284.017 284.655V285.23C283.627 285.436 283.237 285.62 282.846 285.793V289.067C282.846 289.609 282.575 289.88 282.055 289.88ZM297.031 283.734H300.987V285.967H299.383V286.899H301.735V287.441H299.383V289.121C299.383 289.663 299.123 289.945 298.603 289.945H297.128L296.998 289.403C297.497 289.424 297.963 289.446 298.407 289.446C298.668 289.446 298.809 289.283 298.809 288.98V287.441H292.208V286.899H298.809V285.967H297.031V283.734ZM300.445 285.49V284.211H297.573V285.49H300.445ZM292.598 283.777H296.348V284.276H294.701V285.598C295.329 285.512 295.936 285.414 296.511 285.306V285.804C295.383 286.021 294.061 286.216 292.522 286.4L292.381 285.891C292.988 285.826 293.562 285.75 294.126 285.674V284.276H292.598V283.777ZM300.153 283.17H293.346V282.704H299.6V281.978H292.273V281.544H299.6V280.807H293.335V280.33H300.153V281.49H301.659V282.032H300.153V283.17ZM294.419 287.614C295.221 288.091 295.904 288.568 296.446 289.045L296.055 289.435C295.557 288.98 294.874 288.492 294.029 287.983L294.419 287.614ZM307.389 283.766C307.769 284.027 308.17 284.384 308.603 284.829C308.961 285.208 309.264 285.566 309.503 285.902L309.08 286.27C308.842 285.923 308.538 285.555 308.181 285.186C307.769 284.753 307.379 284.395 307.01 284.124L307.389 283.766ZM316.111 281.653C315.84 282.108 315.537 282.52 315.201 282.899L314.702 282.574C315.396 281.826 315.905 280.981 316.23 280.027L316.805 280.146C316.675 280.493 316.545 280.807 316.404 281.111H319.46V281.653H317.65C318.04 282.054 318.344 282.422 318.561 282.769L318.04 282.964C317.759 282.509 317.412 282.076 317.011 281.653H316.111ZM320.761 281.609C320.533 282.054 320.273 282.466 319.981 282.834L319.471 282.509C320.067 281.794 320.501 280.97 320.783 280.06L321.346 280.179C321.249 280.482 321.14 280.786 321.021 281.068H324.284V281.609H322.203C322.528 282.032 322.777 282.422 322.972 282.791L322.463 282.975C322.213 282.498 321.921 282.043 321.585 281.609H320.761ZM315.851 287.322V288.763H318.279V287.322H315.851ZM315.851 289.283V289.945H315.287V283.485H316.306C316.425 283.181 316.512 282.867 316.577 282.542L317.173 282.628C317.108 282.932 317.011 283.224 316.892 283.485H318.572V285.707H315.851V286.812H318.843V289.815H318.279V289.283H315.851ZM315.851 285.186H318.019V284.005H315.851V285.186ZM321.476 283.842H319.265V283.3H324.219V283.842H322.04V285.013H323.926V288.384C323.926 288.926 323.688 289.208 323.221 289.208H322.506L322.354 288.655L323.037 288.676C323.265 288.676 323.384 288.536 323.384 288.265V285.533H322.04V289.955H321.476V285.533H320.143V289.24H319.601V285.013H321.476V283.842ZM330.794 283.94H331.315V284.731H333.287V283.94H333.818V284.731H335.282V285.241H333.818V286.389H335.607V286.91H329.006V286.389H330.794V285.241H329.288V284.731H330.794V283.94ZM331.315 286.389H333.287V285.241H331.315V286.389ZM333.146 287.127C333.97 287.473 334.718 287.896 335.39 288.395L335.097 288.828C334.382 288.275 333.634 287.842 332.875 287.528L333.146 287.127ZM331.325 287.127L331.694 287.463C331.109 287.95 330.393 288.384 329.548 288.763L329.233 288.351C330.057 288.004 330.762 287.593 331.325 287.127ZM326.675 280.298C327.358 280.786 327.933 281.273 328.388 281.75L327.998 282.141C327.575 281.685 327.001 281.187 326.285 280.667L326.675 280.298ZM326.058 282.888H328.388V283.355C327.998 284.027 327.543 284.688 327.022 285.338H328.507V285.728C328.355 286.639 328.16 287.408 327.922 288.037C328.03 288.08 328.139 288.156 328.247 288.265C328.572 288.601 328.93 288.861 329.32 289.034C329.689 289.186 330.187 289.262 330.838 289.273C331.423 289.273 332.106 289.283 332.865 289.283C333.602 289.283 334.577 289.262 335.769 289.24L335.639 289.804H332.94C332.084 289.804 331.369 289.793 330.783 289.782C330.046 289.76 329.472 289.663 329.071 289.479C328.616 289.283 328.215 288.991 327.857 288.601C327.77 288.525 327.673 288.492 327.586 288.492C327.282 288.492 326.871 288.958 326.361 289.89L325.938 289.522C326.448 288.568 326.936 288.048 327.391 287.95C327.629 287.354 327.814 286.65 327.965 285.837H326.329V285.392C326.892 284.742 327.369 284.081 327.759 283.43H326.058V282.888ZM334.718 280.905H333.114V281.815H334.718V280.905ZM333.114 282.238V282.899C333.114 283.094 333.233 283.203 333.471 283.203H335.433V283.658H333.222C332.81 283.658 332.604 283.474 332.604 283.116V280.471H335.217V282.238H333.114ZM329.364 283.864L329.179 283.485C329.309 283.42 329.374 283.333 329.374 283.203V280.471H331.954V282.238H329.884V283.344C330.599 283.257 331.304 283.159 331.987 283.051L332.117 283.485C331.304 283.626 330.382 283.756 329.364 283.864ZM329.884 281.815H331.445V280.916H329.884V281.815ZM339.061 284.276V289.934H338.508V284.363C338.215 285.414 337.836 286.368 337.37 287.213L337.131 286.628C337.782 285.522 338.237 284.254 338.497 282.845H337.381V282.292H338.508V280.114H339.061V282.292H340.047V282.845H339.061V283.636C339.483 284.243 339.917 284.926 340.351 285.696L340.036 286.162C339.657 285.381 339.332 284.753 339.061 284.276ZM341.077 282.227V283.084H342.562V282.227H341.077ZM342.562 281.815V280.948H341.077V281.815H342.562ZM344.524 282.227V283.084H346.106V282.227H344.524ZM346.106 281.815V280.959H344.524V281.815H346.106ZM346.106 283.528H344.014V280.504H346.637V289.218C346.637 289.685 346.41 289.923 345.954 289.923C345.586 289.923 345.206 289.912 344.838 289.912L344.708 289.424C345.076 289.435 345.423 289.446 345.748 289.446C345.987 289.446 346.106 289.305 346.106 289.045V283.528ZM341.575 284.33H343.32V283.712H343.819V284.33H345.564V284.764H343.819V285.392H345.391V287.582H343.819V287.766C344.361 288.059 344.903 288.395 345.456 288.774L345.185 289.175C344.643 288.742 344.188 288.395 343.819 288.156V289.858H343.32V287.712C342.974 288.416 342.432 289.002 341.684 289.457L341.413 289.034C342.182 288.644 342.735 288.167 343.082 287.582H341.771V285.392H343.32V284.764H341.575V284.33ZM345.011 287.224V285.761H343.765V287.224H345.011ZM343.375 287.224V285.761H342.139V287.224H343.375ZM344.307 286.075L344.567 286.118C344.524 286.433 344.448 286.715 344.339 286.953L344.079 286.888C344.177 286.671 344.253 286.4 344.307 286.075ZM342.768 286.086C342.887 286.324 342.995 286.595 343.093 286.877L342.844 286.986C342.757 286.671 342.648 286.4 342.518 286.162L342.768 286.086ZM343.071 280.504V283.528H341.077V289.945H340.546V280.504H343.071Z" fill="white"/>
<rect x="260.513" y="314.782" width="107.486" height="28.0006" rx="3.16136" stroke="white" stroke-opacity="0.5" stroke-width="0.903246"/>
<path d="M298.801 323.458H299.365V326.092L301.663 325.409C301.63 326.699 301.478 328.076 301.207 329.539L300.655 329.366C300.861 328.325 301.012 327.241 301.099 326.136L299.365 326.656V331.002H298.801V326.829L297.219 327.317V331.999C297.219 332.39 297.392 332.596 297.739 332.596H300.611C300.882 332.596 301.077 332.52 301.186 332.368C301.327 332.162 301.424 331.577 301.478 330.612L302.031 330.785C301.966 331.891 301.825 332.574 301.608 332.834C301.413 333.04 301.121 333.148 300.731 333.148H297.566C296.948 333.148 296.644 332.802 296.644 332.119V327.49L295.788 327.751V327.165L296.644 326.916V324.553H297.219V326.743L298.801 326.266V323.458ZM292.352 326.461H293.707V323.491H294.292V326.461H295.571V327.035H294.292V330.84C294.812 330.655 295.322 330.449 295.82 330.222V330.818C294.758 331.295 293.598 331.696 292.363 331.999L292.211 331.414C292.731 331.306 293.23 331.176 293.707 331.035V327.035H292.352V326.461ZM306.276 325.128H310.688V326.775H308.694L308.509 327.36H311.75V327.794H305.214V327.36H307.967L308.152 326.775H306.276V325.128ZM310.178 326.396V325.518H306.786V326.396H310.178ZM305.778 328.401H311.176V331.739H305.778V328.401ZM310.677 331.338V328.78H306.287V331.338H310.677ZM307.154 329.344H309.81V330.785H307.154V329.344ZM309.366 330.46V329.658H307.599V330.46H309.366ZM312.845 323.935V333.343H312.292V332.899H304.661V333.376H304.109V323.935H312.845ZM304.661 332.411H312.292V324.456H304.661V332.411ZM319.03 329.084H318.098V328.629H320.537V329.084H319.561V329.929H321.274V330.406H319.561V332.476C320.158 332.422 320.743 332.357 321.306 332.292V332.78C320.038 332.932 318.673 333.072 317.198 333.181L317.079 332.682C317.74 332.639 318.391 332.585 319.03 332.531V330.406H317.296V329.929H319.03V329.084ZM320.526 330.731L320.96 330.851C320.84 331.284 320.699 331.674 320.537 332.021L320.103 331.859C320.255 331.566 320.396 331.187 320.526 330.731ZM318.662 324.911C318.879 325.604 319.041 326.233 319.16 326.808L318.77 326.959C318.748 326.84 318.716 326.732 318.694 326.645C318.272 326.84 317.762 327.035 317.155 327.209L316.993 326.808C317.101 326.721 317.166 326.602 317.166 326.472V323.968C317.816 323.881 318.347 323.718 318.781 323.469L319.019 323.859C318.651 324.098 318.185 324.271 317.643 324.358V326.612C318.044 326.472 318.358 326.342 318.586 326.233C318.477 325.821 318.369 325.409 318.25 325.019L318.662 324.911ZM317.968 330.764C318.163 331.143 318.337 331.577 318.488 332.075L318.044 332.195C317.914 331.739 317.74 331.317 317.545 330.905L317.968 330.764ZM319.822 324.401H319.258V323.968H321.512C321.512 325.42 321.447 326.298 321.317 326.623C321.176 326.927 320.938 327.079 320.602 327.1H320.125L320.006 326.656H320.483C320.71 326.634 320.862 326.493 320.927 326.233C320.981 325.973 321.014 325.355 321.025 324.401H320.244C320.223 325.03 320.158 325.496 320.06 325.8C319.941 326.157 319.746 326.472 319.475 326.732L319.204 326.385C319.42 326.168 319.572 325.908 319.67 325.615C319.756 325.344 319.8 324.943 319.822 324.401ZM319.106 327.079H319.431C320.082 327.501 320.775 328.022 321.512 328.65L321.209 329.051C320.407 328.358 319.767 327.848 319.29 327.523C318.792 328.087 318.087 328.661 317.177 329.236L316.884 328.824C317.773 328.282 318.521 327.707 319.106 327.079ZM315.226 323.708C315.833 324.185 316.331 324.661 316.743 325.138L316.375 325.507C315.995 325.052 315.486 324.575 314.857 324.076L315.226 323.708ZM315.258 326.493C315.887 327.014 316.418 327.523 316.852 328.043L316.472 328.423C316.082 327.924 315.551 327.404 314.89 326.851L315.258 326.493ZM316.255 329.29L316.732 329.485C316.353 330.785 315.941 332.021 315.497 333.17L314.987 332.953C315.475 331.761 315.898 330.536 316.255 329.29ZM323.496 333.278H322.271L322.152 332.736C322.542 332.758 322.932 332.78 323.301 332.78C323.561 332.78 323.691 332.628 323.691 332.325V323.502H324.222V332.466C324.222 333.007 323.973 333.278 323.496 333.278ZM322.195 324.542H322.694V331.273H322.195V324.542ZM327.329 327.144H328.662V326.342H327.329V327.144ZM329.139 326.342V327.144H330.733V327.566H326.809V323.664H330.592V324.087H329.139V324.857H330.386V326.342H329.139ZM327.329 325.951H329.92V325.247H327.329V325.951ZM327.329 324.857H328.662V324.087H327.329V324.857ZM331.968 324.423C331.687 324.857 331.34 325.225 330.906 325.529L330.592 325.138C331.231 324.705 331.665 324.12 331.892 323.404L332.38 323.491C332.326 323.664 332.261 323.838 332.196 323.989H335.545V324.423H331.968ZM331.22 325.93H335.502V327.566H331.22V325.93ZM335.057 327.165V326.309H334.158V327.165H335.057ZM333.768 327.165V326.309H332.976V327.165H333.768ZM332.586 327.165V326.309H331.676V327.165H332.586ZM327.622 328.108H334.483V331.631H332.564V332.466C332.564 332.639 332.662 332.726 332.857 332.726H334.754C334.949 332.726 335.079 332.682 335.144 332.596C335.253 332.498 335.318 332.195 335.361 331.685L335.87 331.848C335.816 332.476 335.708 332.867 335.534 333.018C335.393 333.127 335.166 333.181 334.852 333.181H332.705C332.228 333.181 332.001 332.975 332.001 332.585V331.631H330.473C330.288 332.075 329.941 332.433 329.432 332.704C328.825 333.007 327.85 333.257 326.495 333.43L326.289 332.942C327.557 332.812 328.467 332.617 329.031 332.379C329.454 332.184 329.757 331.934 329.931 331.631H327.622V328.108ZM333.941 331.208V330.504H328.164V331.208H333.941ZM328.164 330.135H333.941V329.528H328.164V330.135ZM328.164 329.16H333.941V328.488H328.164V329.16ZM331.979 325.008H335.047V325.399H331.979V325.008Z" fill="white"/>
<rect x="260.513" y="358.137" width="107.486" height="28.0006" rx="3.16136" stroke="white" stroke-opacity="0.5" stroke-width="0.903246"/>
<path d="M289.209 367.41V376.688H288.613V375.94H282.76V376.71H282.164V367.41H289.209ZM282.76 375.366H288.613V373.144H282.76V375.366ZM282.76 372.602H288.613V370.51H282.76V372.602ZM282.76 369.957H288.613V367.974H282.76V369.957ZM298.949 366.781L299.524 366.987C299.275 367.453 299.004 367.865 298.7 368.223H301.605V368.808H292.316V368.223H295.221C294.993 367.735 294.733 367.291 294.451 366.901L295.047 366.792C295.318 367.204 295.579 367.681 295.817 368.223H298.061C298.407 367.778 298.7 367.302 298.949 366.781ZM293.53 372.331V373.23C293.53 373.426 293.519 373.61 293.508 373.783H296.175V372.331H293.53ZM296.175 371.8V370.358H293.53V371.8H296.175ZM293.454 374.325C293.324 375.279 293.053 376.092 292.63 376.742L292.208 376.352C292.706 375.55 292.966 374.52 292.988 373.263V369.827H296.727V375.788C296.727 376.33 296.435 376.612 295.849 376.612H294.852L294.701 376.092C295.058 376.103 295.383 376.114 295.687 376.114C296.012 376.114 296.175 375.94 296.175 375.593V374.325H293.454ZM300.12 376.623H298.689L298.57 376.059C299.047 376.081 299.491 376.103 299.914 376.103C300.218 376.103 300.38 375.94 300.38 375.615V369.469H300.965V375.756C300.965 376.33 300.684 376.623 300.12 376.623ZM298.115 370.261H298.678V375.008H298.115V370.261ZM305.85 366.749L306.392 367.009C306.11 367.854 305.753 368.656 305.33 369.404V376.721H304.745V370.336C304.354 370.889 303.932 371.41 303.455 371.908L303.26 371.29C304.463 369.946 305.33 368.44 305.85 366.749ZM306.446 368.624H309.47C309.297 367.995 309.113 367.432 308.907 366.922L309.525 366.825C309.709 367.345 309.882 367.952 310.045 368.624H312.928V369.177H306.446V368.624ZM306.273 375.55H310.023C310.587 374.076 311.085 372.222 311.508 369.99L312.072 370.131C311.682 372.179 311.205 373.989 310.619 375.55H313.21V376.124H306.273V375.55ZM307.66 370.109C308.094 371.54 308.473 373.165 308.809 375.008L308.267 375.149C307.964 373.458 307.584 371.843 307.118 370.282L307.66 370.109ZM314.908 369.903H319.211L319.276 369.188H315.688V367.247H323.427V369.188H319.872C319.851 369.426 319.818 369.664 319.786 369.903H324.197V370.369H319.72C319.677 370.618 319.623 370.857 319.58 371.084H322.788V375.919H324.381V376.395H314.724V375.919H316.317V371.084H319.005C319.059 370.846 319.103 370.607 319.146 370.369H314.908V369.903ZM316.902 375.919H322.213V375.084H316.902V375.919ZM316.902 374.683H322.213V373.892H316.902V374.683ZM316.902 373.501H322.213V372.699H316.902V373.501ZM316.902 372.309H322.213V371.518H316.902V372.309ZM322.864 368.743V367.713H321.043V368.743H322.864ZM320.512 368.743V367.713H318.604V368.743H320.512ZM318.062 368.743V367.713H316.241V368.743H318.062ZM327.694 370.087H334.003V370.651H331.184V372.764H334.501V373.328H331.184V375.756C331.943 375.875 332.875 375.94 333.981 375.951C334.534 375.951 335.108 375.929 335.704 375.908L335.585 376.482H334.241C332.117 376.482 330.588 376.287 329.678 375.897C328.93 375.539 328.334 374.976 327.889 374.206C327.467 375.192 326.936 376.016 326.296 376.688L325.917 376.222C326.979 375.084 327.694 373.545 328.063 371.615L328.626 371.724C328.486 372.407 328.312 373.035 328.117 373.61C328.637 374.618 329.309 375.247 330.111 375.507C330.263 375.55 330.426 375.593 330.599 375.637V370.651H327.694V370.087ZM335.195 367.963V370.174H334.61V368.526H327.066V370.217H326.48V367.963H330.675C330.502 367.529 330.307 367.15 330.111 366.814L330.729 366.705C330.913 367.074 331.098 367.486 331.271 367.963H335.195ZM339.722 366.749L340.264 367.009C339.982 367.854 339.624 368.656 339.202 369.404V376.721H338.616V370.336C338.226 370.889 337.803 371.41 337.327 371.908L337.131 371.29C338.335 369.946 339.202 368.44 339.722 366.749ZM340.318 368.624H343.342C343.169 367.995 342.984 367.432 342.779 366.922L343.396 366.825C343.581 367.345 343.754 367.952 343.917 368.624H346.8V369.177H340.318V368.624ZM340.145 375.55H343.895C344.459 374.076 344.957 372.222 345.38 369.99L345.943 370.131C345.553 372.179 345.076 373.989 344.491 375.55H347.082V376.124H340.145V375.55ZM341.532 370.109C341.966 371.54 342.345 373.165 342.681 375.008L342.139 375.149C341.836 373.458 341.456 371.843 340.99 370.282L341.532 370.109Z" fill="white"/>
<rect x="260.513" y="479.172" width="107.486" height="28.0006" rx="3.16136" stroke="white" stroke-opacity="0.5" stroke-width="0.903246"/>
<path d="M292.645 488.705H294.628V487.827H295.213V488.705H299.126V487.827H299.712V488.705H301.695V489.215H299.712V492.965H301.869V493.485H299.462C300.004 494.222 300.861 494.808 302.02 495.219L301.782 495.729C300.416 495.154 299.452 494.407 298.899 493.485H295.43C294.877 494.407 293.956 495.165 292.655 495.772L292.363 495.284C293.512 494.808 294.346 494.211 294.867 493.485H292.471V492.965H294.628V489.215H292.645V488.705ZM295.213 492.965H299.126V492.022H295.213V492.965ZM295.213 491.534H299.126V490.635H295.213V491.534ZM295.213 490.158H299.126V489.215H295.213V490.158ZM296.883 493.951H297.468V494.894H299.722V495.425H297.468V496.802H301.24V497.355H293.035V496.802H296.883V495.425H294.607V494.894H296.883V493.951ZM303.849 489.898H308.173V487.871H308.759V489.898H313.072V490.472H309.376C310.124 492.271 311.468 493.875 313.398 495.274L313.007 495.783C311.035 494.211 309.658 492.445 308.899 490.472H308.759V494.873H311.165V495.447H308.759V497.734H308.173V495.447H305.854V494.873H308.173V490.472H308.022C307.219 492.694 305.81 494.504 303.816 495.913L303.48 495.382C305.388 494.114 306.753 492.477 307.555 490.472H303.849V489.898ZM319.735 489.02C319.399 489.475 318.976 489.876 318.467 490.234L318.141 489.8C318.944 489.258 319.496 488.597 319.778 487.816L320.331 487.881C320.244 488.098 320.158 488.304 320.06 488.499H324.016V488.933C323.734 489.496 323.409 489.973 323.052 490.385L322.64 490.06C322.911 489.757 323.16 489.41 323.388 489.02H319.735ZM315.226 488.521H317.849V489.041H315.226V488.521ZM314.987 490.483H318.087V490.992H314.987V490.483ZM321.133 489.28L321.642 489.388C321.599 489.562 321.534 489.735 321.458 489.898C322.26 490.754 323.29 491.263 324.547 491.437L324.309 491.935C323.073 491.74 322.054 491.198 321.231 490.309C320.732 491.068 319.876 491.578 318.673 491.816L318.391 491.382C319.93 491.101 320.851 490.396 321.133 489.28ZM316.331 491.957H323.203V496.108H316.331V491.957ZM322.629 495.61V494.808H316.906V495.61H322.629ZM316.906 494.385H322.629V493.637H316.906V494.385ZM316.906 493.214H322.629V492.423H316.906V493.214ZM320.884 496.314C322.141 496.542 323.333 496.867 324.482 497.301L324.298 497.777C323.149 497.322 321.935 496.975 320.678 496.726L320.884 496.314ZM318.51 496.271L318.803 496.672C317.99 497.127 316.819 497.485 315.302 497.767L315.031 497.301C316.559 497.04 317.719 496.694 318.51 496.271ZM326.852 488.749C327.08 489.399 327.286 490.147 327.47 490.992L327.004 491.111C326.831 490.342 326.614 489.605 326.354 488.911L326.852 488.749ZM329.746 488.554L330.256 488.619C330.18 489.529 330.017 490.331 329.757 491.036L329.302 490.895C329.54 490.212 329.681 489.431 329.746 488.554ZM326.375 491.729H328.121V487.838H328.706V491.729H330.364V492.304H328.706V497.691H328.121V492.304H326.375V491.729ZM334.212 487.871H334.786V494.136L335.903 493.962L336 494.526L334.786 494.71V497.712H334.212V494.797L330.863 495.317L330.787 494.753L334.212 494.222V487.871ZM331.708 488.727C332.467 489.258 333.096 489.789 333.616 490.32L333.237 490.71C332.76 490.19 332.12 489.648 331.318 489.085L331.708 488.727ZM331.405 491.274C332.163 491.827 332.803 492.38 333.323 492.943L332.933 493.323C332.467 492.792 331.827 492.228 331.025 491.632L331.405 491.274ZM329.725 492.997C329.985 493.745 330.212 494.602 330.418 495.577L329.941 495.696C329.768 494.808 329.562 493.951 329.324 493.138L329.725 492.997ZM327.058 493.041L327.514 493.16C327.275 494.287 326.982 495.274 326.625 496.13L326.17 495.967C326.506 495.198 326.798 494.222 327.058 493.041Z" fill="white"/>
<rect x="260.513" y="522.528" width="107.486" height="28.0006" rx="3.16136" stroke="white" stroke-opacity="0.5" stroke-width="0.903246"/>
<path d="M299.181 537.307C299.376 537.849 299.625 538.326 299.918 538.738C300.46 538.467 300.98 538.044 301.478 537.48L301.869 537.87C301.392 538.434 300.85 538.857 300.243 539.149C300.763 539.767 301.413 540.233 302.183 540.548L301.869 541.003C300.395 540.396 299.354 539.258 298.736 537.567L299.181 537.307ZM295.279 539.204H294.628L294.509 538.759V541.133H293.978V533.513H293.035V539.236H292.525V532.982H293.978V531.161H294.509V532.982H295.951V538.423C295.951 538.943 295.723 539.204 295.279 539.204ZM294.509 533.513V538.683L295.105 538.705C295.333 538.705 295.452 538.575 295.452 538.315V533.513H294.509ZM301.63 531.595V532.126H297.631V533.177H301.283V533.697H297.631V534.77H301.327V535.291H297.631V536.331H302.042V536.873H297.544V540.363C298.107 540.19 298.682 539.951 299.256 539.637L299.354 540.179C298.671 540.537 297.88 540.829 296.98 541.057L296.753 540.558C296.904 540.515 296.98 540.461 296.98 540.374V536.873H296.232V536.331H297.067V531.595H301.63ZM303.957 531.681H306.959V534.445H303.957V531.681ZM306.407 533.936V532.18H304.51V533.936H306.407ZM303.534 535.291H307.295V535.854H305.095C304.987 536.353 304.867 536.83 304.737 537.263H306.797C306.775 539.279 306.591 540.407 306.244 540.667C306.005 540.873 305.464 540.981 304.618 540.992H304.445L304.271 540.45C304.401 540.45 304.521 540.461 304.629 540.461C305.268 540.461 305.669 540.385 305.832 540.233C306.06 540.06 306.19 539.247 306.222 537.805H304.033C304.239 537.068 304.401 536.418 304.521 535.854H303.534V535.291ZM310.016 531.15H310.601V531.876H312.921V532.386H310.601V533.286H313.127V533.567C313.018 534.109 312.867 534.619 312.661 535.117L312.129 534.966C312.292 534.619 312.422 534.239 312.531 533.817H310.59V534.933L311.934 534.749L312.01 535.258L310.59 535.453V536.136C310.59 536.385 310.72 536.516 310.981 536.516H312.888V537.025H310.85C310.298 537.025 310.027 536.765 310.027 536.245V535.529L308.889 535.692L308.802 535.182L310.027 535.009V533.817H308.368V536.364C308.358 538.206 308.022 539.778 307.371 541.079L306.916 540.678C307.48 539.561 307.783 538.131 307.805 536.396V533.286H310.016V531.15ZM309.463 537.415H310.027C309.994 539.225 309.593 540.461 308.813 541.133L308.358 540.775C309.073 540.19 309.441 539.063 309.463 537.415ZM312.4 540.916H311.924C311.338 540.916 311.056 540.667 311.056 540.168V537.426H311.609V540.082C311.609 540.277 311.707 540.374 311.924 540.385H312.379C312.574 540.374 312.704 540.266 312.747 540.071C312.791 539.832 312.812 539.399 312.812 538.792L313.322 538.987C313.322 539.854 313.257 540.396 313.137 540.602C313.029 540.797 312.78 540.905 312.4 540.916ZM322.813 535.486V537.513H317.296V538.391H323.312V541.079H322.726V540.591H317.296V541.068H316.711V535.486H322.813ZM317.296 540.06H322.726V538.878H317.296V540.06ZM317.296 537.025H322.239V535.984H317.296V537.025ZM324.298 534.218V536.082H323.724V534.727H315.789V536.082H315.215V534.218H319.594C319.464 533.925 319.334 533.665 319.204 533.426L319.778 533.318C319.919 533.578 320.049 533.882 320.168 534.218H324.298ZM316.375 532.559C316.104 532.993 315.789 533.405 315.443 533.773L314.944 533.459C315.616 532.765 316.115 531.996 316.429 531.139L317.003 531.259C316.895 531.519 316.787 531.779 316.667 532.028H319.713V532.559H317.751C318.033 532.939 318.25 533.286 318.412 533.611L317.881 533.817C317.665 533.383 317.404 532.971 317.123 532.559H316.375ZM321.057 532.559C320.851 532.95 320.624 533.307 320.363 533.632L319.865 533.307C320.396 532.668 320.786 531.952 321.035 531.15L321.588 531.269C321.502 531.53 321.404 531.79 321.306 532.028H324.547V532.559H322.499C322.759 532.906 322.965 533.22 323.117 533.524L322.585 533.708C322.38 533.318 322.141 532.928 321.859 532.559H321.057ZM330.212 531.671H335.372V536.548H333.085V538H335.589V538.553H333.085V540.168H336V540.743H329.519V540.168H332.499V538.553H329.996V538H332.499V536.548H330.212V531.671ZM334.797 536.017V534.38H333.085V536.017H334.797ZM332.499 536.017V534.38H330.776V536.017H332.499ZM330.776 533.871H332.499V532.202H330.776V533.871ZM333.085 532.202V533.871H334.797V532.202H333.085ZM326.321 535.28H327.6V532.527H326.17V531.963H329.605V532.527H328.186V535.28H329.475V535.854H328.186V538.553C328.641 538.391 329.074 538.217 329.486 538.044V538.618C328.489 539.041 327.405 539.388 326.245 539.67L326.104 539.117C326.625 539.008 327.123 538.889 327.6 538.738V535.854H326.321V535.28Z" fill="white"/>
<rect x="260.513" y="565.883" width="107.486" height="28.0006" rx="3.16136" stroke="white" stroke-opacity="0.5" stroke-width="0.903246"/>
<path d="M305.238 579.134H311.156V581.659H305.238V579.134ZM310.56 581.128V579.654H305.834V581.128H310.56ZM306.083 581.995C306.463 582.429 306.799 582.938 307.102 583.535H309.324C309.682 583.036 309.996 582.494 310.256 581.92L310.809 582.125C310.549 582.646 310.267 583.123 309.942 583.535H312.782V584.098H303.547V583.535H306.506C306.246 583.058 305.921 582.613 305.531 582.201L306.083 581.995ZM304.338 576.067C304.945 576.5 305.466 576.923 305.899 577.346C306.484 576.814 306.94 576.218 307.276 575.568H304.403V575.015H307.937V575.46C307.601 576.24 307.135 576.923 306.528 577.53H310.224C309.422 576.749 308.793 575.893 308.349 574.939L308.837 574.657C309.053 575.145 309.324 575.6 309.639 576.034C310.159 575.665 310.614 575.232 310.983 574.755L311.405 575.134C311.015 575.633 310.527 576.067 309.964 576.457C310.246 576.793 310.549 577.107 310.896 577.411C311.46 576.999 311.936 576.533 312.327 576.012L312.749 576.392C312.337 576.912 311.861 577.367 311.319 577.757C311.882 578.213 312.522 578.614 313.237 578.971L312.847 579.405C311.85 578.874 310.993 578.267 310.289 577.595V578.083H306.365V577.692C305.628 578.375 304.729 578.95 303.645 579.405L303.287 578.939C304.132 578.581 304.869 578.169 305.487 577.692C305.065 577.291 304.544 576.879 303.937 576.446L304.338 576.067ZM322.522 578.397V575.362H323.108V578.961H319.769V583.123H323.032V580.099H323.606V584.369H323.032V583.697H315.9V584.369H315.325V580.099H315.9V583.123H319.162V578.961H315.824V575.362H316.409V578.397H319.162V574.538H319.769V578.397H322.522Z" fill="white"/>
<rect x="396.641" y="65.9375" width="99.357" height="28.9039" rx="3.61298" fill="#2C2C2C"/>
<path d="M423.596 77.2986H424.171V78.686H427.856V79.2496H424.171V80.9947H427.043V84.94H426.458V84.3547H421.656V84.94H421.071V80.9947H423.596V77.2986ZM421.656 83.7911H426.458V81.5475H421.656V83.7911ZM423.466 75.0007C423.662 75.3476 423.857 75.7486 424.03 76.193H428.03V76.7566H419.965V79.2279C419.922 81.5908 419.532 83.4768 418.773 84.8967L418.329 84.4957C419.001 83.2383 419.348 81.4824 419.38 79.2279V76.193H423.434C423.26 75.792 423.065 75.4343 422.859 75.1091L423.466 75.0007ZM434.562 74.9899C434.714 75.3151 434.844 75.6836 434.963 76.0846H439.06V77.8731H438.475V76.6374H430.584V77.8731H429.999V76.0846H434.388C434.258 75.7161 434.118 75.3909 433.977 75.0983L434.562 74.9899ZM431.267 77.8405H437.792V78.3933H435.299C434.952 78.6318 434.605 78.8486 434.28 79.0437C434.757 79.5423 435.115 80.0842 435.353 80.6695L435.396 80.6045C435.407 80.6261 435.418 80.637 435.44 80.6587C436.394 80.2901 437.282 79.7157 438.128 78.9353L438.529 79.3363C437.716 80.1059 436.795 80.6912 435.776 81.0814C436.665 82.1219 437.868 82.989 439.374 83.7044L439.06 84.2355C437.629 83.5093 436.48 82.6314 435.635 81.5908C435.7 81.9377 435.743 82.2953 435.754 82.6639C435.754 83.4876 435.635 84.0729 435.418 84.3981C435.18 84.7449 434.605 84.9292 433.684 84.9292H433.326L433.131 84.4198H433.608C434.28 84.4089 434.714 84.3114 434.887 84.1163C435.082 83.867 435.191 83.3792 435.191 82.6639C435.18 82.3929 435.158 82.1436 435.115 81.916C433.922 82.9023 432.286 83.7044 430.226 84.3331L429.934 83.8236C432.145 83.1733 433.825 82.3495 434.995 81.3415C434.898 81.0055 434.768 80.6912 434.616 80.3985C433.586 81.2223 432.166 81.8943 430.356 82.4146L430.075 81.9051C431.928 81.4066 433.359 80.7562 434.356 79.9541C434.193 79.7157 434.02 79.4881 433.836 79.293C433.706 79.358 433.586 79.4122 433.478 79.4664C432.698 79.8132 431.733 80.1601 430.562 80.4852L430.248 79.9975C431.321 79.7482 432.264 79.4555 433.077 79.1087C433.576 78.8919 434.042 78.6535 434.464 78.3933H431.267V77.8405ZM441.799 84.2247V84.9184H441.257V81.2331H444.053V84.7775H443.511V84.2247H441.799ZM443.511 83.6827V81.7642H441.799V83.6827H443.511ZM440.975 76.5832H444.324V77.136H440.975V76.5832ZM441.3 78.1549H444.01V78.686H441.3V78.1549ZM441.3 79.6073H444.01V80.1492H441.3V79.6073ZM447.359 77.6021H444.823V77.0385H448.215C448.562 76.4206 448.866 75.7595 449.126 75.0441L449.7 75.2392C449.429 75.922 449.126 76.5182 448.779 77.0385H450.47V77.6021H447.944V79.3688H450.156V79.9325H447.944V81.7534H450.752V82.3062H447.944V84.9834H447.359V82.3062H444.563V81.7534H447.359V79.9325H445.159V79.3688H447.359V77.6021ZM446.08 75.0874C446.416 75.5644 446.73 76.0955 447.034 76.6591L446.557 76.9084C446.254 76.3122 445.928 75.7811 445.581 75.3151L446.08 75.0874ZM442.579 75.0658C442.807 75.521 442.98 75.9329 443.099 76.3122L442.601 76.5073C442.427 76.063 442.232 75.6294 442.005 75.2175L442.579 75.0658ZM458.574 74.9899H459.159V75.8028H461.76V76.3014H459.159V77.1794H461.392V77.6671H459.159V78.5342H462.064V79.0437H455.68V78.5342H458.574V77.6671H456.308V77.1794H458.574V76.3014H455.94V75.8028H458.574V74.9899ZM457.089 81.7642V81.9377C457.078 82.1978 457.056 82.4363 457.035 82.6747H460.59V81.7642H457.089ZM460.59 81.2982V80.3443H457.089V81.2982H460.59ZM456.959 83.1408C456.807 83.8453 456.536 84.4523 456.146 84.9509L455.712 84.5607C456.233 83.8778 456.504 83.0216 456.525 81.981V79.8566H461.153V84.1163C461.153 84.6257 460.893 84.8859 460.384 84.8859H459.094L458.953 84.3656C459.408 84.3873 459.831 84.3981 460.221 84.3981C460.46 84.3981 460.59 84.2355 460.59 83.9212V83.1408H456.959ZM452.515 77.1252L452.981 77.1685C452.959 78.2524 452.84 79.2821 452.623 80.2576L452.157 80.1384C452.363 79.1846 452.482 78.1765 452.515 77.1252ZM454.921 76.9192C455.192 77.5045 455.43 78.1657 455.647 78.9136L455.192 79.0328C455.008 78.35 454.78 77.6888 454.498 77.0601L454.921 76.9192ZM453.642 75.0983H454.227V84.8967H453.642V75.0983ZM464.954 77.2227H467.772C467.892 76.8542 467.978 76.464 468.033 76.0738H463.773V75.5318H473.029V76.0738H468.618C468.553 76.4748 468.477 76.8542 468.369 77.2227H472.01V82.989H464.954V77.2227ZM471.447 82.4363V81.1681H465.54V82.4363H471.447ZM465.54 80.6478H471.447V79.4555H465.54V80.6478ZM465.54 78.9353H471.447V77.7647H465.54V78.9353ZM469.691 83.2492C470.992 83.5743 472.173 83.9754 473.235 84.4523L472.91 84.9292C471.783 84.3873 470.612 83.9645 469.42 83.6611L469.691 83.2492ZM467.057 83.2492L467.361 83.6502C466.537 84.1922 465.355 84.6257 463.805 84.9509L463.524 84.4631C465.074 84.1488 466.255 83.7478 467.057 83.2492Z" fill="white"/>
<rect x="396.641" y="270.975" width="99.357" height="28.9039" rx="3.61298" fill="#2C2C2C"/>
<path d="M430.865 280.103H431.428V282.737L433.726 282.054C433.694 283.344 433.542 284.72 433.271 286.184L432.718 286.01C432.924 284.97 433.076 283.886 433.163 282.78L431.428 283.3V287.647H430.865V283.474L429.282 283.962V288.644C429.282 289.034 429.456 289.24 429.802 289.24H432.675C432.946 289.24 433.141 289.164 433.249 289.012C433.39 288.807 433.488 288.221 433.542 287.257L434.095 287.43C434.03 288.536 433.889 289.218 433.672 289.479C433.477 289.685 433.184 289.793 432.794 289.793H429.629C429.011 289.793 428.708 289.446 428.708 288.763V284.135L427.851 284.395V283.81L428.708 283.561V281.198H429.282V283.387L430.865 282.91V280.103ZM424.415 283.105H425.77V280.135H426.356V283.105H427.635V283.68H426.356V287.484C426.876 287.3 427.385 287.094 427.884 286.866V287.463C426.822 287.939 425.662 288.34 424.426 288.644L424.275 288.059C424.795 287.95 425.293 287.82 425.77 287.679V283.68H424.415V283.105ZM438.687 282H443.521V284.438H438.687V282ZM442.957 283.897V282.531H439.24V283.897H442.957ZM437.874 285.338H440.703V288.21H437.874V285.338ZM440.161 287.701V285.837H438.394V287.701H440.161ZM441.743 285.338H444.561V288.21H441.743V285.338ZM444.03 287.701V285.837H442.274V287.701H444.03ZM435.771 280.601H444.995V281.165H436.931V288.568C436.931 288.893 437.093 289.056 437.419 289.056H445.233V289.619H437.278C436.649 289.619 436.346 289.305 436.346 288.687V281.165H435.771V280.601ZM448.384 281.653C448.113 282.108 447.81 282.52 447.474 282.899L446.975 282.574C447.669 281.826 448.178 280.981 448.503 280.027L449.078 280.146C448.948 280.493 448.818 280.807 448.677 281.111H451.733V281.653H449.923C450.313 282.054 450.617 282.422 450.834 282.769L450.313 282.964C450.032 282.509 449.685 282.076 449.284 281.653H448.384ZM453.034 281.609C452.806 282.054 452.546 282.466 452.254 282.834L451.744 282.509C452.34 281.794 452.774 280.97 453.056 280.06L453.619 280.179C453.522 280.482 453.413 280.786 453.294 281.068H456.557V281.609H454.475C454.801 282.032 455.05 282.422 455.245 282.791L454.736 282.975C454.486 282.498 454.194 282.043 453.858 281.609H453.034ZM448.124 287.322V288.763H450.552V287.322H448.124ZM448.124 289.283V289.945H447.56V283.485H448.579C448.698 283.181 448.785 282.867 448.85 282.542L449.446 282.628C449.381 282.932 449.284 283.224 449.164 283.485H450.844V285.707H448.124V286.812H451.115V289.815H450.552V289.283H448.124ZM448.124 285.186H450.292V284.005H448.124V285.186ZM453.749 283.842H451.538V283.3H456.492V283.842H454.313V285.013H456.199V288.384C456.199 288.926 455.96 289.208 455.494 289.208H454.779L454.627 288.655L455.31 288.676C455.538 288.676 455.657 288.536 455.657 288.265V285.533H454.313V289.955H453.749V285.533H452.416V289.24H451.874V285.013H453.749V283.842ZM463.067 283.94H463.587V284.731H465.56V283.94H466.091V284.731H467.554V285.241H466.091V286.389H467.88V286.91H461.279V286.389H463.067V285.241H461.561V284.731H463.067V283.94ZM463.587 286.389H465.56V285.241H463.587V286.389ZM465.419 287.127C466.243 287.473 466.991 287.896 467.663 288.395L467.37 288.828C466.655 288.275 465.907 287.842 465.148 287.528L465.419 287.127ZM463.598 287.127L463.967 287.463C463.381 287.95 462.666 288.384 461.821 288.763L461.506 288.351C462.33 288.004 463.035 287.593 463.598 287.127ZM458.948 280.298C459.631 280.786 460.206 281.273 460.661 281.75L460.271 282.141C459.848 281.685 459.274 281.187 458.558 280.667L458.948 280.298ZM458.331 282.888H460.661V283.355C460.271 284.027 459.815 284.688 459.295 285.338H460.78V285.728C460.628 286.639 460.433 287.408 460.195 288.037C460.303 288.08 460.412 288.156 460.52 288.265C460.845 288.601 461.203 288.861 461.593 289.034C461.962 289.186 462.46 289.262 463.111 289.273C463.696 289.273 464.379 289.283 465.137 289.283C465.874 289.283 466.85 289.262 468.042 289.24L467.912 289.804H465.213C464.357 289.804 463.642 289.793 463.056 289.782C462.319 289.76 461.745 289.663 461.344 289.479C460.889 289.283 460.487 288.991 460.13 288.601C460.043 288.525 459.946 288.492 459.859 288.492C459.555 288.492 459.143 288.958 458.634 289.89L458.211 289.522C458.721 288.568 459.209 288.048 459.664 287.95C459.902 287.354 460.086 286.65 460.238 285.837H458.602V285.392C459.165 284.742 459.642 284.081 460.032 283.43H458.331V282.888ZM466.991 280.905H465.387V281.815H466.991V280.905ZM465.387 282.238V282.899C465.387 283.094 465.506 283.203 465.744 283.203H467.706V283.658H465.495C465.083 283.658 464.877 283.474 464.877 283.116V280.471H467.489V282.238H465.387ZM461.636 283.864L461.452 283.485C461.582 283.42 461.647 283.333 461.647 283.203V280.471H464.227V282.238H462.157V283.344C462.872 283.257 463.577 283.159 464.259 283.051L464.39 283.485C463.577 283.626 462.655 283.756 461.636 283.864ZM462.157 281.815H463.718V280.916H462.157V281.815Z" fill="white"/>
<path d="M257.842 78.5823C257.842 79.9126 258.92 80.991 260.25 80.991C261.581 80.991 262.659 79.9126 262.659 78.5823C262.659 77.2521 261.581 76.1737 260.25 76.1737C258.92 76.1737 257.842 77.2521 257.842 78.5823ZM217.798 47.4204H229.992V46.5171H217.798V47.4204ZM238.573 56.0012V69.5499H239.476V56.0012H238.573ZM248.057 79.034H260.25V78.1307H248.057V79.034ZM238.573 69.5499C238.573 74.7878 242.819 79.034 248.057 79.034V78.1307C243.318 78.1307 239.476 74.289 239.476 69.5499H238.573ZM229.992 47.4204C234.731 47.4204 238.573 51.2621 238.573 56.0012H239.476C239.476 50.7633 235.23 46.5171 229.992 46.5171V47.4204Z" fill="#FFA92D"/>
<path d="M394.234 78.582C394.234 79.9123 395.312 80.9907 396.642 80.9907C397.972 80.9907 399.051 79.9123 399.051 78.582C399.051 77.2518 397.972 76.1734 396.642 76.1734C395.312 76.1734 394.234 77.2518 394.234 78.582ZM368.642 79.0337H396.642V78.1304H368.642V79.0337Z" fill="#FFA92D"/>
<path d="M394.234 284.521C394.234 285.852 395.312 286.93 396.642 286.93C397.972 286.93 399.051 285.852 399.051 284.521C399.051 283.191 397.972 282.113 396.642 282.113C395.312 282.113 394.234 283.191 394.234 284.521ZM368.642 284.973H396.642V284.07H368.642V284.973Z" fill="#FFA92D"/>
<path d="M116.034 459.753C116.034 461.083 117.112 462.162 118.443 462.162C119.773 462.162 120.851 461.083 120.851 459.753C120.851 458.423 119.773 457.344 118.443 457.344C117.112 457.344 116.034 458.423 116.034 459.753ZM49.7959 13.0981H75.0868V12.1949H49.7959V13.0981ZM83.6676 21.6789V450.721H84.5709V21.6789H83.6676ZM93.1517 460.205H118.443V459.301H93.1517V460.205ZM83.6676 450.721C83.6676 455.959 87.9138 460.205 93.1517 460.205V459.301C88.4126 459.301 84.5709 455.46 84.5709 450.721H83.6676ZM75.0868 13.0981C79.8258 13.0981 83.6676 16.9399 83.6676 21.6789H84.5709C84.5709 16.441 80.3247 12.1949 75.0868 12.1949V13.0981Z" fill="#9A9A9A"/>
<path d="M257.842 284.522C257.842 285.852 258.92 286.93 260.25 286.93C261.581 286.93 262.659 285.852 262.659 284.522C262.659 283.191 261.581 282.113 260.25 282.113C258.92 282.113 257.842 283.191 257.842 284.522ZM217.798 251.553H229.992V250.65H217.798V251.553ZM238.573 260.134V275.489H239.476V260.134H238.573ZM248.057 284.973H260.25V284.07H248.057V284.973ZM238.573 275.489C238.573 280.727 242.819 284.973 248.057 284.973V284.07C243.318 284.07 239.476 280.228 239.476 275.489H238.573ZM229.992 251.553C234.731 251.553 238.573 255.395 238.573 260.134H239.476C239.476 254.896 235.23 250.65 229.992 250.65V251.553Z" fill="#FFA92D"/>
<path d="M257.842 492.269C257.842 493.599 258.92 494.677 260.25 494.677C261.581 494.677 262.659 493.599 262.659 492.269C262.659 490.939 261.581 489.86 260.25 489.86C258.92 489.86 257.842 490.939 257.842 492.269ZM217.798 460.204H229.992V459.3H217.798V460.204ZM238.573 468.784V483.236H239.476V468.784H238.573ZM248.057 492.72H260.25V491.817H248.057V492.72ZM238.573 483.236C238.573 488.474 242.819 492.72 248.057 492.72V491.817C243.318 491.817 239.476 487.975 239.476 483.236H238.573ZM229.992 460.204C234.731 460.204 238.573 464.045 238.573 468.784H239.476C239.476 463.546 235.23 459.3 229.992 459.3V460.204Z" fill="#9A9A9A"/>
<path d="M257.842 124.648C257.842 125.978 258.92 127.057 260.25 127.057C261.581 127.057 262.659 125.978 262.659 124.648C262.659 123.318 261.581 122.239 260.25 122.239C258.92 122.239 257.842 123.318 257.842 124.648ZM217.798 47.4204H229.992V46.5171H217.798V47.4204ZM238.573 56.0012V115.615H239.476V56.0012H238.573ZM248.057 125.099H260.25V124.196H248.057V125.099ZM238.573 115.615C238.573 120.853 242.819 125.099 248.057 125.099V124.196C243.318 124.196 239.476 120.354 239.476 115.615H238.573ZM229.992 47.4204C234.731 47.4204 238.573 51.2621 238.573 56.0012H239.476C239.476 50.7633 235.23 46.5171 229.992 46.5171V47.4204Z" fill="#FFA92D"/>
<path d="M257.842 332.394C257.842 333.724 258.92 334.802 260.25 334.802C261.581 334.802 262.659 333.724 262.659 332.394C262.659 331.063 261.581 329.985 260.25 329.985C258.92 329.985 257.842 331.063 257.842 332.394ZM217.798 251.553H229.992V250.65H217.798V251.553ZM238.573 260.134V323.361H239.476V260.134H238.573ZM248.057 332.845H260.25V331.942H248.057V332.845ZM238.573 323.361C238.573 328.599 242.819 332.845 248.057 332.845V331.942C243.318 331.942 239.476 328.1 239.476 323.361H238.573ZM229.992 251.553C234.731 251.553 238.573 255.395 238.573 260.134H239.476C239.476 254.896 235.23 250.65 229.992 250.65V251.553Z" fill="#FFA92D"/>
<path d="M257.842 539.238C257.842 540.568 258.92 541.646 260.25 541.646C261.581 541.646 262.659 540.568 262.659 539.238C262.659 537.907 261.581 536.829 260.25 536.829C258.92 536.829 257.842 537.907 257.842 539.238ZM217.798 460.204H229.992V459.3H217.798V460.204ZM238.573 468.784V530.205H239.476V468.784H238.573ZM248.057 539.689H260.25V538.786H248.057V539.689ZM238.573 530.205C238.573 535.443 242.819 539.689 248.057 539.689V538.786C243.318 538.786 239.476 534.944 239.476 530.205H238.573ZM229.992 460.204C234.731 460.204 238.573 464.045 238.573 468.784H239.476C239.476 463.546 235.23 459.3 229.992 459.3V460.204Z" fill="#9A9A9A"/>
<path d="M257.842 171.617C257.842 172.947 258.92 174.025 260.25 174.025C261.581 174.025 262.659 172.947 262.659 171.617C262.659 170.286 261.581 169.208 260.25 169.208C258.92 169.208 257.842 170.286 257.842 171.617ZM217.798 47.4204H229.992V46.5171H217.798V47.4204ZM238.573 56.0012V162.584H239.476V56.0012H238.573ZM248.057 172.068H260.25V171.165H248.057V172.068ZM238.573 162.584C238.573 167.822 242.819 172.068 248.057 172.068V171.165C243.318 171.165 239.476 167.323 239.476 162.584H238.573ZM229.992 47.4204C234.731 47.4204 238.573 51.2621 238.573 56.0012H239.476C239.476 50.7633 235.23 46.5171 229.992 46.5171V47.4204Z" fill="#FFA92D"/>
<path d="M257.842 380.266C257.842 381.596 258.92 382.674 260.25 382.674C261.581 382.674 262.659 381.596 262.659 380.266C262.659 378.935 261.581 377.857 260.25 377.857C258.92 377.857 257.842 378.935 257.842 380.266ZM217.798 251.553H229.992V250.65H217.798V251.553ZM238.573 260.134V371.233H239.476V260.134H238.573ZM248.057 380.717H260.25V379.814H248.057V380.717ZM238.573 371.233C238.573 376.471 242.819 380.717 248.057 380.717V379.814C243.318 379.814 239.476 375.972 239.476 371.233H238.573ZM229.992 251.553C234.731 251.553 238.573 255.395 238.573 260.134H239.476C239.476 254.896 235.23 250.65 229.992 250.65V251.553Z" fill="#FFA92D"/>
<path d="M257.842 585.303C257.842 586.633 258.92 587.712 260.25 587.712C261.581 587.712 262.659 586.633 262.659 585.303C262.659 583.973 261.581 582.894 260.25 582.894C258.92 582.894 257.842 583.973 257.842 585.303ZM217.798 460.204H229.992V459.3H217.798V460.204ZM238.573 468.784V576.271H239.476V468.784H238.573ZM248.057 585.755H260.25V584.851H248.057V585.755ZM238.573 576.271C238.573 581.509 242.819 585.755 248.057 585.755V584.851C243.318 584.851 239.476 581.01 239.476 576.271H238.573ZM229.992 460.204C234.731 460.204 238.573 464.045 238.573 468.784H239.476C239.476 463.546 235.23 459.3 229.992 459.3V460.204Z" fill="#9A9A9A"/>
<path d="M116.034 46.9698C116.034 48.3001 117.112 49.3785 118.443 49.3785C119.773 49.3785 120.851 48.3001 120.851 46.9698C120.851 45.6396 119.773 44.5612 118.443 44.5612C117.112 44.5612 116.034 45.6396 116.034 46.9698ZM49.7959 13.0981H75.0868V12.1949H49.7959V13.0981ZM83.6676 21.6789V37.9374H84.5709V21.6789H83.6676ZM93.1517 47.4214H118.443V46.5182H93.1517V47.4214ZM83.6676 37.9374C83.6676 43.1753 87.9138 47.4214 93.1517 47.4214V46.5182C88.4126 46.5182 84.5709 42.6764 84.5709 37.9374H83.6676ZM75.0868 13.0981C79.8258 13.0981 83.6676 16.9399 83.6676 21.6789H84.5709C84.5709 16.441 80.3247 12.1949 75.0868 12.1949V13.0981Z" fill="#FFA92D"/>
<path d="M116.034 251.103C116.034 252.434 117.112 253.512 118.443 253.512C119.773 253.512 120.851 252.434 120.851 251.103C120.851 249.773 119.773 248.695 118.443 248.695C117.112 248.695 116.034 249.773 116.034 251.103ZM49.7959 13.0981H75.0868V12.1949H49.7959V13.0981ZM83.6676 21.6789V242.071H84.5709V21.6789H83.6676ZM93.1517 251.555H118.443V250.652H93.1517V251.555ZM83.6676 242.071C83.6676 247.309 87.9138 251.555 93.1517 251.555V250.652C88.4126 250.652 84.5709 246.81 84.5709 242.071H83.6676ZM75.0868 13.0981C79.8258 13.0981 83.6676 16.9399 83.6676 21.6789H84.5709C84.5709 16.441 80.3247 12.1949 75.0868 12.1949V13.0981Z" fill="#FFA92D"/>
</svg>
