<svg width="1123" height="345" viewBox="0 0 1123 345" fill="none" xmlns="http://www.w3.org/2000/svg">
<path d="M158.798 11.24H171.202V12.108H165.308L164.818 13.172H170.306V16.266C170.306 17.008 169.9 17.386 169.116 17.386H168.094L167.856 16.518L168.836 16.56C169.172 16.56 169.34 16.392 169.34 16.056V14.026H167.1V17.302H166.134V14.026H164.048V17.302H163.096V14.026H160.996V17.442H160.03V13.172H163.796L164.286 12.108H158.798V11.24ZM159.652 5.066H170.362V5.892H165.49V6.774H170.922V9.63H169.956V7.572H165.49V10.638H164.51V7.572H160.044V9.63H159.078V6.774H164.51V5.892H159.652V5.066ZM161.22 8.076C162.088 8.16 162.928 8.286 163.74 8.454L163.474 9.084C162.648 8.93 161.78 8.818 160.884 8.734L161.22 8.076ZM163.502 9.602L163.726 10.246C163.138 10.386 162.214 10.484 160.926 10.568L160.702 9.854C161.962 9.798 162.9 9.714 163.502 9.602ZM166.442 9.084L166.302 8.384C167.254 8.328 168.094 8.216 168.836 8.048L169.088 8.734C168.332 8.888 167.45 9 166.442 9.084ZM166.568 9.616C167.506 9.7 168.402 9.84 169.242 10.022L168.962 10.708C168.094 10.498 167.198 10.344 166.274 10.232L166.568 9.616ZM173.508 7.138H179.08V4.548H180.116V7.138H185.464V8.104H180.116V9C180.494 9.84 180.942 10.624 181.474 11.366C182.482 10.638 183.336 9.798 184.05 8.86L184.806 9.532C184.036 10.498 183.112 11.352 182.034 12.08C183.084 13.368 184.386 14.516 185.926 15.496L185.226 16.322C182.986 14.782 181.278 12.892 180.116 10.652V16.14C180.116 16.924 179.724 17.316 178.94 17.316H176.966L176.756 16.35C177.4 16.392 178.002 16.42 178.59 16.42C178.912 16.42 179.08 16.238 179.08 15.902V8.104H173.508V7.138ZM174.936 9.154C175.972 9.91 176.854 10.666 177.554 11.422L176.868 12.108C176.224 11.38 175.356 10.624 174.25 9.812L174.936 9.154ZM181.95 4.674C182.734 5.248 183.406 5.822 183.938 6.396L183.252 7.082C182.776 6.522 182.118 5.934 181.292 5.29L181.95 4.674ZM178.058 12.038L178.31 12.948C177.092 14.264 175.58 15.44 173.788 16.448L173.354 15.454C175.174 14.53 176.742 13.382 178.058 12.038ZM189.898 8.72H198.13V9.672H194.574V12.136H198.746V13.088H194.574V15.986C195.554 16.126 196.73 16.21 198.13 16.224C198.844 16.224 199.572 16.196 200.328 16.14L200.146 17.148H198.578C195.75 17.148 193.734 16.882 192.502 16.364C191.578 15.93 190.822 15.258 190.248 14.348C189.702 15.552 189.03 16.56 188.232 17.372L187.588 16.574C188.932 15.146 189.828 13.228 190.304 10.82L191.284 10.988C191.116 11.856 190.892 12.654 190.64 13.382C191.312 14.586 192.152 15.342 193.16 15.664C193.286 15.706 193.426 15.748 193.566 15.776V9.672H189.898V8.72ZM199.726 5.99V8.972H198.746V6.914H189.254V9.042H188.274V5.99H193.622C193.412 5.486 193.174 5.024 192.922 4.604L194 4.436C194.224 4.898 194.448 5.416 194.644 5.99H199.726ZM202.816 5.696H205.994C205.826 5.388 205.644 5.094 205.434 4.828L206.372 4.478C206.61 4.814 206.834 5.22 207.044 5.696H209.802C210.082 5.332 210.32 4.94 210.53 4.52L211.496 4.856C211.314 5.164 211.118 5.444 210.908 5.696H214.128V6.508H208.948V7.334H213.638V8.132H208.948V9.028H214.604V9.84H202.424V9.028H207.968V8.132H203.474V7.334H207.968V6.508H202.816V5.696ZM202.424 12.22H205.336V11.422C204.734 11.45 204.09 11.478 203.39 11.478L203.124 10.68C205 10.68 206.554 10.554 207.786 10.302L208.22 11.044C207.66 11.17 207.03 11.268 206.33 11.352V12.22H209.592C209.48 11.632 209.382 11.002 209.298 10.316L210.292 10.204C210.376 10.96 210.46 11.632 210.558 12.22H214.478V13.06H213.134L213.694 13.48C213.12 14.236 212.448 14.908 211.664 15.468C211.72 15.58 211.79 15.664 211.86 15.748C212.196 16.112 212.49 16.308 212.714 16.308C213.176 16.28 213.624 15.804 214.044 14.88L214.842 15.384C214.254 16.644 213.582 17.288 212.812 17.288C212.392 17.288 211.958 17.064 211.51 16.63C211.3 16.434 211.104 16.21 210.936 15.944C210.026 16.476 209.004 16.924 207.87 17.274L207.478 16.42C208.612 16.084 209.606 15.664 210.474 15.146C210.39 14.992 210.32 14.838 210.25 14.684C210.068 14.264 209.9 13.732 209.76 13.06H206.33V14.138C207.17 13.998 207.912 13.83 208.57 13.648V14.488C207.954 14.67 207.212 14.838 206.33 14.992V16.112C206.33 16.938 205.896 17.358 205.056 17.358H203.768L203.572 16.448C203.978 16.49 204.37 16.518 204.734 16.518C205.126 16.518 205.336 16.294 205.336 15.86V15.146C204.524 15.258 203.614 15.356 202.634 15.454L202.494 14.516C203.53 14.46 204.468 14.376 205.336 14.278V13.06H202.424V12.22ZM211.216 14.642C211.86 14.166 212.406 13.634 212.868 13.06H210.726C210.796 13.438 210.88 13.76 210.978 14.04C211.062 14.264 211.132 14.46 211.216 14.642ZM211.832 10.064C212.728 10.512 213.484 10.946 214.1 11.394L213.47 12.024C212.924 11.59 212.168 11.128 211.216 10.652L211.832 10.064Z" fill="white"/>
<path d="M537.39 12.472V16.504H534.114V17.19H533.162V12.472H537.39ZM534.114 15.594H536.466V13.354H534.114V15.594ZM532.686 6.41H535.094C534.856 5.85 534.576 5.304 534.24 4.786L535.206 4.52C535.542 5.136 535.794 5.696 535.99 6.214L535.444 6.41H537.908V7.334H532.686V6.41ZM533.274 8.454H537.292V9.336H533.274V8.454ZM533.274 10.386H537.292V11.268H533.274V10.386ZM538.356 10.554H544.39V11.478C543.998 12.766 543.368 13.872 542.472 14.796C543.312 15.468 544.334 16.07 545.566 16.574L545.02 17.442C543.732 16.854 542.654 16.182 541.786 15.44C540.778 16.28 539.518 16.938 538.034 17.442L537.488 16.588C538.916 16.112 540.092 15.496 541.044 14.74C540.162 13.788 539.56 12.71 539.238 11.534H538.356V10.554ZM540.204 11.534C540.498 12.486 541.016 13.354 541.744 14.11C542.472 13.354 543.032 12.486 543.41 11.534H540.204ZM539.406 5.108H543.592V8.132C543.592 8.482 543.774 8.664 544.166 8.664H545.16V9.588H543.914C543.018 9.588 542.584 9.168 542.584 8.342V6.06H540.4V6.69C540.4 8.09 539.742 9.168 538.454 9.924L537.782 9.182C538.86 8.622 539.406 7.824 539.406 6.788V5.108ZM548.53 16.546V17.386H547.564V12.458H551.834V17.19H550.868V16.546H548.53ZM550.868 15.622V13.368H548.53V15.622H550.868ZM547.06 6.396H549.468C549.258 5.836 549.006 5.29 548.712 4.786L549.678 4.52C549.986 5.136 550.224 5.71 550.392 6.214L549.902 6.396H552.352V7.334H547.06V6.396ZM547.606 8.468H551.792V9.35H547.606V8.468ZM547.606 10.386H551.792V11.282H547.606V10.386ZM555.698 4.59H556.692V9.182H559.898V10.162H556.692V17.386H555.698V10.162H552.59V9.182H555.698V4.59ZM567.636 5.122H573.474V12.864H571.976V16.042C571.976 16.182 572.046 16.266 572.214 16.266H572.928C573.236 16.252 573.418 16.084 573.474 15.748C573.53 15.37 573.558 14.768 573.558 13.928L574.426 14.236C574.426 15.566 574.328 16.392 574.146 16.7C573.964 16.994 573.572 17.162 572.97 17.19H572.186C571.402 17.19 571.024 16.854 571.024 16.21V12.864H570.002C569.834 14.936 568.756 16.434 566.782 17.372L566.25 16.532C567.972 15.776 568.91 14.558 569.078 12.864H567.636V5.122ZM572.55 12.01V10.484H568.574V12.01H572.55ZM568.574 9.672H572.55V8.202H568.574V9.672ZM568.574 7.39H572.55V5.962H568.574V7.39ZM562.008 6.844H564.052V4.548H565.032V6.844H566.796V7.824H565.032V10.008C565.032 10.092 565.018 10.176 565.018 10.26H566.992V11.226H564.976C564.948 11.534 564.906 11.842 564.864 12.15C565.62 12.85 566.404 13.648 567.188 14.516L566.628 15.37C565.858 14.376 565.214 13.62 564.696 13.088C564.276 14.852 563.506 16.238 562.358 17.246L561.63 16.616C563.002 15.426 563.786 13.634 563.996 11.226H561.812V10.26H564.052V7.824H562.008V6.844ZM583.326 8.762H580.75V9.406H583.76V10.05H580.75V10.694H584.208V11.366H576.34V10.694H579.798V10.05H576.802V9.406H579.798V8.762H577.18V8.104H579.84V7.376H576.214V6.718H579.84V6.004H577.278V5.332H579.798V4.576H580.75V5.332H583.326V6.676H584.544V7.432H583.326V8.762ZM580.708 6.004V6.718H582.402V6.004H580.708ZM580.708 7.376V8.104H582.402V7.376H580.708ZM577.04 11.94H583.508V15.482H577.04V11.94ZM582.584 14.852V13.998H580.722V14.852H582.584ZM579.826 14.852V13.998H577.95V14.852H579.826ZM577.95 13.396H579.826V12.57H577.95V13.396ZM580.722 12.57V13.396H582.584V12.57H580.722ZM584.096 16.084V16.826C582.388 16.91 579.84 16.994 576.466 17.078L576.354 16.266C579.546 16.238 582.136 16.168 584.096 16.084ZM587.19 17.288H585.65L585.44 16.35C585.93 16.392 586.406 16.42 586.854 16.42C587.19 16.42 587.372 16.224 587.372 15.86V4.604H588.352V16.098C588.352 16.882 587.96 17.288 587.19 17.288ZM585.132 5.836H586.028V14.53H585.132V5.836Z" fill="white"/>
<path d="M907.092 13.69L907.89 13.788C907.82 15.076 907.652 16.224 907.372 17.204L906.56 16.966C906.84 16.014 907.022 14.922 907.092 13.69ZM909.15 13.662C909.374 14.53 909.57 15.482 909.738 16.518L908.912 16.7C908.786 15.608 908.618 14.656 908.422 13.816L909.15 13.662ZM910.256 9.994C910.55 10.82 910.802 11.758 911.026 12.822L910.27 13.018C910.214 12.766 910.172 12.514 910.116 12.29C909.01 12.626 907.946 12.85 906.924 12.976L906.672 12.108C906.84 12.052 906.98 11.968 907.092 11.856C907.554 11.352 908.114 10.526 908.758 9.378C908.114 9.49 907.484 9.588 906.854 9.686L906.602 8.79C906.756 8.72 906.896 8.594 907.008 8.426C907.652 7.278 908.198 5.962 908.674 4.478L909.584 4.842C908.954 6.48 908.324 7.782 907.68 8.762C908.198 8.692 908.716 8.608 909.234 8.51C909.5 7.978 909.78 7.432 910.074 6.844L910.956 7.166C909.752 9.462 908.758 11.086 907.974 12.01C908.632 11.898 909.29 11.758 909.934 11.59C909.808 11.114 909.668 10.666 909.528 10.232L910.256 9.994ZM910.494 13.284C910.802 14.012 911.068 14.81 911.306 15.65L910.578 15.972C910.354 15.034 910.102 14.208 909.822 13.508L910.494 13.284ZM914.722 15.034C914.05 15.034 913.728 14.684 913.728 14.012V12.136H913.14V11.268H914.932C914.778 10.806 914.61 10.386 914.428 10.008L915.296 9.868C915.45 10.288 915.604 10.75 915.744 11.268H917.284V12.136H914.596V13.872C914.596 14.096 914.722 14.208 914.988 14.208H917.088V15.034H914.722ZM914.12 6.69C914.4 7.194 914.652 7.74 914.876 8.314L914.176 8.622C913.938 7.978 913.672 7.418 913.392 6.928L914.12 6.69ZM916.024 6.606L916.864 6.718C916.724 7.418 916.514 8.076 916.248 8.664H917.41V9.532H913V8.664H915.492C915.744 8.006 915.912 7.32 916.024 6.606ZM917.788 17.19H915.996L915.744 16.28L917.48 16.322C917.788 16.322 917.956 16.14 917.956 15.776V6.046H912.454V17.288H911.53V5.15H918.894V15.986C918.894 16.784 918.516 17.19 917.788 17.19ZM922.964 7.292H926.604C926.73 6.872 926.828 6.452 926.884 6.018H921.494V5.094H933.506V6.018H927.892C927.822 6.466 927.738 6.886 927.626 7.292H932.26V14.936H922.964V7.292ZM931.266 13.998V12.584H923.944V13.998H931.266ZM923.944 11.716H931.266V10.372H923.944V11.716ZM923.944 9.504H931.266V8.216H923.944V9.504ZM929.236 15.09C930.902 15.496 932.428 16 933.8 16.588L933.268 17.4C931.798 16.714 930.3 16.182 928.76 15.79L929.236 15.09ZM925.68 15.118L926.212 15.804C925.134 16.476 923.594 17.008 921.592 17.428L921.116 16.602C923.118 16.224 924.644 15.734 925.68 15.118ZM938.15 12.892H940.012V11.282H938.528V10.414H945.318V11.282H943.96V12.892H945.766V13.788H943.96V17.008H943.036V13.788H940.852C940.768 14.53 940.6 15.16 940.348 15.664C940.012 16.322 939.438 16.84 938.654 17.204L938.15 16.406C938.836 16.07 939.326 15.622 939.606 15.062C939.76 14.698 939.872 14.264 939.942 13.788H938.15V12.892ZM943.036 12.892V11.282H940.922V12.892H943.036ZM937.226 7.558V8.58H940.376V7.558H937.226ZM940.376 6.844V5.766H937.226V6.844H940.376ZM943.512 7.558V8.552H946.746V7.558H943.512ZM946.746 6.844V5.794H943.512V6.844H946.746ZM941.356 4.968V9.392H937.226V17.274H936.218V4.968H941.356ZM946.746 9.35H942.532V4.982H947.74V15.832C947.74 16.756 947.32 17.218 946.48 17.218C945.976 17.218 945.472 17.204 944.968 17.176L944.73 16.28C945.234 16.308 945.696 16.336 946.116 16.336C946.536 16.336 946.746 16.056 946.746 15.524V9.35ZM951.698 6.368C952.356 6.788 952.888 7.18 953.308 7.53C954.008 7.068 954.582 6.55 955.002 5.99H951.152V5.108H956.15V5.836C955.604 6.858 954.736 7.726 953.56 8.454H955.604V11.674H952.482L952.23 13.2H955.688C955.688 14.852 955.618 15.93 955.478 16.462C955.31 17.022 954.666 17.316 953.532 17.344C953.028 17.344 952.51 17.316 951.992 17.288L951.754 16.406C952.272 16.434 952.804 16.462 953.336 16.462C954.064 16.462 954.484 16.308 954.61 16C954.708 15.692 954.764 15.034 954.764 14.054H951.25L951.698 10.806H954.708V9.322H951.796C951.432 9.462 951.068 9.602 950.69 9.728L950.088 8.944C951.012 8.664 951.824 8.342 952.524 7.978C952.076 7.614 951.558 7.236 950.956 6.844L951.698 6.368ZM960.056 4.562L960.77 4.996C960.434 5.374 960.112 5.682 959.776 5.934C959.538 6.102 959.258 6.284 958.936 6.452C959.202 6.676 959.482 6.886 959.79 7.082C960.14 6.914 960.462 6.718 960.756 6.494C961.106 6.228 961.428 5.92 961.722 5.556L962.436 5.99C962.086 6.424 961.736 6.788 961.372 7.068C961.148 7.236 960.896 7.404 960.616 7.572C961.316 7.964 962.086 8.314 962.94 8.622L962.268 9.42C961.722 9.196 961.218 8.972 960.756 8.734V10.078C960.756 10.358 960.924 10.512 961.288 10.512H962.072V11.338H961.036C960.28 11.338 959.902 10.988 959.902 10.288V9.294H957.858C957.858 9.812 957.774 10.246 957.606 10.596C957.41 10.96 957.074 11.31 956.598 11.632L955.898 11.016C956.346 10.666 956.64 10.33 956.808 9.994C956.92 9.672 956.99 9.154 956.99 8.454H960.238C958.614 7.53 957.424 6.466 956.668 5.248L957.466 4.8C957.704 5.178 957.984 5.528 958.306 5.864C958.614 5.724 958.908 5.556 959.174 5.374C959.496 5.15 959.79 4.87 960.056 4.562ZM956.542 12.108H961.442V12.962C961.134 13.802 960.686 14.544 960.098 15.188C960.966 15.692 961.764 16.21 962.464 16.714L961.778 17.428C961.12 16.896 960.336 16.364 959.44 15.804C958.656 16.448 957.69 16.98 956.556 17.372L956.178 16.49C957.102 16.182 957.9 15.776 958.558 15.286C957.928 14.922 957.256 14.558 956.556 14.194L957.158 13.606C957.9 13.97 958.6 14.334 959.244 14.698C959.748 14.194 960.154 13.62 960.434 13.004H956.542V12.108Z" fill="white"/>
<line x1="0.5" y1="37.5" x2="0.499987" y2="344.5" stroke="white" stroke-opacity="0.15" stroke-linecap="round" stroke-dasharray="6 6"/>
<line x1="374.5" y1="37.5" x2="374.5" y2="344.5" stroke="white" stroke-opacity="0.15" stroke-linecap="round" stroke-dasharray="6 6"/>
<line x1="748.5" y1="37.5" x2="748.5" y2="344.5" stroke="white" stroke-opacity="0.15" stroke-linecap="round" stroke-dasharray="6 6"/>
<line x1="1122.5" y1="37.5" x2="1122.5" y2="344.5" stroke="white" stroke-opacity="0.15" stroke-linecap="round" stroke-dasharray="6 6"/>
<rect x="0.773438" y="59" width="406.14" height="36" rx="4" fill="white" fill-opacity="0.15"/>
<path d="M161.156 77.338H173.532V78.01H167.54L166.966 79.27H172.58V82.35C172.58 83.022 172.216 83.372 171.502 83.372H170.466L170.284 82.7L171.278 82.728C171.656 82.728 171.852 82.546 171.852 82.21V79.928H169.346V83.302H168.604V79.928H166.266V83.302H165.538V79.928H163.186V83.4H162.458V79.27H166.224L166.784 78.01H161.156V77.338ZM162.01 71.15H172.692V71.794H167.722V72.872H173.21V75.588H172.482V73.474H167.722V76.638H166.966V73.474H162.206V75.588H161.478V72.872H166.966V71.794H162.01V71.15ZM163.494 74.132C164.39 74.216 165.244 74.356 166.07 74.524L165.86 75.042C165.02 74.86 164.152 74.72 163.228 74.636L163.494 74.132ZM165.888 75.686L166.056 76.204C165.454 76.316 164.502 76.428 163.214 76.512L163.046 75.938C164.306 75.882 165.244 75.798 165.888 75.686ZM168.772 75.028L168.66 74.468C169.64 74.398 170.494 74.272 171.236 74.104L171.446 74.65C170.69 74.818 169.808 74.944 168.772 75.028ZM168.884 75.686C169.822 75.784 170.732 75.938 171.6 76.134L171.376 76.666C170.508 76.442 169.584 76.274 168.632 76.162L168.884 75.686ZM175.88 73.25H181.564V70.59H182.32V73.25H187.78V73.992H182.32V74.916C182.712 75.84 183.216 76.722 183.804 77.534C184.868 76.778 185.764 75.91 186.506 74.93L187.08 75.448C186.282 76.442 185.33 77.324 184.21 78.08C185.274 79.438 186.604 80.628 188.2 81.65L187.682 82.266C185.274 80.642 183.496 78.654 182.32 76.274V82.252C182.32 82.924 181.97 83.274 181.298 83.274H179.31L179.142 82.546C179.814 82.574 180.444 82.602 181.032 82.602C181.382 82.602 181.564 82.42 181.564 82.056V73.992H175.88V73.25ZM177.168 75.21C178.232 75.98 179.114 76.75 179.842 77.52L179.324 78.024C178.666 77.296 177.77 76.526 176.65 75.714L177.168 75.21ZM184.196 70.73C185.008 71.318 185.68 71.906 186.226 72.494L185.708 73.012C185.204 72.452 184.546 71.85 183.706 71.206L184.196 70.73ZM180.444 78.136L180.626 78.822C179.394 80.152 177.882 81.328 176.062 82.364L175.726 81.608C177.56 80.656 179.128 79.508 180.444 78.136ZM190.1 72.564H195V73.264H190.1V72.564ZM190.702 76.498H194.384V77.184H190.702V76.498ZM194.566 78.57V83.148H193.866V82.42H191.248V83.344H190.548V78.57H194.566ZM191.248 81.734H193.866V79.256H191.248V81.734ZM195.504 71.346H202.392V72.074H199.326V77.59H202.798V78.304H199.326V83.386H198.584V78.304H195.098V77.59H198.584V72.074H195.504V71.346ZM196.358 72.984C196.778 74.02 197.17 75.196 197.52 76.54L196.848 76.694C196.54 75.49 196.162 74.328 195.7 73.208L196.358 72.984ZM201.524 72.942L202.196 73.124C201.874 74.468 201.468 75.658 200.992 76.666L200.348 76.442C200.796 75.518 201.188 74.342 201.524 72.942ZM192.452 70.562C192.732 71.15 192.942 71.71 193.096 72.214L192.438 72.452C192.242 71.864 192.004 71.304 191.724 70.758L192.452 70.562ZM190.702 74.58H194.384V75.252H190.702V74.58ZM207.624 70.562L208.338 70.884C207.974 72.018 207.512 73.082 206.952 74.076V83.4H206.196V75.294C205.706 76.008 205.16 76.68 204.572 77.324L204.32 76.512C205.846 74.748 206.952 72.774 207.624 70.562ZM208.408 73.46H212.342V70.604H213.098V73.46H217.2V74.202H213.098V77.352H216.206V83.358H215.464V82.7H210.074V83.358H209.318V77.352H212.342V74.202H208.408V73.46ZM210.074 81.972H215.464V78.08H210.074V81.972ZM221.172 72.9L222.558 70.548L223.286 70.66L223.034 71.066H229.194V71.332L228.172 73.614H231.35V74.188H219.338V73.614H227.43L227.752 72.9H221.172ZM227.99 72.368L228.34 71.584H222.726L222.25 72.368H227.99ZM231.126 74.958V77.086H230.398V75.49H220.29V77.086H219.562V74.958H231.126ZM221.354 76.19H229.334V79.438H225.708V80.194H231.154V80.81H226.506C227.598 81.622 229.292 82.196 231.616 82.504L231.238 83.12C228.746 82.714 226.912 81.944 225.764 80.81H225.708V83.344H224.98V80.81H224.896C223.972 81.874 222.138 82.658 219.394 83.134L219.072 82.518C221.62 82.126 223.314 81.566 224.154 80.81H219.506V80.194H224.98V79.438H221.354V76.19ZM228.62 78.906V78.066H225.708V78.906H228.62ZM224.98 78.906V78.066H222.068V78.906H224.98ZM222.068 77.576H224.98V76.736H222.068V77.576ZM225.708 76.736V77.576H228.62V76.736H225.708ZM234.174 72.83H236.456V71.92H233.614V71.304H236.456V70.59H237.156V71.304H239.844V71.92H237.156V72.83H239.452V75.14H237.156V75.49C237.996 75.84 238.85 76.246 239.718 76.694L239.34 77.282C238.486 76.736 237.758 76.302 237.156 75.994V77.548H236.456V75.77C235.588 76.526 234.692 77.142 233.782 77.604L233.446 77.002C234.454 76.61 235.448 76.008 236.456 75.168V75.14H234.174V72.83ZM238.808 74.594V73.39H237.156V74.594H238.808ZM236.456 74.594V73.39H234.804V74.594H236.456ZM241.622 72.48C241.258 73.292 240.782 74.006 240.208 74.622L239.76 74.062C240.642 73.082 241.244 71.892 241.552 70.492L242.252 70.576C242.154 71.01 242.042 71.416 241.902 71.808H245.836V72.48H244.968C244.772 73.796 244.338 74.832 243.694 75.602L243.512 75.784C244.226 76.288 245.08 76.68 246.074 76.946L245.668 77.562C244.618 77.254 243.722 76.806 242.98 76.246C242.294 76.75 241.398 77.142 240.292 77.45L240.04 76.82C241.034 76.554 241.832 76.218 242.434 75.798C241.874 75.266 241.412 74.664 241.062 73.978L241.622 73.656C241.958 74.328 242.42 74.902 242.98 75.378C243.05 75.294 243.106 75.238 243.162 75.182C243.736 74.524 244.114 73.628 244.282 72.48H241.622ZM234.342 78.094H245.374V78.766H240.124V80.208H244.506V80.88H240.124V82.336H246.032V83.022H233.656V82.336H235.966V79.578H236.694V82.336H239.368V78.766H234.342V78.094Z" fill="white"/>
<rect x="201.186" y="115" width="205.505" height="36" rx="4" fill="#1A1A1A"/>
<rect x="201.186" y="115" width="205.505" height="36" rx="4" stroke="white" stroke-width="0.5"/>
<path d="M248.722 127.808C249.814 127.808 250.682 128.074 251.326 128.606C251.984 129.138 252.362 129.922 252.446 130.958H251.592C251.48 130.174 251.186 129.586 250.71 129.18C250.234 128.774 249.562 128.578 248.694 128.578C247.882 128.578 247.252 128.718 246.79 128.998C246.258 129.306 246.006 129.782 246.006 130.412C246.006 130.972 246.314 131.406 246.944 131.742C247.238 131.882 247.882 132.106 248.862 132.386C250.136 132.75 250.99 133.058 251.438 133.338C252.264 133.828 252.684 134.528 252.684 135.438C252.684 136.292 252.32 136.978 251.606 137.482C250.92 137.958 250.01 138.196 248.876 138.196C247.728 138.196 246.818 137.93 246.16 137.412C245.404 136.81 244.984 135.9 244.899 134.696H245.74C245.838 135.634 246.16 136.334 246.72 136.796C247.224 137.202 247.938 137.412 248.862 137.412C249.744 137.412 250.458 137.23 251.004 136.894C251.536 136.544 251.816 136.068 251.816 135.48C251.816 134.794 251.466 134.262 250.794 133.884C250.458 133.688 249.73 133.422 248.596 133.114C247.406 132.778 246.636 132.512 246.3 132.316C245.53 131.882 245.152 131.252 245.152 130.44C245.152 129.572 245.502 128.914 246.23 128.452C246.874 128.018 247.714 127.808 248.722 127.808ZM255.368 128.158C255.564 128.158 255.732 128.228 255.872 128.368C256.012 128.48 256.082 128.648 256.082 128.858C256.082 129.054 255.998 129.222 255.858 129.362C255.718 129.488 255.564 129.558 255.368 129.558C255.158 129.558 254.99 129.488 254.864 129.362C254.724 129.222 254.654 129.054 254.654 128.858C254.654 128.648 254.724 128.48 254.864 128.368C254.99 128.228 255.158 128.158 255.368 128.158ZM254.948 130.762H255.788V138H254.948V130.762ZM260.224 128.424V130.762H262.114V131.49H260.224V136.39C260.224 136.698 260.28 136.936 260.392 137.076C260.504 137.202 260.714 137.272 261.022 137.272H261.932V138H260.91C260.35 138 259.944 137.846 259.706 137.566C259.482 137.314 259.384 136.922 259.384 136.39V131.49H257.844V130.762H259.384V128.774L260.224 128.424ZM266.808 130.566C267.956 130.566 268.81 130.944 269.384 131.728C269.888 132.414 270.168 133.38 270.21 134.626H264.33C264.372 135.508 264.61 136.208 265.044 136.712C265.492 137.216 266.08 137.468 266.836 137.468C267.494 137.468 268.026 137.286 268.432 136.95C268.768 136.656 269.02 136.236 269.202 135.676H270.056C269.888 136.376 269.566 136.95 269.09 137.398C268.502 137.93 267.76 138.196 266.836 138.196C265.814 138.196 265.002 137.846 264.4 137.16C263.77 136.46 263.462 135.522 263.462 134.374C263.462 133.31 263.756 132.428 264.358 131.7C264.974 130.944 265.786 130.566 266.808 130.566ZM266.822 131.294C266.108 131.294 265.534 131.532 265.1 132.036C264.666 132.526 264.414 133.156 264.344 133.94H269.328C269.188 132.176 268.348 131.294 266.822 131.294ZM274.992 130.566C276.14 130.566 276.896 131.056 277.26 132.05C277.512 131.56 277.834 131.196 278.226 130.944C278.59 130.692 279.038 130.566 279.542 130.566C280.298 130.566 280.914 130.804 281.362 131.28C281.796 131.756 282.02 132.414 282.02 133.268V138H281.18V133.38C281.18 132.694 281.04 132.176 280.76 131.84C280.452 131.476 279.962 131.294 279.318 131.294C278.786 131.294 278.352 131.49 278.002 131.896C277.638 132.288 277.47 132.778 277.47 133.394V138H276.616V133.38C276.616 131.98 276.014 131.294 274.81 131.294C274.264 131.294 273.816 131.504 273.452 131.952C273.074 132.386 272.892 132.918 272.892 133.548V138H272.052V130.762H272.892V131.854C273.41 130.986 274.11 130.566 274.992 130.566ZM287.348 130.566C288.356 130.566 289.112 130.832 289.602 131.392C290.022 131.854 290.246 132.498 290.246 133.338V138H289.448V136.614C289.154 137.034 288.762 137.398 288.286 137.678C287.698 138.014 287.068 138.196 286.382 138.196C285.682 138.196 285.108 138.014 284.688 137.664C284.226 137.3 284.002 136.81 284.002 136.222C284.002 135.382 284.338 134.766 285.024 134.374C285.612 133.996 286.466 133.8 287.558 133.8L289.406 133.772V133.338C289.406 131.966 288.706 131.28 287.306 131.28C286.718 131.28 286.242 131.392 285.864 131.644C285.444 131.91 285.178 132.288 285.066 132.792L284.24 132.736C284.38 132.008 284.744 131.448 285.332 131.084C285.85 130.734 286.522 130.566 287.348 130.566ZM289.406 134.43L287.6 134.458C285.766 134.472 284.856 135.06 284.856 136.208C284.856 136.6 285.01 136.908 285.318 137.146C285.626 137.384 286.046 137.51 286.55 137.51C287.278 137.51 287.95 137.258 288.538 136.754C289.112 136.278 289.406 135.746 289.406 135.186V134.43ZM295.853 130.566C296.875 130.566 297.687 130.944 298.289 131.728C298.821 132.428 299.087 133.31 299.087 134.402C299.087 135.466 298.821 136.348 298.303 137.048C297.715 137.804 296.917 138.196 295.881 138.196C294.719 138.196 293.879 137.622 293.347 136.488V140.772H292.507V130.762H293.305V132.19C293.837 131.098 294.677 130.566 295.853 130.566ZM295.755 131.28C294.971 131.28 294.355 131.588 293.921 132.204C293.515 132.75 293.319 133.464 293.319 134.346V134.5C293.319 135.368 293.529 136.082 293.963 136.642C294.397 137.202 294.985 137.482 295.727 137.482C296.553 137.482 297.183 137.174 297.631 136.586C298.023 136.04 298.219 135.312 298.219 134.402C298.219 133.492 298.023 132.764 297.645 132.218C297.197 131.588 296.567 131.28 295.755 131.28ZM313.474 127.584H317.814V132.274H313.474V127.584ZM317.086 131.574V128.27H314.188V131.574H317.086ZM308.434 126.646H309.176V127.724C309.176 127.808 309.162 127.878 309.162 127.962H312.046C312.018 130.3 311.878 131.7 311.612 132.162C311.346 132.61 310.884 132.848 310.212 132.848C309.988 132.848 309.736 132.834 309.442 132.806L309.246 132.106C309.568 132.134 309.834 132.162 310.044 132.162C310.576 132.148 310.912 131.952 311.052 131.574C311.192 131.196 311.262 130.216 311.29 128.634H309.12C308.896 130.622 308.084 132.12 306.67 133.1L306.096 132.596C307.412 131.728 308.168 130.398 308.364 128.634H306.362V127.962H308.42C308.42 127.878 308.434 127.794 308.434 127.724V126.646ZM306.25 134.29H311.976V133.072H312.732V134.29H318.472V135.018H312.732V139.344H311.976V135.018H306.25V134.29ZM310.366 135.746L310.884 136.222C309.736 137.356 308.308 138.35 306.628 139.204L306.18 138.616C307.832 137.804 309.232 136.838 310.366 135.746ZM314.272 135.704C315.84 136.586 317.254 137.552 318.514 138.588L318.01 139.134C316.666 138.014 315.266 137.048 313.81 136.222L314.272 135.704ZM326.98 126.52H327.68V127.682H330.41V126.52H331.124V127.682H332.888V128.298H331.124V129.432H332.622V130.034H331.124V131.182H333.21V131.798H329.374V132.834H332.356V136.418H333.28V137.062H332.356V138.364C332.356 139.008 332.006 139.33 331.32 139.33H330.088L329.92 138.672L331.11 138.714C331.474 138.714 331.656 138.546 331.656 138.224V137.062H326.392V139.33H325.692V137.062H324.74V136.418H325.692V132.834H328.66V131.798H324.88V131.182H326.98V130.034H325.468V129.432H326.98V128.298H325.202V127.682H326.98V126.52ZM326.392 136.418H328.66V135.172H326.392V136.418ZM329.374 136.418H331.656V135.172H329.374V136.418ZM327.68 131.182H330.41V130.034H327.68V131.182ZM327.68 129.432H330.41V128.298H327.68V129.432ZM331.656 134.626V133.45H329.374V134.626H331.656ZM328.66 133.45H326.392V134.626H328.66V133.45ZM323.13 131.924V139.316H322.402V131.994C321.982 133.464 321.408 134.794 320.68 135.984L320.372 135.228C321.31 133.744 321.968 132.05 322.36 130.146H320.624V129.432H322.402V126.604H323.13V129.432H324.614V130.146H323.13V131.14C323.69 131.882 324.278 132.736 324.866 133.688L324.46 134.304C323.942 133.324 323.494 132.526 323.13 131.924ZM335.306 127.458H339.604V128.186H337.644C337.462 129.39 337.182 130.524 336.818 131.574H339.31V138.77H338.61V137.944H336.888V138.91H336.216V132.988C335.936 133.548 335.628 134.094 335.292 134.598L334.886 133.954C335.922 132.288 336.594 130.37 336.916 128.186H335.306V127.458ZM336.888 137.244H338.61V132.274H336.888V137.244ZM347.472 128.06V130.524H346.758V128.746H343.524C343.23 129.726 342.88 130.608 342.488 131.42H344.308C344.154 130.916 343.972 130.412 343.776 129.922L344.434 129.74C344.686 130.356 344.868 130.916 344.994 131.42H347.29V132.106H344.98V133.618H347.052V134.276H344.98V135.83H347.08V136.488H344.98V138.154H347.654V138.84H341.788V139.414H341.074V133.744C340.71 134.206 340.346 134.64 339.954 135.032L339.506 134.486C340.962 132.974 342.04 131.056 342.754 128.746H340.836V130.762H340.122V128.06H342.964C343.09 127.556 343.202 127.066 343.314 126.562L344.042 126.688C343.93 127.164 343.832 127.612 343.72 128.06H347.472ZM341.788 138.154H344.266V136.488H341.788V138.154ZM344.266 135.83V134.276H341.788V135.83H344.266ZM344.266 133.618V132.106H342.138L341.788 132.694V133.618H344.266ZM357.954 127.92H354.874V127.248H361.258C361.23 130.146 361.076 131.882 360.768 132.456C360.432 133.016 359.872 133.31 359.088 133.31C358.85 133.31 358.57 133.296 358.234 133.282L358.038 132.596C358.388 132.624 358.682 132.638 358.92 132.652C359.606 132.624 360.04 132.358 360.208 131.854C360.376 131.35 360.488 130.048 360.53 127.92H358.682C358.458 129.124 358.08 130.146 357.576 131.014C356.974 131.966 356.078 132.806 354.888 133.562L354.412 132.96C355.378 132.4 356.134 131.742 356.694 131.014C356.078 130.454 355.35 129.922 354.51 129.446L354.93 128.942C355.742 129.404 356.456 129.908 357.058 130.468C357.492 129.712 357.786 128.872 357.954 127.92ZM354.832 134.71L355.504 134.85C355.238 136.418 354.874 137.79 354.412 138.952L353.796 138.56C354.272 137.412 354.608 136.138 354.832 134.71ZM358.192 133.842C358.668 134.528 359.074 135.256 359.424 136.04L358.822 136.306C358.43 135.452 358.01 134.696 357.562 134.038L358.192 133.842ZM360.866 134.402C361.426 135.508 361.93 136.684 362.364 137.916L361.72 138.21C361.272 136.852 360.768 135.648 360.208 134.612L360.866 134.402ZM359.102 139.148H357.268C356.582 139.148 356.246 138.77 356.246 138.042V134.416H356.96V137.888C356.96 138.266 357.128 138.462 357.478 138.462H358.976C359.242 138.462 359.424 138.378 359.536 138.238C359.676 138.042 359.788 137.51 359.844 136.614L360.502 136.824C360.418 137.916 360.264 138.588 360.04 138.84C359.844 139.036 359.522 139.148 359.102 139.148ZM351.542 126.52C351.85 127.136 352.074 127.696 352.242 128.214L351.584 128.452C351.374 127.864 351.122 127.276 350.814 126.716L351.542 126.52ZM349.582 128.564H353.796V129.264H349.582V128.564ZM350.086 130.608H353.32V131.266H350.086V130.608ZM350.086 132.568H353.32V133.24H350.086V132.568ZM353.418 134.57V138.42H350.702V139.148H350.002V134.57H353.418ZM350.702 137.762H352.732V135.214H350.702V137.762Z" fill="white"/>
<rect x="241.424" y="171" width="267.732" height="36" rx="4" fill="#1A1A1A"/>
<rect x="241.424" y="171" width="267.732" height="36" rx="4" stroke="white" stroke-width="0.5"/>
<path d="M322.947 184.004H323.913L326.307 192.852H326.349L328.799 184.004H329.793L332.243 192.852H332.285L334.679 184.004H335.645L332.775 194H331.767L329.317 185.208H329.275L326.825 194H325.817L322.947 184.004ZM338.511 184.158C338.707 184.158 338.875 184.228 339.015 184.368C339.155 184.48 339.225 184.648 339.225 184.858C339.225 185.054 339.141 185.222 339.001 185.362C338.861 185.488 338.707 185.558 338.511 185.558C338.301 185.558 338.133 185.488 338.007 185.362C337.867 185.222 337.797 185.054 337.797 184.858C337.797 184.648 337.867 184.48 338.007 184.368C338.133 184.228 338.301 184.158 338.511 184.158ZM338.091 186.762H338.931V194H338.091V186.762ZM344.654 186.566C345.074 186.566 345.424 186.608 345.704 186.72V187.574C345.326 187.462 344.962 187.42 344.598 187.42C343.954 187.42 343.422 187.7 343.03 188.288C342.638 188.82 342.456 189.45 342.456 190.178V194H341.616V186.762H342.456V188.148C342.652 187.7 342.918 187.336 343.254 187.07C343.646 186.734 344.122 186.566 344.654 186.566ZM350.087 186.566C351.235 186.566 352.089 186.944 352.663 187.728C353.167 188.414 353.447 189.38 353.489 190.626H347.609C347.651 191.508 347.889 192.208 348.323 192.712C348.771 193.216 349.359 193.468 350.115 193.468C350.773 193.468 351.305 193.286 351.711 192.95C352.047 192.656 352.299 192.236 352.481 191.676H353.335C353.167 192.376 352.845 192.95 352.369 193.398C351.781 193.93 351.039 194.196 350.115 194.196C349.093 194.196 348.281 193.846 347.679 193.16C347.049 192.46 346.741 191.522 346.741 190.374C346.741 189.31 347.035 188.428 347.637 187.7C348.253 186.944 349.065 186.566 350.087 186.566ZM350.101 187.294C349.387 187.294 348.813 187.532 348.379 188.036C347.945 188.526 347.693 189.156 347.623 189.94H352.607C352.467 188.176 351.627 187.294 350.101 187.294ZM358.271 184.004H359.559V184.746H358.341C357.977 184.746 357.711 184.83 357.543 185.026C357.375 185.208 357.291 185.502 357.291 185.922V186.762H359.461V187.49H357.291V194H356.451V187.49H354.519V186.762H356.451V185.908C356.451 185.306 356.591 184.844 356.899 184.522C357.207 184.172 357.655 184.004 358.271 184.004ZM364.051 186.566C364.471 186.566 364.821 186.608 365.101 186.72V187.574C364.723 187.462 364.359 187.42 363.995 187.42C363.351 187.42 362.819 187.7 362.427 188.288C362.035 188.82 361.853 189.45 361.853 190.178V194H361.013V186.762H361.853V188.148C362.049 187.7 362.315 187.336 362.651 187.07C363.043 186.734 363.519 186.566 364.051 186.566ZM369.624 186.566C370.632 186.566 371.388 186.832 371.878 187.392C372.298 187.854 372.522 188.498 372.522 189.338V194H371.724V192.614C371.43 193.034 371.038 193.398 370.562 193.678C369.974 194.014 369.344 194.196 368.658 194.196C367.958 194.196 367.384 194.014 366.964 193.664C366.502 193.3 366.278 192.81 366.278 192.222C366.278 191.382 366.614 190.766 367.3 190.374C367.888 189.996 368.742 189.8 369.834 189.8L371.682 189.772V189.338C371.682 187.966 370.982 187.28 369.582 187.28C368.994 187.28 368.518 187.392 368.14 187.644C367.72 187.91 367.454 188.288 367.342 188.792L366.516 188.736C366.656 188.008 367.02 187.448 367.608 187.084C368.126 186.734 368.798 186.566 369.624 186.566ZM371.682 190.43L369.876 190.458C368.042 190.472 367.132 191.06 367.132 192.208C367.132 192.6 367.286 192.908 367.594 193.146C367.902 193.384 368.322 193.51 368.826 193.51C369.554 193.51 370.226 193.258 370.814 192.754C371.388 192.278 371.682 191.746 371.682 191.186V190.43ZM377.722 186.566C378.87 186.566 379.626 187.056 379.99 188.05C380.242 187.56 380.564 187.196 380.956 186.944C381.32 186.692 381.768 186.566 382.272 186.566C383.028 186.566 383.644 186.804 384.092 187.28C384.526 187.756 384.75 188.414 384.75 189.268V194H383.91V189.38C383.91 188.694 383.77 188.176 383.49 187.84C383.182 187.476 382.692 187.294 382.048 187.294C381.516 187.294 381.082 187.49 380.732 187.896C380.368 188.288 380.2 188.778 380.2 189.394V194H379.346V189.38C379.346 187.98 378.744 187.294 377.54 187.294C376.994 187.294 376.546 187.504 376.182 187.952C375.804 188.386 375.622 188.918 375.622 189.548V194H374.782V186.762H375.622V187.854C376.14 186.986 376.84 186.566 377.722 186.566ZM389.939 186.566C391.087 186.566 391.941 186.944 392.515 187.728C393.019 188.414 393.299 189.38 393.341 190.626H387.461C387.503 191.508 387.741 192.208 388.175 192.712C388.623 193.216 389.211 193.468 389.967 193.468C390.625 193.468 391.157 193.286 391.563 192.95C391.899 192.656 392.151 192.236 392.333 191.676H393.187C393.019 192.376 392.697 192.95 392.221 193.398C391.633 193.93 390.891 194.196 389.967 194.196C388.945 194.196 388.133 193.846 387.531 193.16C386.901 192.46 386.593 191.522 386.593 190.374C386.593 189.31 386.887 188.428 387.489 187.7C388.105 186.944 388.917 186.566 389.939 186.566ZM389.953 187.294C389.239 187.294 388.665 187.532 388.231 188.036C387.797 188.526 387.545 189.156 387.475 189.94H392.459C392.319 188.176 391.479 187.294 389.953 187.294ZM406.855 184.998H410.467V185.614H406.855V184.998ZM405.371 186.44H411.951V190.052H405.371V186.44ZM411.293 189.464V187.028H408.969V189.464H411.293ZM408.353 189.464V187.028H406.015V189.464H408.353ZM411.559 190.878V195.344H410.831V194.7H406.505V195.344H405.777V190.878H411.559ZM406.505 194.112H410.831V193.076H406.505V194.112ZM406.505 192.53H410.831V191.452H406.505V192.53ZM410.117 187.504L410.607 187.63C410.439 188.148 410.215 188.61 409.963 189.002L409.487 188.82C409.725 188.47 409.935 188.036 410.117 187.504ZM407.121 187.532C407.373 187.924 407.597 188.386 407.807 188.904L407.317 189.03C407.135 188.554 406.911 188.106 406.659 187.686L407.121 187.532ZM408.367 182.646H408.955C409.711 183.71 411.013 184.662 412.861 185.474L412.469 186.076C410.761 185.32 409.501 184.396 408.661 183.29C407.681 184.48 406.435 185.404 404.923 186.048L404.545 185.446C406.197 184.718 407.471 183.794 408.367 182.646ZM400.737 191.76L401.367 191.844C401.297 193.09 401.129 194.196 400.863 195.162L400.205 194.952C400.485 194.028 400.667 192.964 400.737 191.76ZM402.837 191.662C402.949 192.418 403.033 193.44 403.089 194.728L402.431 194.812C402.403 193.482 402.333 192.46 402.221 191.732L402.837 191.662ZM404.209 191.326C404.517 192.18 404.769 193.076 404.993 194.028L404.391 194.294C404.167 193.244 403.929 192.32 403.677 191.536L404.209 191.326ZM403.901 188.008C404.293 188.848 404.629 189.744 404.923 190.696L404.321 190.962C404.237 190.682 404.167 190.43 404.083 190.192C402.837 190.528 401.633 190.78 400.471 190.92L400.275 190.234C400.401 190.178 400.513 190.122 400.611 190.038C401.171 189.436 401.843 188.442 402.627 187.056C401.829 187.196 401.045 187.308 400.289 187.42L400.107 186.748C400.219 186.692 400.331 186.608 400.415 186.482C401.115 185.39 401.745 184.102 402.277 182.632L402.977 182.898C402.305 184.522 401.633 185.782 400.961 186.692C401.633 186.608 402.319 186.51 403.005 186.37L403.845 184.732L404.503 184.998C403.201 187.49 402.137 189.212 401.311 190.164C402.179 190.024 403.047 189.828 403.887 189.604C403.705 189.1 403.523 188.652 403.327 188.232L403.901 188.008ZM414.859 190.262H421.005C420.837 189.954 420.655 189.688 420.459 189.436L421.187 189.31C421.383 189.59 421.565 189.912 421.761 190.262H427.039V190.934H420.795C420.207 191.536 419.409 192.096 418.429 192.6V194.588C419.591 194.364 420.669 194.098 421.663 193.818L421.775 194.476C420.613 194.784 419.213 195.078 417.575 195.358L417.435 194.77C417.631 194.7 417.743 194.588 417.743 194.448V192.922C416.945 193.258 416.049 193.566 415.069 193.86L414.691 193.244C417.127 192.628 418.891 191.858 419.983 190.934H414.859V190.262ZM425.331 191.564L425.821 191.998C425.289 192.544 424.645 193.034 423.917 193.468C424.855 194.028 425.989 194.462 427.319 194.756L426.899 195.358C424.267 194.714 422.405 193.524 421.327 191.802L421.859 191.508C422.251 192.11 422.741 192.642 423.357 193.09C424.127 192.656 424.785 192.152 425.331 191.564ZM416.343 184.158C416.231 184.452 416.105 184.718 415.965 184.97L415.335 184.774C415.727 184.158 415.979 183.43 416.077 182.618L416.707 182.702C416.665 183.01 416.609 183.29 416.553 183.542H418.331V182.618H419.031V183.542H421.663V184.158H419.031V185.278H422.097V185.894H419.031V186.818H421.705V188.386C421.705 188.834 421.397 189.072 420.795 189.072H419.941L419.815 188.526L420.599 188.54C420.879 188.54 421.019 188.414 421.019 188.19V187.364H419.031V189.338H418.331V187.364H416.483V189.184H415.811V186.818H418.331V185.894H414.943V185.278H418.331V184.158H416.343ZM422.965 183.36H423.665V187.434H422.965V183.36ZM425.289 189.226H423.609L423.455 188.54C424.015 188.568 424.533 188.596 425.037 188.596C425.415 188.596 425.611 188.414 425.611 188.078V182.562H426.311V188.246C426.311 188.89 425.961 189.226 425.289 189.226Z" fill="white"/>
<rect x="304.102" y="227" width="308.744" height="36" rx="4" fill="#1A1A1A"/>
<rect x="304.102" y="227" width="308.744" height="36" rx="4" stroke="white" stroke-width="0.5"/>
<path d="M418.181 239.262H425.741V243.616H418.181V239.262ZM424.971 242.888V239.99H418.951V242.888H424.971ZM421.079 245.268V251.148H420.337V250.406H417.103V251.148H416.361V245.268H421.079ZM417.103 249.692H420.337V245.982H417.103V249.692ZM427.589 245.268V251.148H426.833V250.406H423.459V251.148H422.717V245.268H427.589ZM423.459 249.692H426.833V245.982H423.459V249.692ZM431.785 246.248C431.687 248.488 431.295 250.168 430.623 251.26L430.091 250.798C430.749 249.65 431.085 247.83 431.099 245.338V239.024H431.813V242.594H433.605V238.772H434.319V243.28H431.813V245.534H434.431V251.204H433.689V246.248H431.785ZM435.845 239.906H438.029C438.239 239.458 438.393 239.01 438.505 238.548L439.247 238.646C439.135 239.094 438.995 239.514 438.799 239.906H442.075V245.632H438.827C438.771 245.772 438.701 245.898 438.631 246.024C438.197 246.752 437.483 247.312 436.489 247.732L436.139 247.186C437.021 246.808 437.665 246.29 438.057 245.632H435.845V239.906ZM441.375 244.974V243.098H439.317C439.289 243.826 439.205 244.442 439.051 244.974H441.375ZM438.337 244.974C438.505 244.428 438.589 243.798 438.617 243.098H436.545V244.974H438.337ZM436.545 242.426H438.631V240.578H436.545V242.426ZM439.331 240.578V242.426H441.375V240.578H439.331ZM435.187 247.83H439.569V246.248H440.297V247.83H442.817V248.544H440.297V251.316H439.569V248.544H435.187V247.83ZM446.579 245.352C446.047 245.968 445.459 246.584 444.801 247.2L444.563 246.43C446.383 244.694 447.573 243.028 448.133 241.418H444.885V240.69H448.875V241.334C448.553 242.356 448.035 243.364 447.335 244.372V244.484C448.049 244.946 448.707 245.492 449.295 246.108L448.875 246.738C448.371 246.15 447.853 245.66 447.335 245.268V251.33H446.579V245.352ZM449.911 239.178H456.211V246.752H454.587V250.014C454.587 250.28 454.713 250.42 454.993 250.448H455.945C456.253 250.434 456.449 250.266 456.505 249.958C456.561 249.552 456.603 248.866 456.603 247.9L457.275 248.152C457.275 249.496 457.191 250.322 457.037 250.658C456.869 250.952 456.519 251.106 455.987 251.134H454.993C454.237 251.134 453.873 250.798 453.873 250.126V246.752H452.095C451.955 248.838 450.933 250.364 449.043 251.33L448.637 250.7C450.331 249.888 451.241 248.572 451.381 246.752H449.911V239.178ZM455.469 246.094V244.4H450.653V246.094H455.469ZM450.653 243.77H455.469V242.09H450.653V243.77ZM450.653 241.46H455.469V239.836H450.653V241.46ZM446.943 238.478C447.223 239.15 447.447 239.78 447.587 240.354L446.943 240.592C446.747 239.948 446.509 239.304 446.229 238.674L446.943 238.478ZM461.163 241.138L461.219 241.95H463.403V242.468H461.261L461.331 243.406H469.689L469.745 242.468H467.561V241.95H469.773L469.829 241.138H467.603V240.606H469.871L469.927 239.696H467.561V239.122H470.599L470.347 243.406H471.341V245.52H470.655V243.966H460.309V245.52H459.623V243.406H460.687L460.407 239.318C461.485 239.178 462.395 238.996 463.123 238.744L463.375 239.304C462.913 239.458 462.143 239.626 461.065 239.808L461.121 240.606H463.403V241.138H461.163ZM464.397 238.87C464.845 239.094 465.279 239.318 465.671 239.542C466.007 239.29 466.315 239.01 466.581 238.73L467.043 239.01C466.735 239.332 466.441 239.612 466.161 239.836C466.553 240.06 466.903 240.298 467.211 240.536L466.833 240.914C466.497 240.662 466.119 240.41 465.699 240.158C465.251 240.438 464.733 240.69 464.117 240.942L463.823 240.466C464.341 240.298 464.803 240.088 465.195 239.864C464.817 239.64 464.425 239.43 464.005 239.234L464.397 238.87ZM464.495 241.082C464.915 241.306 465.307 241.53 465.671 241.754C465.965 241.516 466.245 241.25 466.497 240.956L466.931 241.222C466.651 241.53 466.385 241.81 466.119 242.048C466.483 242.3 466.819 242.538 467.127 242.79L466.763 243.168C466.455 242.902 466.105 242.636 465.713 242.37C465.279 242.664 464.775 242.944 464.187 243.196L463.893 242.748C464.397 242.566 464.845 242.342 465.237 242.062C464.887 241.838 464.523 241.628 464.131 241.418L464.495 241.082ZM461.415 244.694H469.521V249.216H467.141V250.154C467.141 250.392 467.281 250.518 467.575 250.518H470.025C470.333 250.518 470.557 250.448 470.697 250.322C470.851 250.168 470.963 249.706 471.019 248.936L471.663 249.132C471.579 250.07 471.425 250.658 471.173 250.882C470.963 251.05 470.627 251.134 470.151 251.134H467.393C466.749 251.134 466.441 250.854 466.441 250.294V249.216H464.719C464.047 250.364 462.381 251.078 459.735 251.386L459.371 250.826C461.751 250.574 463.291 250.042 463.963 249.216H461.415V244.694ZM468.835 248.684V247.774H462.115V248.684H468.835ZM462.115 247.312H468.835V246.5H462.115V247.312ZM462.115 246.024H468.835V245.198H462.115V246.024ZM479.667 239.206H485.393V246.78H483.825V250.196C483.825 250.364 483.909 250.448 484.105 250.462H484.931C485.281 250.448 485.491 250.28 485.547 249.972C485.631 249.58 485.673 248.922 485.673 247.984L486.331 248.222C486.331 249.538 486.247 250.364 486.079 250.672C485.897 250.966 485.533 251.12 484.973 251.148H484.105C483.433 251.148 483.097 250.868 483.097 250.308V246.78H481.907C481.753 248.866 480.675 250.392 478.673 251.344L478.267 250.714C480.073 249.902 481.053 248.6 481.193 246.78H479.667V239.206ZM484.679 246.136V244.4H480.381V246.136H484.679ZM480.381 243.77H484.679V242.132H480.381V243.77ZM480.381 241.502H484.679V239.864H480.381V241.502ZM474.011 240.97H476.139V238.59H476.895V240.97H478.743V241.698H476.895V244.008C476.895 244.134 476.881 244.26 476.881 244.386H478.939V245.1H476.853C476.825 245.464 476.783 245.828 476.727 246.164C477.511 246.878 478.295 247.704 479.107 248.642L478.673 249.286C477.861 248.25 477.161 247.438 476.601 246.864C476.195 248.726 475.397 250.182 474.221 251.218L473.661 250.728C475.089 249.496 475.901 247.62 476.097 245.1H473.829V244.386H476.125C476.125 244.246 476.139 244.12 476.139 244.008V241.698H474.011V240.97ZM495.231 242.706H492.613V243.462H495.679V243.994H492.613V244.764H496.169V245.296H488.343V244.764H491.885V243.994H488.833V243.462H491.885V242.706H489.155V242.16H491.913V241.32H488.203V240.788H491.913V239.948H489.239V239.388H491.885V238.604H492.613V239.388H495.231V240.746H496.505V241.348H495.231V242.706ZM492.585 239.948V240.788H494.517V239.948H492.585ZM492.585 241.32V242.16H494.517V241.32H492.585ZM489.071 245.982H495.427V249.482H489.071V245.982ZM494.727 248.978V247.956H492.599V248.978H494.727ZM491.899 248.978V247.956H489.771V248.978H491.899ZM489.771 247.452H491.899V246.486H489.771V247.452ZM492.599 246.486V247.452H494.727V246.486H492.599ZM496.043 250.154V250.742C494.209 250.84 491.675 250.924 488.455 250.98L488.357 250.364C491.451 250.336 494.013 250.266 496.043 250.154ZM499.179 251.26H497.639L497.471 250.56C497.975 250.588 498.465 250.616 498.927 250.616C499.291 250.616 499.487 250.406 499.487 250.014V238.646H500.215V250.196C500.215 250.896 499.865 251.26 499.179 251.26ZM497.191 239.878H497.891V248.614H497.191V239.878Z" fill="white"/>
<rect x="406.24" y="283" width="236.007" height="36" rx="4" fill="#1A1A1A"/>
<rect x="406.24" y="283" width="236.007" height="36" rx="4" stroke="white" stroke-width="0.5"/>
<path d="M489.266 296.004H490.12V302.136C490.12 303.2 490.344 304.012 490.82 304.558C491.324 305.132 492.094 305.426 493.158 305.426C494.222 305.426 494.992 305.132 495.496 304.558C495.958 304.012 496.196 303.2 496.196 302.136V296.004H497.05V302.136C497.05 303.438 496.728 304.432 496.112 305.118C495.454 305.832 494.474 306.196 493.158 306.196C491.842 306.196 490.862 305.832 490.218 305.132C489.574 304.432 489.266 303.438 489.266 302.136V296.004ZM499.722 296.004H500.576V306H499.722V296.004ZM511.179 299.308H511.935V307.26H511.179V299.308ZM506.447 299.35H507.203V301.856C507.161 304.376 506.321 306.21 504.683 307.386L504.109 306.868C505.635 305.832 506.419 304.152 506.447 301.856V299.35ZM508.953 294.646H509.485C511.221 296.76 513.237 298.426 515.505 299.644L515.127 300.302C512.817 299.042 510.843 297.404 509.219 295.36C507.735 297.32 505.761 299 503.325 300.428L502.961 299.756C505.369 298.384 507.357 296.676 508.953 294.646ZM517.531 295.234H529.921V295.962H524.223C524.083 296.662 523.887 297.348 523.635 297.992H529.095V307.4H528.353V306.644H519.127V307.4H518.385V297.992H522.879C523.145 297.362 523.341 296.69 523.453 295.962H517.531V295.234ZM519.127 305.916H521.297V298.706H519.127V305.916ZM522.011 305.916H525.427V303.914H522.011V305.916ZM526.141 305.916H528.353V298.706H526.141V305.916ZM522.011 303.256H525.427V301.324H522.011V303.256ZM522.011 300.652H525.427V298.706H522.011V300.652ZM536.539 302.584V306.42H533.193V307.148H532.479V302.584H536.539ZM533.193 305.734H535.839V303.256H533.193V305.734ZM531.947 296.564H537.085V297.264H531.947V296.564ZM532.563 298.58H536.427V299.252H532.563V298.58ZM532.577 300.498H536.427V301.184H532.577V300.498ZM537.589 300.68H543.525V301.38C543.119 302.696 542.447 303.844 541.523 304.796C542.391 305.538 543.469 306.182 544.757 306.728L544.351 307.372C542.993 306.756 541.873 306.07 541.005 305.286C539.969 306.154 538.695 306.854 537.155 307.372L536.735 306.742C538.233 306.238 539.465 305.566 540.445 304.754C539.493 303.76 538.863 302.64 538.527 301.408H537.589V300.68ZM539.241 301.408C539.563 302.472 540.137 303.438 540.963 304.278C541.803 303.438 542.405 302.486 542.797 301.408H539.241ZM538.751 295.22H542.685V298.314C542.685 298.678 542.881 298.86 543.273 298.86H544.365V299.56H543.105C542.321 299.56 541.929 299.182 541.929 298.44V295.934H539.493V296.69C539.493 298.062 538.849 299.126 537.561 299.882L537.057 299.322C538.177 298.72 538.751 297.866 538.751 296.774V295.22ZM534.285 294.562C534.635 295.15 534.915 295.696 535.111 296.2L534.453 296.452C534.215 295.864 533.921 295.304 533.571 294.758L534.285 294.562ZM547.567 306.476V307.344H546.839V302.556H550.997V307.148H550.269V306.476H547.567ZM550.269 305.776V303.256H547.567V305.776H550.269ZM546.321 296.564H551.529V297.278H546.321V296.564ZM546.867 298.594H550.969V299.28H546.867V298.594ZM546.867 300.498H550.969V301.198H546.867V300.498ZM555.043 294.618H555.785V299.308H559.089V300.036H555.785V307.358H555.043V300.036H551.795V299.308H555.043V294.618ZM548.771 294.562C549.079 295.15 549.317 295.71 549.485 296.214L548.841 296.452C548.617 295.864 548.351 295.304 548.043 294.758L548.771 294.562Z" fill="white"/>
<rect x="642.811" y="227" width="199.661" height="36" rx="4" fill="#1A1A1A"/>
<rect x="642.811" y="227" width="199.661" height="36" rx="4" stroke="white" stroke-width="0.5"/>
<path d="M704.461 246.584V250.42H701.115V251.148H700.401V246.584H704.461ZM701.115 249.734H703.761V247.256H701.115V249.734ZM699.869 240.564H705.007V241.264H699.869V240.564ZM700.485 242.58H704.349V243.252H700.485V242.58ZM700.499 244.498H704.349V245.184H700.499V244.498ZM705.511 244.68H711.447V245.38C711.041 246.696 710.369 247.844 709.445 248.796C710.313 249.538 711.391 250.182 712.679 250.728L712.273 251.372C710.915 250.756 709.795 250.07 708.927 249.286C707.891 250.154 706.617 250.854 705.077 251.372L704.657 250.742C706.155 250.238 707.387 249.566 708.367 248.754C707.415 247.76 706.785 246.64 706.449 245.408H705.511V244.68ZM707.163 245.408C707.485 246.472 708.059 247.438 708.885 248.278C709.725 247.438 710.327 246.486 710.719 245.408H707.163ZM706.673 239.22H710.607V242.314C710.607 242.678 710.803 242.86 711.195 242.86H712.287V243.56H711.027C710.243 243.56 709.851 243.182 709.851 242.44V239.934H707.415V240.69C707.415 242.062 706.771 243.126 705.483 243.882L704.979 243.322C706.099 242.72 706.673 241.866 706.673 240.774V239.22ZM702.207 238.562C702.557 239.15 702.837 239.696 703.033 240.2L702.375 240.452C702.137 239.864 701.843 239.304 701.493 238.758L702.207 238.562ZM715.489 250.476V251.344H714.761V246.556H718.919V251.148H718.191V250.476H715.489ZM718.191 249.776V247.256H715.489V249.776H718.191ZM714.243 240.564H719.451V241.278H714.243V240.564ZM714.789 242.594H718.891V243.28H714.789V242.594ZM714.789 244.498H718.891V245.198H714.789V244.498ZM722.965 238.618H723.707V243.308H727.011V244.036H723.707V251.358H722.965V244.036H719.717V243.308H722.965V238.618ZM716.693 238.562C717.001 239.15 717.239 239.71 717.407 240.214L716.763 240.452C716.539 239.864 716.273 239.304 715.965 238.758L716.693 238.562ZM729.107 241.054H735.015C734.637 240.242 734.161 239.5 733.573 238.8L734.329 238.52C734.875 239.22 735.379 240.074 735.827 241.054H741.175V241.81H738.949C738.277 244.106 737.227 246.01 735.799 247.522C737.325 248.838 739.229 249.93 741.511 250.77L741.091 251.414C738.739 250.546 736.807 249.426 735.267 248.068C733.671 249.594 731.641 250.714 729.205 251.414L728.813 250.742C731.221 250.07 733.209 249.02 734.749 247.592C733.083 245.968 731.921 244.05 731.277 241.81H729.107V241.054ZM732.019 241.81C732.649 243.84 733.741 245.59 735.281 247.06C736.611 245.632 737.577 243.882 738.179 241.81H732.019ZM746.449 238.52L747.149 238.856C746.771 239.99 746.309 241.054 745.749 242.034V251.386H745.007V243.224C744.503 243.938 743.957 244.61 743.355 245.254L743.103 244.456C744.643 242.706 745.763 240.732 746.449 238.52ZM748.787 239.402L749.529 239.486C749.389 240.242 749.221 240.942 749.025 241.614H751.377V238.618H752.133V241.614H755.451V242.37H752.133V245.996H755.969V246.738H752.133V251.316H751.377V246.738H747.135V245.996H751.377V242.37H748.773C748.409 243.294 747.975 244.134 747.457 244.876L746.981 244.26C747.863 242.93 748.465 241.306 748.787 239.402ZM757.995 240.354H763.931C763.679 239.724 763.385 239.15 763.063 238.646L763.889 238.506C764.197 239.038 764.477 239.654 764.743 240.354H770.301V241.068H757.995V240.354ZM766.283 241.684C767.837 242.93 769.139 244.176 770.189 245.436L769.629 245.982C768.677 244.792 767.375 243.532 765.751 242.188L766.283 241.684ZM766.619 244.274L767.319 244.582C766.633 245.898 765.779 247.046 764.757 247.998C766.297 249.16 768.187 250.028 770.427 250.616L769.979 251.316C767.655 250.672 765.723 249.734 764.183 248.516C762.615 249.832 760.683 250.784 758.387 251.372L757.925 250.7C760.193 250.112 762.083 249.23 763.595 248.026C762.517 247.074 761.649 245.996 760.977 244.764L761.635 244.386C762.279 245.59 763.133 246.626 764.169 247.522C765.177 246.598 766.003 245.506 766.619 244.274ZM761.915 241.684L762.475 242.188C761.411 243.574 760.095 244.778 758.527 245.814L758.037 245.184C759.577 244.19 760.865 243.028 761.915 241.684ZM775.449 238.478L776.163 238.8C775.855 239.766 775.477 240.69 775.029 241.558V251.4H774.273V242.888C773.713 243.756 773.097 244.582 772.397 245.352L772.145 244.568C773.685 242.776 774.777 240.746 775.449 238.478ZM776.555 241.712H782.113V238.618H782.869V241.712H784.941V242.468H782.869V249.916C782.869 250.812 782.463 251.26 781.665 251.26H779.663L779.495 250.532C780.153 250.56 780.783 250.588 781.399 250.588C781.875 250.588 782.113 250.294 782.113 249.72V242.468H776.555V241.712ZM777.703 244.148C778.809 245.436 779.663 246.57 780.251 247.536L779.607 247.984C778.991 246.948 778.151 245.8 777.087 244.54L777.703 244.148Z" fill="white"/>
<rect x="717.807" y="283" width="404.192" height="36" rx="4" fill="white" fill-opacity="0.15"/>
<path d="M900.464 294.562L901.206 294.828C900.884 295.43 900.534 295.962 900.142 296.424H903.894V297.18H891.896V296.424H895.648C895.354 295.794 895.018 295.22 894.654 294.716L895.424 294.576C895.774 295.108 896.11 295.724 896.418 296.424H899.316C899.764 295.85 900.142 295.234 900.464 294.562ZM893.464 301.73V302.892C893.464 303.144 893.45 303.382 893.436 303.606H896.88V301.73H893.464ZM896.88 301.044V299.182H893.464V301.044H896.88ZM893.366 304.306C893.198 305.538 892.848 306.588 892.302 307.428L891.756 306.924C892.4 305.888 892.736 304.558 892.764 302.934V298.496H897.594V306.196C897.594 306.896 897.216 307.26 896.46 307.26H895.172L894.976 306.588C895.438 306.602 895.858 306.616 896.25 306.616C896.67 306.616 896.88 306.392 896.88 305.944V304.306H893.366ZM901.976 307.274H900.128L899.974 306.546C900.59 306.574 901.164 306.602 901.71 306.602C902.102 306.602 902.312 306.392 902.312 305.972V298.034H903.068V306.154C903.068 306.896 902.704 307.274 901.976 307.274ZM899.386 299.056H900.114V305.188H899.386V299.056ZM906.046 297.012H907.964C907.768 296.242 907.544 295.542 907.292 294.898L908.048 294.772C908.272 295.43 908.496 296.172 908.692 297.012H910.4V297.74H906.046V297.012ZM907.012 298.706C907.348 300.33 907.642 302.178 907.894 304.264L907.278 304.418C907.026 302.514 906.732 300.68 906.368 298.916L907.012 298.706ZM910.414 304.46V305.188C909.112 305.692 907.712 306.126 906.2 306.462L906.004 305.72C906.844 305.552 907.67 305.356 908.468 305.132C908.846 303.06 909.112 300.834 909.28 298.482L909.966 298.58C909.784 300.876 909.504 302.99 909.14 304.922C909.56 304.782 909.994 304.628 910.414 304.46ZM917.204 297.39V295.178H917.946V298.076H911.422V295.178H912.164V297.39H914.292V294.618H915.048V297.39H917.204ZM910.764 299.434H918.702V300.162H914.922C914.81 300.694 914.642 301.212 914.446 301.688H918.226V306.336C918.226 306.98 917.96 307.316 917.442 307.316H916.812L916.616 306.63L917.218 306.658C917.442 306.658 917.554 306.504 917.554 306.196V302.388H916.042V307.12H915.398V302.388H914.054V307.12H913.396V302.388H911.926V307.316H911.226V301.688H913.718C913.928 301.198 914.082 300.694 914.18 300.162H910.764V299.434ZM923.052 303.018H925.012V301.184H923.43V300.512H930.22V301.184H928.778V303.018H930.668V303.69H928.778V306.98H928.078V303.69H925.656C925.572 304.46 925.404 305.104 925.152 305.608C924.802 306.266 924.242 306.784 923.458 307.162L923.066 306.546C923.78 306.21 924.284 305.748 924.578 305.16C924.774 304.74 924.9 304.25 924.956 303.69H923.052V303.018ZM928.078 303.018V301.184H925.698V303.018H928.078ZM921.988 297.502V298.692H925.404V297.502H921.988ZM925.404 296.942V295.654H921.988V296.942H925.404ZM928.274 297.502V298.678H931.774V297.502H928.274ZM931.774 296.942V295.682H928.274V296.942H931.774ZM926.16 295.038V299.322H921.988V307.246H921.232V295.038H926.16ZM931.774 299.294H927.532V295.052H932.544V305.888C932.544 306.742 932.152 307.176 931.396 307.176C930.892 307.176 930.374 307.162 929.87 307.148L929.688 306.462C930.192 306.49 930.668 306.504 931.116 306.504C931.55 306.504 931.774 306.224 931.774 305.664V299.294ZM936.53 296.396C937.23 296.844 937.804 297.264 938.252 297.642C939.05 297.11 939.68 296.522 940.128 295.878H936.082V295.206H940.982V295.766C940.38 296.858 939.414 297.796 938.098 298.552H940.436V301.562H937.314L937.02 303.298H940.52C940.52 304.908 940.45 305.958 940.324 306.448C940.156 306.994 939.54 307.288 938.462 307.316C937.944 307.316 937.412 307.288 936.88 307.26L936.698 306.574C937.23 306.602 937.776 306.63 938.308 306.63C939.064 306.63 939.512 306.462 939.652 306.14C939.764 305.776 939.82 305.048 939.82 303.956H936.25L936.712 300.904H939.75V299.238H936.684C936.292 299.392 935.914 299.532 935.522 299.672L935.06 299.07C936.054 298.762 936.922 298.398 937.65 298.006C937.188 297.6 936.628 297.18 935.956 296.746L936.53 296.396ZM945.056 294.618L945.616 294.954C945.28 295.332 944.958 295.64 944.622 295.878C944.342 296.074 944.006 296.27 943.628 296.466C943.936 296.732 944.258 296.984 944.622 297.222C945.042 297.04 945.406 296.83 945.742 296.578C946.106 296.298 946.428 295.962 946.722 295.584L947.282 295.934C946.932 296.368 946.582 296.732 946.218 297.012C945.938 297.222 945.616 297.432 945.252 297.628C946.008 298.062 946.848 298.454 947.8 298.79L947.296 299.378C946.666 299.126 946.092 298.874 945.588 298.608V300.218C945.588 300.526 945.77 300.694 946.134 300.694H946.946V301.338H945.924C945.252 301.338 944.93 301.016 944.93 300.372V299.196H942.648C942.648 299.742 942.564 300.19 942.41 300.526C942.2 300.904 941.864 301.254 941.402 301.576L940.87 301.1C941.318 300.764 941.612 300.428 941.78 300.078C941.92 299.756 941.99 299.252 941.99 298.552H945.49C943.726 297.6 942.438 296.48 941.626 295.192L942.228 294.842C942.48 295.262 942.788 295.64 943.138 296.004C943.516 295.836 943.852 295.654 944.146 295.458C944.482 295.206 944.79 294.926 945.056 294.618ZM941.472 302.206H946.302V302.864C945.952 303.774 945.462 304.558 944.818 305.23C945.728 305.79 946.554 306.336 947.282 306.882L946.75 307.4C946.064 306.84 945.252 306.28 944.314 305.706C943.502 306.378 942.536 306.924 941.402 307.344L941.122 306.672C942.13 306.322 942.984 305.874 943.67 305.314C942.998 304.922 942.27 304.516 941.5 304.11L941.976 303.662C942.76 304.054 943.488 304.46 944.188 304.852C944.762 304.264 945.21 303.62 945.532 302.906H941.472V302.206Z" fill="white"/>
<rect x="820.797" y="58.75" width="301.453" height="36.5" rx="4.25" fill="#1A1A1A"/>
<rect x="820.797" y="58.75" width="301.453" height="36.5" rx="4.25" stroke="white" stroke-width="0.5"/>
<path d="M924.213 79.69L924.843 79.774C924.759 81.048 924.577 82.182 924.297 83.176L923.667 82.98C923.961 82.028 924.143 80.922 924.213 79.69ZM926.075 79.676C926.313 80.558 926.523 81.51 926.705 82.546L926.061 82.686C925.907 81.594 925.725 80.642 925.515 79.816L926.075 79.676ZM927.153 76.036C927.461 76.848 927.727 77.786 927.979 78.85L927.377 78.99C927.321 78.71 927.251 78.458 927.195 78.206C926.075 78.528 924.983 78.752 923.947 78.878L923.751 78.22C923.891 78.178 924.003 78.108 924.087 78.01C924.619 77.45 925.249 76.54 925.977 75.266C925.249 75.378 924.549 75.49 923.877 75.574L923.695 74.902C923.807 74.846 923.919 74.748 924.003 74.608C924.703 73.446 925.305 72.088 925.823 70.52L926.509 70.8C925.837 72.522 925.179 73.88 924.521 74.86C925.123 74.79 925.739 74.692 926.355 74.58C926.635 74.048 926.915 73.488 927.223 72.886L927.881 73.138C926.621 75.546 925.585 77.212 924.773 78.136C925.543 78.024 926.299 77.856 927.041 77.66C926.901 77.156 926.747 76.666 926.593 76.218L927.153 76.036ZM927.433 79.298C927.755 80.054 928.035 80.852 928.273 81.692L927.713 81.958C927.461 81.02 927.181 80.194 926.901 79.48L927.433 79.298ZM931.731 80.95C931.115 80.95 930.821 80.628 930.821 79.998V78.024H930.163V77.366H932.067C931.899 76.862 931.703 76.4 931.493 75.994L932.151 75.882C932.347 76.316 932.529 76.806 932.697 77.366H934.307V78.024H931.493V79.914C931.493 80.166 931.633 80.306 931.927 80.306H934.083V80.95H931.731ZM931.045 72.704C931.339 73.236 931.605 73.796 931.829 74.384L931.283 74.636C931.031 73.978 930.765 73.404 930.471 72.9L931.045 72.704ZM933.173 72.606L933.817 72.704C933.663 73.446 933.439 74.132 933.131 74.762H934.433V75.434H930.023V74.762H932.543C932.837 74.09 933.047 73.362 933.173 72.606ZM934.811 83.162H933.019L932.823 82.476L934.587 82.504C934.951 82.504 935.133 82.308 935.133 81.916V71.948H929.337V83.246H928.623V71.248H935.833V82.07C935.833 82.798 935.483 83.162 934.811 83.162ZM946.385 70.576H947.141V73.124H950.767V73.88H947.141V76.82H949.983V83.274H949.255V82.308H945.055V83.288H944.341V76.82H946.385V70.576ZM945.055 81.594H949.255V77.506H945.055V81.594ZM938.349 73.012H940.715C940.519 72.2 940.309 71.472 940.085 70.814L940.855 70.688C941.051 71.36 941.261 72.144 941.457 73.012H943.781V73.74H938.349V73.012ZM939.455 74.734C939.805 76.386 940.127 78.276 940.407 80.404L939.763 80.572C939.511 78.626 939.189 76.75 938.797 74.958L939.455 74.734ZM943.585 80.446V81.188C941.989 81.664 940.267 82.07 938.419 82.392L938.237 81.664C939.301 81.496 940.337 81.3 941.317 81.076C941.779 79.046 942.115 76.89 942.325 74.594L943.067 74.692C942.843 76.932 942.493 79.004 942.045 80.894C942.563 80.754 943.081 80.6 943.585 80.446ZM953.045 72.004H956.601C958.155 72.004 959.331 72.466 960.115 73.404C960.829 74.244 961.193 75.448 961.193 77.002C961.193 78.528 960.787 79.732 959.989 80.614C959.149 81.538 957.959 82 956.419 82H953.045V72.004ZM953.899 72.76V81.244H956.293C957.623 81.244 958.645 80.866 959.345 80.11C960.017 79.382 960.353 78.346 960.353 77.002C960.353 75.602 960.059 74.566 959.471 73.88C958.827 73.124 957.819 72.76 956.475 72.76H953.899ZM966.107 74.566C967.255 74.566 968.109 74.944 968.683 75.728C969.187 76.414 969.467 77.38 969.509 78.626H963.629C963.671 79.508 963.909 80.208 964.343 80.712C964.791 81.216 965.379 81.468 966.135 81.468C966.793 81.468 967.325 81.286 967.731 80.95C968.067 80.656 968.319 80.236 968.501 79.676H969.355C969.187 80.376 968.865 80.95 968.389 81.398C967.801 81.93 967.059 82.196 966.135 82.196C965.113 82.196 964.301 81.846 963.699 81.16C963.069 80.46 962.761 79.522 962.761 78.374C962.761 77.31 963.055 76.428 963.657 75.7C964.273 74.944 965.085 74.566 966.107 74.566ZM966.121 75.294C965.407 75.294 964.833 75.532 964.399 76.036C963.965 76.526 963.713 77.156 963.643 77.94H968.627C968.487 76.176 967.647 75.294 966.121 75.294ZM974.291 74.566C975.439 74.566 976.195 75.056 976.559 76.05C976.811 75.56 977.133 75.196 977.525 74.944C977.889 74.692 978.337 74.566 978.841 74.566C979.597 74.566 980.213 74.804 980.661 75.28C981.095 75.756 981.319 76.414 981.319 77.268V82H980.479V77.38C980.479 76.694 980.339 76.176 980.059 75.84C979.751 75.476 979.261 75.294 978.617 75.294C978.085 75.294 977.651 75.49 977.301 75.896C976.937 76.288 976.769 76.778 976.769 77.394V82H975.915V77.38C975.915 75.98 975.313 75.294 974.109 75.294C973.563 75.294 973.115 75.504 972.751 75.952C972.373 76.386 972.191 76.918 972.191 77.548V82H971.351V74.762H972.191V75.854C972.709 74.986 973.409 74.566 974.291 74.566ZM986.745 74.566C987.809 74.566 988.663 74.944 989.307 75.714C989.895 76.428 990.189 77.324 990.189 78.388C990.189 79.452 989.895 80.334 989.307 81.048C988.663 81.804 987.809 82.196 986.745 82.196C985.681 82.196 984.827 81.804 984.183 81.048C983.595 80.334 983.301 79.452 983.301 78.388C983.301 77.324 983.595 76.428 984.197 75.714C984.827 74.944 985.681 74.566 986.745 74.566ZM986.745 75.294C985.919 75.294 985.275 75.602 984.799 76.246C984.365 76.806 984.155 77.52 984.155 78.388C984.155 79.242 984.365 79.956 984.799 80.516C985.275 81.146 985.919 81.468 986.745 81.468C987.571 81.468 988.229 81.146 988.705 80.516C989.125 79.942 989.349 79.228 989.349 78.388C989.349 77.52 989.125 76.806 988.705 76.246C988.229 75.602 987.571 75.294 986.745 75.294ZM992.735 70.968C993.533 71.584 994.205 72.214 994.737 72.83L994.219 73.348C993.729 72.746 993.057 72.116 992.217 71.458L992.735 70.968ZM992.567 74.412C993.323 75.042 993.953 75.672 994.457 76.316L993.939 76.834C993.463 76.218 992.833 75.574 992.049 74.902L992.567 74.412ZM993.981 78.164L994.625 78.43C994.079 80.11 993.477 81.692 992.805 83.176L992.133 82.882C992.833 81.342 993.449 79.774 993.981 78.164ZM995.381 71.206H999.651V79.564H995.381V71.206ZM998.909 78.864V76.862H996.123V78.864H998.909ZM996.123 76.162H998.909V74.328H996.123V76.162ZM996.123 73.642H998.909V71.892H996.123V73.642ZM998.615 80.152C999.273 81.132 999.777 81.972 1000.13 82.7L999.539 83.12C999.175 82.336 998.671 81.468 998.041 80.516L998.615 80.152ZM996.305 80.18L996.949 80.488C996.515 81.468 995.955 82.42 995.255 83.344L994.597 83.008C995.311 82.056 995.885 81.118 996.305 80.18ZM1000.98 71.864H1001.69V80.6H1000.98V71.864ZM1003.14 83.162H1001.6L1001.44 82.42C1001.95 82.448 1002.42 82.476 1002.87 82.476C1003.23 82.476 1003.42 82.266 1003.42 81.86V70.646H1004.14V82.056C1004.14 82.784 1003.81 83.162 1003.14 83.162ZM1008.59 70.562C1008.87 71.15 1009.08 71.71 1009.24 72.214L1008.58 72.452C1008.38 71.864 1008.13 71.304 1007.85 70.758L1008.59 70.562ZM1006.6 72.564H1010.93V73.278H1006.6V72.564ZM1007.01 74.594H1010.45V75.28H1007.01V74.594ZM1007.01 76.456H1010.45V77.156H1007.01V76.456ZM1010.55 78.57V83.148H1009.84V82.434H1007.6V83.344H1006.9V78.57H1010.55ZM1007.6 81.734H1009.84V79.256H1007.6V81.734ZM1011.39 73.264H1015.44C1015.41 72.424 1015.41 71.556 1015.41 70.646H1016.12C1016.12 71.57 1016.12 72.452 1016.15 73.264H1018.88V73.978H1016.18C1016.26 76.61 1016.47 78.682 1016.81 80.18C1017.15 81.636 1017.45 82.378 1017.76 82.392C1018.01 82.308 1018.28 81.384 1018.56 79.62L1019.16 79.956C1018.8 82.112 1018.34 83.204 1017.76 83.204C1016.94 83.176 1016.29 81.692 1015.84 78.724C1015.65 77.38 1015.52 75.798 1015.47 73.978H1011.39V73.264ZM1011.31 76.316H1014.82V77.002H1013.45V80.712C1014.04 80.6 1014.6 80.488 1015.14 80.362V81.048C1013.94 81.328 1012.65 81.552 1011.27 81.748L1011.08 81.062C1011.64 80.992 1012.2 80.922 1012.74 80.838V77.002H1011.31V76.316ZM1017.44 70.73C1017.99 71.346 1018.41 71.892 1018.7 72.368L1018.15 72.746C1017.85 72.242 1017.43 71.682 1016.91 71.066L1017.44 70.73Z" fill="white"/>
</svg>
